<svg id="visual" viewBox="0 0 900 600" width="900" height="600" xmlns="http://www.w3.org/2000/svg" xmlns:xlink="http://www.w3.org/1999/xlink" version="1.1"><path d="M0 377L21.5 375C43 373 86 369 128.8 374.7C171.7 380.3 214.3 395.7 257.2 407.5C300 419.3 343 427.7 385.8 420.8C428.7 414 471.3 392 514.2 379.2C557 366.3 600 362.7 642.8 367.8C685.7 373 728.3 387 771.2 390C814 393 857 385 878.5 381L900 377L900 601L878.5 601C857 601 814 601 771.2 601C728.3 601 685.7 601 642.8 601C600 601 557 601 514.2 601C471.3 601 428.7 601 385.8 601C343 601 300 601 257.2 601C214.3 601 171.7 601 128.8 601C86 601 43 601 21.5 601L0 601Z" fill="#ffffff"></path><path d="M0 401L21.5 410.7C43 420.3 86 439.7 128.8 447.7C171.7 455.7 214.3 452.3 257.2 453.2C300 454 343 459 385.8 456.8C428.7 454.7 471.3 445.3 514.2 437.3C557 429.3 600 422.7 642.8 420.3C685.7 418 728.3 420 771.2 416.2C814 412.3 857 402.7 878.5 397.8L900 393L900 601L878.5 601C857 601 814 601 771.2 601C728.3 601 685.7 601 642.8 601C600 601 557 601 514.2 601C471.3 601 428.7 601 385.8 601C343 601 300 601 257.2 601C214.3 601 171.7 601 128.8 601C86 601 43 601 21.5 601L0 601Z" fill="#b9b9b9"></path><path d="M0 477L21.5 474.3C43 471.7 86 466.3 128.8 461.5C171.7 456.7 214.3 452.3 257.2 451.2C300 450 343 452 385.8 452C428.7 452 471.3 450 514.2 448.7C557 447.3 600 446.7 642.8 447.2C685.7 447.7 728.3 449.3 771.2 451.2C814 453 857 455 878.5 456L900 457L900 601L878.5 601C857 601 814 601 771.2 601C728.3 601 685.7 601 642.8 601C600 601 557 601 514.2 601C471.3 601 428.7 601 385.8 601C343 601 300 601 257.2 601C214.3 601 171.7 601 128.8 601C86 601 43 601 21.5 601L0 601Z" fill="#777777"></path><path d="M0 482L21.5 485.3C43 488.7 86 495.3 128.8 505.2C171.7 515 214.3 528 257.2 526.8C300 525.7 343 510.3 385.8 508.7C428.7 507 471.3 519 514.2 526C557 533 600 535 642.8 531.8C685.7 528.7 728.3 520.3 771.2 512C814 503.7 857 495.3 878.5 491.2L900 487L900 601L878.5 601C857 601 814 601 771.2 601C728.3 601 685.7 601 642.8 601C600 601 557 601 514.2 601C471.3 601 428.7 601 385.8 601C343 601 300 601 257.2 601C214.3 601 171.7 601 128.8 601C86 601 43 601 21.5 601L0 601Z" fill="#3b3b3b"></path><path d="M0 534L21.5 532.8C43 531.7 86 529.3 128.8 535.7C171.7 542 214.3 557 257.2 559C300 561 343 550 385.8 548.3C428.7 546.7 471.3 554.3 514.2 553.7C557 553 600 544 642.8 540.5C685.7 537 728.3 539 771.2 543.3C814 547.7 857 554.3 878.5 557.7L900 561L900 601L878.5 601C857 601 814 601 771.2 601C728.3 601 685.7 601 642.8 601C600 601 557 601 514.2 601C471.3 601 428.7 601 385.8 601C343 601 300 601 257.2 601C214.3 601 171.7 601 128.8 601C86 601 43 601 21.5 601L0 601Z" fill="#000000"></path></svg>