<svg xmlns="http://www.w3.org/2000/svg" xmlns:xlink="http://www.w3.org/1999/xlink" viewBox="0 0 500 500" width="500" height="500" preserveAspectRatio="xMidYMid meet" style="width: 100%; height: 100%; transform: translate3d(0px, 0px, 0px); content-visibility: visible;"><defs><clipPath id="__lottie_element_2"><rect width="500" height="500" x="0" y="0"></rect></clipPath><clipPath id="__lottie_element_4"><path d="M0,0 L500,0 L500,500 L0,500z"></path></clipPath></defs><g clip-path="url(#__lottie_element_2)"><g clip-path="url(#__lottie_element_4)" transform="matrix(1,0,0,1,10.698150634765625,-3.5276031494140625)" opacity="1" style="display: block;"><g transform="matrix(1,0,0,1,253,250)" opacity="1" style="display: block;"><g opacity="1" transform="matrix(1,0,0,1,-4.934000015258789,55.29100036621094)"><path fill="rgb(108,108,108)" fill-opacity="1" d=" M5.065499782562256,-12.22599983215332 C5.065499782562256,-12.22599983215332 5.065499782562256,12.22599983215332 5.065499782562256,12.22599983215332 C5.065499782562256,15.021649360656738 2.795649290084839,17.291500091552734 0,17.291500091552734 C0,17.291500091552734 0,17.291500091552734 0,17.291500091552734 C-2.795649290084839,17.291500091552734 -5.065499782562256,15.021649360656738 -5.065499782562256,12.22599983215332 C-5.065499782562256,12.22599983215332 -5.065499782562256,-12.22599983215332 -5.065499782562256,-12.22599983215332 C-5.065499782562256,-15.021649360656738 -2.795649290084839,-17.291500091552734 0,-17.291500091552734 C0,-17.291500091552734 0,-17.291500091552734 0,-17.291500091552734 C2.795649290084839,-17.291500091552734 5.065499782562256,-15.021649360656738 5.065499782562256,-12.22599983215332z"></path><path stroke-linecap="butt" stroke-linejoin="miter" fill-opacity="0" stroke-miterlimit="4" stroke="rgb(255,255,255)" stroke-opacity="1" stroke-width="0" d=" M5.065499782562256,-12.22599983215332 C5.065499782562256,-12.22599983215332 5.065499782562256,12.22599983215332 5.065499782562256,12.22599983215332 C5.065499782562256,15.021649360656738 2.795649290084839,17.291500091552734 0,17.291500091552734 C0,17.291500091552734 0,17.291500091552734 0,17.291500091552734 C-2.795649290084839,17.291500091552734 -5.065499782562256,15.021649360656738 -5.065499782562256,12.22599983215332 C-5.065499782562256,12.22599983215332 -5.065499782562256,-12.22599983215332 -5.065499782562256,-12.22599983215332 C-5.065499782562256,-15.021649360656738 -2.795649290084839,-17.291500091552734 0,-17.291500091552734 C0,-17.291500091552734 0,-17.291500091552734 0,-17.291500091552734 C2.795649290084839,-17.291500091552734 5.065499782562256,-15.021649360656738 5.065499782562256,-12.22599983215332z"></path></g></g><g transform="matrix(1,0,0,1,250,250)" opacity="1" style="display: block;"><g opacity="1" transform="matrix(1,0,0,1,-147.8719940185547,-46.14699935913086)"><path fill="rgb(19,19,19)" fill-opacity="1" d=" M10.6274995803833,-11.22550106048584 C10.6274995803833,-11.22550106048584 10.6274995803833,11.22550106048584 10.6274995803833,11.22550106048584 C10.6274995803833,17.090818405151367 5.865316867828369,21.85300064086914 0,21.85300064086914 C0,21.85300064086914 0,21.85300064086914 0,21.85300064086914 C-5.865316867828369,21.85300064086914 -10.6274995803833,17.090818405151367 -10.6274995803833,11.22550106048584 C-10.6274995803833,11.22550106048584 -10.6274995803833,-11.22550106048584 -10.6274995803833,-11.22550106048584 C-10.6274995803833,-17.090818405151367 -5.865316867828369,-21.85300064086914 0,-21.85300064086914 C0,-21.85300064086914 0,-21.85300064086914 0,-21.85300064086914 C5.865316867828369,-21.85300064086914 10.6274995803833,-17.090818405151367 10.6274995803833,-11.22550106048584z"></path><path stroke-linecap="butt" stroke-linejoin="miter" fill-opacity="0" stroke-miterlimit="4" stroke="rgb(255,255,255)" stroke-opacity="1" stroke-width="0" d=" M10.6274995803833,-11.22550106048584 C10.6274995803833,-11.22550106048584 10.6274995803833,11.22550106048584 10.6274995803833,11.22550106048584 C10.6274995803833,17.090818405151367 5.865316867828369,21.85300064086914 0,21.85300064086914 C0,21.85300064086914 0,21.85300064086914 0,21.85300064086914 C-5.865316867828369,21.85300064086914 -10.6274995803833,17.090818405151367 -10.6274995803833,11.22550106048584 C-10.6274995803833,11.22550106048584 -10.6274995803833,-11.22550106048584 -10.6274995803833,-11.22550106048584 C-10.6274995803833,-17.090818405151367 -5.865316867828369,-21.85300064086914 0,-21.85300064086914 C0,-21.85300064086914 0,-21.85300064086914 0,-21.85300064086914 C5.865316867828369,-21.85300064086914 10.6274995803833,-17.090818405151367 10.6274995803833,-11.22550106048584z"></path></g></g><g transform="matrix(1,0,0,1,541,250)" opacity="1" style="display: block;"><g opacity="1" transform="matrix(1,0,0,1,-147.8719940185547,-46.14699935913086)"><path fill="rgb(19,19,19)" fill-opacity="1" d=" M10.6274995803833,-11.22550106048584 C10.6274995803833,-11.22550106048584 10.6274995803833,11.22550106048584 10.6274995803833,11.22550106048584 C10.6274995803833,17.090818405151367 5.865316867828369,21.85300064086914 0,21.85300064086914 C0,21.85300064086914 0,21.85300064086914 0,21.85300064086914 C-5.865316867828369,21.85300064086914 -10.6274995803833,17.090818405151367 -10.6274995803833,11.22550106048584 C-10.6274995803833,11.22550106048584 -10.6274995803833,-11.22550106048584 -10.6274995803833,-11.22550106048584 C-10.6274995803833,-17.090818405151367 -5.865316867828369,-21.85300064086914 0,-21.85300064086914 C0,-21.85300064086914 0,-21.85300064086914 0,-21.85300064086914 C5.865316867828369,-21.85300064086914 10.6274995803833,-17.090818405151367 10.6274995803833,-11.22550106048584z"></path><path stroke-linecap="butt" stroke-linejoin="miter" fill-opacity="0" stroke-miterlimit="4" stroke="rgb(255,255,255)" stroke-opacity="1" stroke-width="0" d=" M10.6274995803833,-11.22550106048584 C10.6274995803833,-11.22550106048584 10.6274995803833,11.22550106048584 10.6274995803833,11.22550106048584 C10.6274995803833,17.090818405151367 5.865316867828369,21.85300064086914 0,21.85300064086914 C0,21.85300064086914 0,21.85300064086914 0,21.85300064086914 C-5.865316867828369,21.85300064086914 -10.6274995803833,17.090818405151367 -10.6274995803833,11.22550106048584 C-10.6274995803833,11.22550106048584 -10.6274995803833,-11.22550106048584 -10.6274995803833,-11.22550106048584 C-10.6274995803833,-17.090818405151367 -5.865316867828369,-21.85300064086914 0,-21.85300064086914 C0,-21.85300064086914 0,-21.85300064086914 0,-21.85300064086914 C5.865316867828369,-21.85300064086914 10.6274995803833,-17.090818405151367 10.6274995803833,-11.22550106048584z"></path></g></g><g transform="matrix(1.6723899841308594,0,0,1.061400055885315,640.4276123046875,272.6864318847656)" opacity="1" style="display: block;"><g opacity="1" transform="matrix(1,0,0,1,-147.8719940185547,-46.14699935913086)"><path fill="rgb(169,169,169)" fill-opacity="1" d=" M10.6274995803833,-11.85300064086914 C10.6274995803833,-11.85300064086914 10.6274995803833,11.85300064086914 10.6274995803833,11.85300064086914 C10.6274995803833,17.371999740600586 6.1464996337890625,21.85300064086914 0.6274995803833008,21.85300064086914 C0.6274995803833008,21.85300064086914 -0.6274995803833008,21.85300064086914 -0.6274995803833008,21.85300064086914 C-6.1464996337890625,21.85300064086914 -10.6274995803833,17.371999740600586 -10.6274995803833,11.85300064086914 C-10.6274995803833,11.85300064086914 -10.6274995803833,-11.85300064086914 -10.6274995803833,-11.85300064086914 C-10.6274995803833,-17.371999740600586 -6.1464996337890625,-21.85300064086914 -0.6274995803833008,-21.85300064086914 C-0.6274995803833008,-21.85300064086914 0.6274995803833008,-21.85300064086914 0.6274995803833008,-21.85300064086914 C6.1464996337890625,-21.85300064086914 10.6274995803833,-17.371999740600586 10.6274995803833,-11.85300064086914z"></path><path stroke-linecap="butt" stroke-linejoin="miter" fill-opacity="0" stroke-miterlimit="4" stroke="rgb(255,255,255)" stroke-opacity="1" stroke-width="0" d=" M10.6274995803833,-11.85300064086914 C10.6274995803833,-11.85300064086914 10.6274995803833,11.85300064086914 10.6274995803833,11.85300064086914 C10.6274995803833,17.371999740600586 6.1464996337890625,21.85300064086914 0.6274995803833008,21.85300064086914 C0.6274995803833008,21.85300064086914 -0.6274995803833008,21.85300064086914 -0.6274995803833008,21.85300064086914 C-6.1464996337890625,21.85300064086914 -10.6274995803833,17.371999740600586 -10.6274995803833,11.85300064086914 C-10.6274995803833,11.85300064086914 -10.6274995803833,-11.85300064086914 -10.6274995803833,-11.85300064086914 C-10.6274995803833,-17.371999740600586 -6.1464996337890625,-21.85300064086914 -0.6274995803833008,-21.85300064086914 C-0.6274995803833008,-21.85300064086914 0.6274995803833008,-21.85300064086914 0.6274995803833008,-21.85300064086914 C6.1464996337890625,-21.85300064086914 10.6274995803833,-17.371999740600586 10.6274995803833,-11.85300064086914z"></path></g></g><g transform="matrix(1.6723899841308594,0,0,1.061400055885315,350.4276428222656,272.6864318847656)" opacity="1" style="display: block;"><g opacity="1" transform="matrix(1,0,0,1,-147.8719940185547,-46.14699935913086)"><path fill="rgb(169,169,169)" fill-opacity="1" d=" M10.6274995803833,-11.85300064086914 C10.6274995803833,-11.85300064086914 10.6274995803833,11.85300064086914 10.6274995803833,11.85300064086914 C10.6274995803833,17.371999740600586 6.1464996337890625,21.85300064086914 0.6274995803833008,21.85300064086914 C0.6274995803833008,21.85300064086914 -0.6274995803833008,21.85300064086914 -0.6274995803833008,21.85300064086914 C-6.1464996337890625,21.85300064086914 -10.6274995803833,17.371999740600586 -10.6274995803833,11.85300064086914 C-10.6274995803833,11.85300064086914 -10.6274995803833,-11.85300064086914 -10.6274995803833,-11.85300064086914 C-10.6274995803833,-17.371999740600586 -6.1464996337890625,-21.85300064086914 -0.6274995803833008,-21.85300064086914 C-0.6274995803833008,-21.85300064086914 0.6274995803833008,-21.85300064086914 0.6274995803833008,-21.85300064086914 C6.1464996337890625,-21.85300064086914 10.6274995803833,-17.371999740600586 10.6274995803833,-11.85300064086914z"></path><path stroke-linecap="butt" stroke-linejoin="miter" fill-opacity="0" stroke-miterlimit="4" stroke="rgb(255,255,255)" stroke-opacity="1" stroke-width="0" d=" M10.6274995803833,-11.85300064086914 C10.6274995803833,-11.85300064086914 10.6274995803833,11.85300064086914 10.6274995803833,11.85300064086914 C10.6274995803833,17.371999740600586 6.1464996337890625,21.85300064086914 0.6274995803833008,21.85300064086914 C0.6274995803833008,21.85300064086914 -0.6274995803833008,21.85300064086914 -0.6274995803833008,21.85300064086914 C-6.1464996337890625,21.85300064086914 -10.6274995803833,17.371999740600586 -10.6274995803833,11.85300064086914 C-10.6274995803833,11.85300064086914 -10.6274995803833,-11.85300064086914 -10.6274995803833,-11.85300064086914 C-10.6274995803833,-17.371999740600586 -6.1464996337890625,-21.85300064086914 -0.6274995803833008,-21.85300064086914 C-0.6274995803833008,-21.85300064086914 0.6274995803833008,-21.85300064086914 0.6274995803833008,-21.85300064086914 C6.1464996337890625,-21.85300064086914 10.6274995803833,-17.371999740600586 10.6274995803833,-11.85300064086914z"></path></g></g><g transform="matrix(1.6723899841308594,0,0,1.061400055885315,348.9276428222656,272.6864318847656)" opacity="1" style="display: block;"><g opacity="1" transform="matrix(1,0,0,1,0,0)"><path fill="rgb(242,242,242)" fill-opacity="1" d=" M-59.750999450683594,-61.88600158691406 C-78.28700256347656,-65.18399810791016 -141.07200622558594,-39.03900146484375 -141.07200622558594,-39.03900146484375 C-141.07200622558594,-39.03900146484375 -161.40199279785156,-39.03900146484375 -161.40199279785156,-39.03900146484375 C-161.40199279785156,-39.03900146484375 -161.40199279785156,-38.80400085449219 -161.4770050048828,-30.913000106811523 C-150.56399536132812,-11.598999977111816 -116.70600128173828,-14.897000312805176 -116.70600128173828,-14.897000312805176 C-116.70600128173828,-14.897000312805176 -107.51200103759766,-9.833000183105469 -107.51200103759766,-9.833000183105469 C-107.51200103759766,-9.833000183105469 -107.06400299072266,10.187999725341797 -107.06400299072266,10.187999725341797 C-107.06400299072266,10.187999725341797 -112.44599914550781,102.63600158691406 -112.44599914550781,102.63600158691406 C-112.44599914550781,102.63600158691406 -112.81900024414062,108.1719970703125 -108.78299713134766,109.11399841308594 C-104.74700164794922,110.05599975585938 -103.4020004272461,102.75399780273438 -103.4020004272461,102.75399780273438 C-103.4020004272461,102.75399780273438 -93.98400115966797,12.071999549865723 -93.98400115966797,12.071999549865723 C-93.98400115966797,12.071999549865723 -92.63800048828125,10.42300033569336 -90.02200317382812,5.359000205993652 C-82.77200317382812,20.78700065612793 -68.87000274658203,20.43400001525879 -68.87000274658203,20.43400001525879 C-68.87000274658203,20.43400001525879 -66.5530014038086,20.670000076293945 -51.45500183105469,20.08099937438965 C-36.356998443603516,19.492000579833984 -30.899999618530273,5.947999954223633 -30.899999618530273,5.947999954223633 C-30.899999618530273,5.947999954223633 -27.312999725341797,11.248000144958496 -27.312999725341797,11.248000144958496 C-27.312999725341797,11.248000144958496 -17.148000717163086,103.93199920654297 -17.148000717163086,103.93199920654297 C-17.148000717163086,103.93199920654297 -15.204999923706055,110.05599975585938 -11.317999839782715,108.99600219726562 C-7.880000114440918,108.87799835205078 -7.879000186920166,102.28299713134766 -7.879000186920166,102.28299713134766 C-7.879000186920166,102.28299713134766 -13.5600004196167,11.482999801635742 -13.5600004196167,11.482999801635742 C-13.5600004196167,11.482999801635742 -13.5600004196167,-2.2950000762939453 -13.484999656677246,-10.538999557495117 C-5.785999774932861,-17.016000747680664 4.677000045776367,-15.83899974822998 21.04599952697754,-17.722999572753906 C37.56399917602539,-21.96299934387207 40.255001068115234,-31.738000869750977 40.255001068115234,-31.738000869750977 C40.255001068115234,-31.738000869750977 39.80699920654297,-39.74599838256836 39.80699920654297,-39.74599838256836 C39.80699920654297,-39.74599838256836 17.084999084472656,-40.6879997253418 17.084999084472656,-40.6879997253418 C17.084999084472656,-40.6879997253418 -41.21500015258789,-58.5880012512207 -59.750999450683594,-61.88600158691406z"></path><path stroke-linecap="butt" stroke-linejoin="miter" fill-opacity="0" stroke-miterlimit="4" stroke="rgb(255,255,255)" stroke-opacity="1" stroke-width="0" d=" M-59.750999450683594,-61.88600158691406 C-78.28700256347656,-65.18399810791016 -141.07200622558594,-39.03900146484375 -141.07200622558594,-39.03900146484375 C-141.07200622558594,-39.03900146484375 -161.40199279785156,-39.03900146484375 -161.40199279785156,-39.03900146484375 C-161.40199279785156,-39.03900146484375 -161.40199279785156,-38.80400085449219 -161.4770050048828,-30.913000106811523 C-150.56399536132812,-11.598999977111816 -116.70600128173828,-14.897000312805176 -116.70600128173828,-14.897000312805176 C-116.70600128173828,-14.897000312805176 -107.51200103759766,-9.833000183105469 -107.51200103759766,-9.833000183105469 C-107.51200103759766,-9.833000183105469 -107.06400299072266,10.187999725341797 -107.06400299072266,10.187999725341797 C-107.06400299072266,10.187999725341797 -112.44599914550781,102.63600158691406 -112.44599914550781,102.63600158691406 C-112.44599914550781,102.63600158691406 -112.81900024414062,108.1719970703125 -108.78299713134766,109.11399841308594 C-104.74700164794922,110.05599975585938 -103.4020004272461,102.75399780273438 -103.4020004272461,102.75399780273438 C-103.4020004272461,102.75399780273438 -93.98400115966797,12.071999549865723 -93.98400115966797,12.071999549865723 C-93.98400115966797,12.071999549865723 -92.63800048828125,10.42300033569336 -90.02200317382812,5.359000205993652 C-82.77200317382812,20.78700065612793 -68.87000274658203,20.43400001525879 -68.87000274658203,20.43400001525879 C-68.87000274658203,20.43400001525879 -66.5530014038086,20.670000076293945 -51.45500183105469,20.08099937438965 C-36.356998443603516,19.492000579833984 -30.899999618530273,5.947999954223633 -30.899999618530273,5.947999954223633 C-30.899999618530273,5.947999954223633 -27.312999725341797,11.248000144958496 -27.312999725341797,11.248000144958496 C-27.312999725341797,11.248000144958496 -17.148000717163086,103.93199920654297 -17.148000717163086,103.93199920654297 C-17.148000717163086,103.93199920654297 -15.204999923706055,110.05599975585938 -11.317999839782715,108.99600219726562 C-7.880000114440918,108.87799835205078 -7.879000186920166,102.28299713134766 -7.879000186920166,102.28299713134766 C-7.879000186920166,102.28299713134766 -13.5600004196167,11.482999801635742 -13.5600004196167,11.482999801635742 C-13.5600004196167,11.482999801635742 -13.5600004196167,-2.2950000762939453 -13.484999656677246,-10.538999557495117 C-5.785999774932861,-17.016000747680664 4.677000045776367,-15.83899974822998 21.04599952697754,-17.722999572753906 C37.56399917602539,-21.96299934387207 40.255001068115234,-31.738000869750977 40.255001068115234,-31.738000869750977 C40.255001068115234,-31.738000869750977 39.80699920654297,-39.74599838256836 39.80699920654297,-39.74599838256836 C39.80699920654297,-39.74599838256836 17.084999084472656,-40.6879997253418 17.084999084472656,-40.6879997253418 C17.084999084472656,-40.6879997253418 -41.21500015258789,-58.5880012512207 -59.750999450683594,-61.88600158691406z"></path></g></g><g transform="matrix(1,0,0,1,250,250)" opacity="1" style="display: block;"><g opacity="1" transform="matrix(1,0,0,1,0,0)"><path fill="rgb(190,190,190)" fill-opacity="1" d=" M0,0.5 C-56.630001068115234,0.6679999828338623 -170.5,-10 -170.5,-10 C-170.5,-10 -172.5,-1 -130.5,5 C-88.5,11 -110,1.5 -80,12.5 C-80,30.5 -80.125,34.125 -80.125,34.125 C-80.125,34.125 -57.625,34.125 -57.625,34.125 C-57.625,34.125 -51.75,28 -51.75,28 C-51.75,28 -40.625,47.125 -6.125,44 C15.625,43.75 21.75,43.75 21.75,43.75 C21.75,43.75 39.125,40.125 47.375,28.5 C53,33.875 54.375,34.5 54.375,34.5 C54.375,34.5 76.125,34.125 76.125,34.125 C76.125,34.125 75.875,11.375 75.875,11.375 C75.875,11.375 94.125,5.125 104.375,5.125 C114.625,5.125 153.25,6.375 166.5,-11 C166.125,-15 55.94300079345703,0.33399999141693115 0,0.5z"></path><path stroke-linecap="butt" stroke-linejoin="miter" fill-opacity="0" stroke-miterlimit="4" stroke="rgb(255,255,255)" stroke-opacity="1" stroke-width="0" d=" M0,0.5 C-56.630001068115234,0.6679999828338623 -170.5,-10 -170.5,-10 C-170.5,-10 -172.5,-1 -130.5,5 C-88.5,11 -110,1.5 -80,12.5 C-80,30.5 -80.125,34.125 -80.125,34.125 C-80.125,34.125 -57.625,34.125 -57.625,34.125 C-57.625,34.125 -51.75,28 -51.75,28 C-51.75,28 -40.625,47.125 -6.125,44 C15.625,43.75 21.75,43.75 21.75,43.75 C21.75,43.75 39.125,40.125 47.375,28.5 C53,33.875 54.375,34.5 54.375,34.5 C54.375,34.5 76.125,34.125 76.125,34.125 C76.125,34.125 75.875,11.375 75.875,11.375 C75.875,11.375 94.125,5.125 104.375,5.125 C114.625,5.125 153.25,6.375 166.5,-11 C166.125,-15 55.94300079345703,0.33399999141693115 0,0.5z"></path></g></g><g transform="matrix(1,0,0,1,250,240.00001525878906)" opacity="1" style="display: block;"><g opacity="1" transform="matrix(1,0,0,1,-27.93899917602539,85.69999694824219)"><path fill="rgb(199,198,198)" fill-opacity="1" d=" M3.311000108718872,-5.264499664306641 C3.311000108718872,-5.264499664306641 3.311000108718872,5.264499664306641 3.311000108718872,5.264499664306641 C3.311000108718872,7.0918402671813965 1.8273409605026245,8.575499534606934 0,8.575499534606934 C0,8.575499534606934 0,8.575499534606934 0,8.575499534606934 C-1.8273409605026245,8.575499534606934 -3.311000108718872,7.0918402671813965 -3.311000108718872,5.264499664306641 C-3.311000108718872,5.264499664306641 -3.311000108718872,-5.264499664306641 -3.311000108718872,-5.264499664306641 C-3.311000108718872,-7.0918402671813965 -1.8273409605026245,-8.575499534606934 0,-8.575499534606934 C0,-8.575499534606934 0,-8.575499534606934 0,-8.575499534606934 C1.8273409605026245,-8.575499534606934 3.311000108718872,-7.0918402671813965 3.311000108718872,-5.264499664306641z"></path><path stroke-linecap="butt" stroke-linejoin="miter" fill-opacity="0" stroke-miterlimit="4" stroke="rgb(255,255,255)" stroke-opacity="1" stroke-width="0" d=" M3.311000108718872,-5.264499664306641 C3.311000108718872,-5.264499664306641 3.311000108718872,5.264499664306641 3.311000108718872,5.264499664306641 C3.311000108718872,7.0918402671813965 1.8273409605026245,8.575499534606934 0,8.575499534606934 C0,8.575499534606934 0,8.575499534606934 0,8.575499534606934 C-1.8273409605026245,8.575499534606934 -3.311000108718872,7.0918402671813965 -3.311000108718872,5.264499664306641 C-3.311000108718872,5.264499664306641 -3.311000108718872,-5.264499664306641 -3.311000108718872,-5.264499664306641 C-3.311000108718872,-7.0918402671813965 -1.8273409605026245,-8.575499534606934 0,-8.575499534606934 C0,-8.575499534606934 0,-8.575499534606934 0,-8.575499534606934 C1.8273409605026245,-8.575499534606934 3.311000108718872,-7.0918402671813965 3.311000108718872,-5.264499664306641z"></path></g></g><g transform="matrix(1,0,0,1,302.5,240.00001525878906)" opacity="1" style="display: block;"><g opacity="1" transform="matrix(1,0,0,1,-27.93899917602539,85.69999694824219)"><path fill="rgb(199,198,198)" fill-opacity="1" d=" M3.311000108718872,-5.264499664306641 C3.311000108718872,-5.264499664306641 3.311000108718872,5.264499664306641 3.311000108718872,5.264499664306641 C3.311000108718872,7.0918402671813965 1.8273409605026245,8.575499534606934 0,8.575499534606934 C0,8.575499534606934 0,8.575499534606934 0,8.575499534606934 C-1.8273409605026245,8.575499534606934 -3.311000108718872,7.0918402671813965 -3.311000108718872,5.264499664306641 C-3.311000108718872,5.264499664306641 -3.311000108718872,-5.264499664306641 -3.311000108718872,-5.264499664306641 C-3.311000108718872,-7.0918402671813965 -1.8273409605026245,-8.575499534606934 0,-8.575499534606934 C0,-8.575499534606934 0,-8.575499534606934 0,-8.575499534606934 C1.8273409605026245,-8.575499534606934 3.311000108718872,-7.0918402671813965 3.311000108718872,-5.264499664306641z"></path><path stroke-linecap="butt" stroke-linejoin="miter" fill-opacity="0" stroke-miterlimit="4" stroke="rgb(255,255,255)" stroke-opacity="1" stroke-width="0" d=" M3.311000108718872,-5.264499664306641 C3.311000108718872,-5.264499664306641 3.311000108718872,5.264499664306641 3.311000108718872,5.264499664306641 C3.311000108718872,7.0918402671813965 1.8273409605026245,8.575499534606934 0,8.575499534606934 C0,8.575499534606934 0,8.575499534606934 0,8.575499534606934 C-1.8273409605026245,8.575499534606934 -3.311000108718872,7.0918402671813965 -3.311000108718872,5.264499664306641 C-3.311000108718872,5.264499664306641 -3.311000108718872,-5.264499664306641 -3.311000108718872,-5.264499664306641 C-3.311000108718872,-7.0918402671813965 -1.8273409605026245,-8.575499534606934 0,-8.575499534606934 C0,-8.575499534606934 0,-8.575499534606934 0,-8.575499534606934 C1.8273409605026245,-8.575499534606934 3.311000108718872,-7.0918402671813965 3.311000108718872,-5.264499664306641z"></path></g></g><g transform="matrix(1,0,0,1,250,240)" opacity="1" style="display: block;"><g opacity="1" transform="matrix(1,0,0,1,-1.934000015258789,85.41400146484375)"><path fill="rgb(242,242,242)" fill-opacity="1" d=" M24.81599998474121,-9.03849983215332 C24.81599998474121,-9.03849983215332 24.81599998474121,9.03849983215332 24.81599998474121,9.03849983215332 C24.81599998474121,14.557499885559082 20.334999084472656,19.03849983215332 14.815999984741211,19.03849983215332 C14.815999984741211,19.03849983215332 -14.815999984741211,19.03849983215332 -14.815999984741211,19.03849983215332 C-20.334999084472656,19.03849983215332 -24.81599998474121,14.557499885559082 -24.81599998474121,9.03849983215332 C-24.81599998474121,9.03849983215332 -24.81599998474121,-9.03849983215332 -24.81599998474121,-9.03849983215332 C-24.81599998474121,-14.557499885559082 -20.334999084472656,-19.03849983215332 -14.815999984741211,-19.03849983215332 C-14.815999984741211,-19.03849983215332 14.815999984741211,-19.03849983215332 14.815999984741211,-19.03849983215332 C20.334999084472656,-19.03849983215332 24.81599998474121,-14.557499885559082 24.81599998474121,-9.03849983215332z"></path><path stroke-linecap="butt" stroke-linejoin="miter" fill-opacity="0" stroke-miterlimit="4" stroke="rgb(255,255,255)" stroke-opacity="1" stroke-width="0" d=" M24.81599998474121,-9.03849983215332 C24.81599998474121,-9.03849983215332 24.81599998474121,9.03849983215332 24.81599998474121,9.03849983215332 C24.81599998474121,14.557499885559082 20.334999084472656,19.03849983215332 14.815999984741211,19.03849983215332 C14.815999984741211,19.03849983215332 -14.815999984741211,19.03849983215332 -14.815999984741211,19.03849983215332 C-20.334999084472656,19.03849983215332 -24.81599998474121,14.557499885559082 -24.81599998474121,9.03849983215332 C-24.81599998474121,9.03849983215332 -24.81599998474121,-9.03849983215332 -24.81599998474121,-9.03849983215332 C-24.81599998474121,-14.557499885559082 -20.334999084472656,-19.03849983215332 -14.815999984741211,-19.03849983215332 C-14.815999984741211,-19.03849983215332 14.815999984741211,-19.03849983215332 14.815999984741211,-19.03849983215332 C20.334999084472656,-19.03849983215332 24.81599998474121,-14.557499885559082 24.81599998474121,-9.03849983215332z"></path></g></g><g transform="matrix(1,0,0,1,250.75,238.875)" opacity="1" style="display: block;"><g opacity="1" transform="matrix(1,0,0,1,-2.3610000610351562,86.63899993896484)"><path fill="rgb(199,198,198)" fill-opacity="1" d=" M0,-15.51449966430664 C8.56245231628418,-15.51449966430664 15.51449966430664,-8.56245231628418 15.51449966430664,0 C15.51449966430664,8.56245231628418 8.56245231628418,15.51449966430664 0,15.51449966430664 C-8.56245231628418,15.51449966430664 -15.51449966430664,8.56245231628418 -15.51449966430664,0 C-15.51449966430664,-8.56245231628418 -8.56245231628418,-15.51449966430664 0,-15.51449966430664z"></path><path stroke-linecap="butt" stroke-linejoin="miter" fill-opacity="0" stroke-miterlimit="4" stroke="rgb(255,255,255)" stroke-opacity="1" stroke-width="0" d=" M0,-15.51449966430664 C8.56245231628418,-15.51449966430664 15.51449966430664,-8.56245231628418 15.51449966430664,0 C15.51449966430664,8.56245231628418 8.56245231628418,15.51449966430664 0,15.51449966430664 C-8.56245231628418,15.51449966430664 -15.51449966430664,8.56245231628418 -15.51449966430664,0 C-15.51449966430664,-8.56245231628418 -8.56245231628418,-15.51449966430664 0,-15.51449966430664z"></path></g></g><g transform="matrix(1,0,0,1,240.29100036621094,239.98199462890625)" opacity="1" style="display: block;"><g opacity="1" transform="matrix(1,0,0,1,7.928999900817871,85.34500122070312)"><path fill="rgb(0,0,0)" fill-opacity="1" d=" M0,-8.352499961853027 C4.609744548797607,-8.352499961853027 8.352499961853027,-4.609744548797607 8.352499961853027,0 C8.352499961853027,4.609744548797607 4.609744548797607,8.352499961853027 0,8.352499961853027 C-4.609744548797607,8.352499961853027 -8.352499961853027,4.609744548797607 -8.352499961853027,0 C-8.352499961853027,-4.609744548797607 -4.609744548797607,-8.352499961853027 0,-8.352499961853027z"></path><path stroke-linecap="butt" stroke-linejoin="miter" fill-opacity="0" stroke-miterlimit="4" stroke="rgb(255,255,255)" stroke-opacity="1" stroke-width="0" d=" M0,-8.352499961853027 C4.609744548797607,-8.352499961853027 8.352499961853027,-4.609744548797607 8.352499961853027,0 C8.352499961853027,4.609744548797607 4.609744548797607,8.352499961853027 0,8.352499961853027 C-4.609744548797607,8.352499961853027 -8.352499961853027,4.609744548797607 -8.352499961853027,0 C-8.352499961853027,-4.609744548797607 -4.609744548797607,-8.352499961853027 0,-8.352499961853027z"></path></g></g><g transform="matrix(0.4944300055503845,0,0,0.4944300055503845,246.31936645507812,286.15789794921875)" opacity="1" style="display: block;"><g opacity="1" transform="matrix(0.4951600134372711,0,0,0.4951600134372711,7.928999900817871,85.34500122070312)"><path fill="rgb(255,255,255)" fill-opacity="1" d=" M0,-8.352499961853027 C4.609744548797607,-8.352499961853027 8.352499961853027,-4.609744548797607 8.352499961853027,0 C8.352499961853027,4.609744548797607 4.609744548797607,8.352499961853027 0,8.352499961853027 C-4.609744548797607,8.352499961853027 -8.352499961853027,4.609744548797607 -8.352499961853027,0 C-8.352499961853027,-4.609744548797607 -4.609744548797607,-8.352499961853027 0,-8.352499961853027z"></path><path stroke-linecap="butt" stroke-linejoin="miter" fill-opacity="0" stroke-miterlimit="4" stroke="rgb(255,255,255)" stroke-opacity="1" stroke-width="0" d=" M0,-8.352499961853027 C4.609744548797607,-8.352499961853027 8.352499961853027,-4.609744548797607 8.352499961853027,0 C8.352499961853027,4.609744548797607 4.609744548797607,8.352499961853027 0,8.352499961853027 C-4.609744548797607,8.352499961853027 -8.352499961853027,4.609744548797607 -8.352499961853027,0 C-8.352499961853027,-4.609744548797607 -4.609744548797607,-8.352499961853027 0,-8.352499961853027z"></path></g></g><g transform="matrix(0.4020000100135803,0,0,1,77.11265563964844,182.97799682617188)" opacity="1" style="display: block;"><g opacity="1" transform="matrix(1,0,0,1,41.305999755859375,16.20400047302246)"><path fill="rgb(62,62,62)" fill-opacity="1" d=" M-21.72100067138672,-7.013000011444092 C-21.72100067138672,-7.013000011444092 -39.573001861572266,-6.98799991607666 -40.507999420166016,-6.986000061035156 C-41.05699920654297,-6.986000061035156 -40.17300033569336,-5.835999965667725 -39.3380012512207,-4.868000030517578 C-38.58100128173828,-3.994999885559082 -37.55799865722656,-3.3980000019073486 -36.43899917602539,-3.0899999141693115 C-36.43899917602539,-3.0899999141693115 -8.78499984741211,4.611999988555908 -8.78499984741211,4.611999988555908 C0.16200000047683716,7.105999946594238 9.75,5.65500020980835 17.55900001525879,0.6320000290870667 C17.55900001525879,0.6320000290870667 23.211999893188477,-3.003999948501587 23.211999893188477,-3.003999948501587 C23.211999893188477,-3.003999948501587 41.05699920654297,-3.0299999713897705 41.05699920654297,-3.0299999713897705 C41.05699920654297,-3.0299999713897705 41.04800033569336,-7.10699987411499 41.04800033569336,-7.10699987411499 C41.04800033569336,-7.10699987411499 -21.72100067138672,-7.013000011444092 -21.72100067138672,-7.013000011444092z"></path></g><g opacity="1" transform="matrix(1,0,0,1,129.84100341796875,7.35699987411499)"><path fill="rgb(62,62,62)" fill-opacity="1" d=" M39.34000015258789,4.869999885559082 C38.57899856567383,3.989000082015991 37.55400085449219,3.3970000743865967 36.44300079345703,3.0859999656677246 C36.44300079345703,3.0859999656677246 8.784000396728516,-4.618000030517578 8.784000396728516,-4.618000030517578 C-0.16599999368190765,-7.105999946594238 -9.746000289916992,-5.658999919891357 -17.56100082397461,-0.6380000114440918 C-17.56100082397461,-0.6380000114440918 -23.21500015258789,3.003999948501587 -23.21500015258789,3.003999948501587 C-23.21500015258789,3.003999948501587 -41.05400085449219,3.0339999198913574 -41.05400085449219,3.0339999198913574 C-41.05400085449219,3.0339999198913574 -41.05099868774414,7.10699987411499 -41.05099868774414,7.10699987411499 C-41.05099868774414,7.10699987411499 21.716999053955078,7.013000011444092 21.716999053955078,7.013000011444092 C21.716999053955078,7.013000011444092 39.57099914550781,6.98199987411499 40.512001037597656,6.98199987411499 C41.05500030517578,6.980000019073486 40.176998138427734,5.831999778747559 39.34000015258789,4.869999885559082z"></path></g></g><g transform="matrix(0.4020000100135803,0,0,1,369.38067626953125,182.5369873046875)" opacity="1" style="display: block;"><g opacity="1" transform="matrix(1,0,0,1,41.30699920654297,16.204999923706055)"><path fill="rgb(62,62,62)" fill-opacity="1" d=" M-21.714000701904297,-7.011000156402588 C-21.714000701904297,-7.011000156402588 -39.566001892089844,-6.985000133514404 -40.50699996948242,-6.986000061035156 C-41.05699920654297,-6.985000133514404 -40.172000885009766,-5.835999965667725 -39.33700180053711,-4.868000030517578 C-38.58000183105469,-3.996000051498413 -37.55799865722656,-3.3980000019073486 -36.43899917602539,-3.0899999141693115 C-36.43899917602539,-3.0899999141693115 -8.78499984741211,4.611000061035156 -8.78499984741211,4.611000061035156 C0.16300000250339508,7.105999946594238 9.75100040435791,5.65500020980835 17.55900001525879,0.6309999823570251 C17.55900001525879,0.6309999823570251 23.211999893188477,-3.003000020980835 23.211999893188477,-3.003000020980835 C23.211999893188477,-3.003000020980835 41.05699920654297,-3.0320000648498535 41.05699920654297,-3.0320000648498535 C41.05699920654297,-3.0320000648498535 41.04800033569336,-7.105999946594238 41.04800033569336,-7.105999946594238 C41.04800033569336,-7.105999946594238 -21.714000701904297,-7.011000156402588 -21.714000701904297,-7.011000156402588z"></path></g><g opacity="1" transform="matrix(1,0,0,1,129.84100341796875,7.35699987411499)"><path fill="rgb(62,62,62)" fill-opacity="1" d=" M39.340999603271484,4.869999885559082 C38.58399963378906,3.994999885559082 37.5620002746582,3.4010000228881836 36.444000244140625,3.0899999141693115 C36.444000244140625,3.0899999141693115 8.782999992370605,-4.614999771118164 8.782999992370605,-4.614999771118164 C-0.16500000655651093,-7.10699987411499 -9.746000289916992,-5.656000137329102 -17.555999755859375,-0.628000020980835 C-17.555999755859375,-0.628000020980835 -23.209999084472656,3.00600004196167 -23.209999084472656,3.00600004196167 C-23.209999084472656,3.00600004196167 -41.05500030517578,3.0339999198913574 -41.05500030517578,3.0339999198913574 C-41.05500030517578,3.0339999198913574 -41.05099868774414,7.10699987411499 -41.05099868774414,7.10699987411499 C-41.05099868774414,7.10699987411499 21.7189998626709,7.01200008392334 21.7189998626709,7.01200008392334 C21.7189998626709,7.01200008392334 39.569000244140625,6.984000205993652 40.5099983215332,6.984000205993652 C41.05400085449219,6.98199987411499 40.176998138427734,5.835000038146973 39.340999603271484,4.869999885559082z"></path></g></g><g transform="matrix(1,0,0,1,250,250)" opacity="1" style="display: block;"><g opacity="1" transform="matrix(0.09047999978065491,0,0,0.25457000732421875,-1.4160000085830688,-33.553001403808594)"><path fill="rgb(38,38,38)" fill-opacity="1" d=" M0,-7.221499919891357 C38.3540153503418,-7.221499919891357 69.49449920654297,-3.9855458736419678 69.49449920654297,0 C69.49449920654297,3.9855458736419678 38.3540153503418,7.221499919891357 0,7.221499919891357 C-38.3540153503418,7.221499919891357 -69.49449920654297,3.9855458736419678 -69.49449920654297,0 C-69.49449920654297,-3.9855458736419678 -38.3540153503418,-7.221499919891357 0,-7.221499919891357z"></path><path stroke-linecap="butt" stroke-linejoin="miter" fill-opacity="0" stroke-miterlimit="4" stroke="rgb(255,255,255)" stroke-opacity="1" stroke-width="0" d=" M0,-7.221499919891357 C38.3540153503418,-7.221499919891357 69.49449920654297,-3.9855458736419678 69.49449920654297,0 C69.49449920654297,3.9855458736419678 38.3540153503418,7.221499919891357 0,7.221499919891357 C-38.3540153503418,7.221499919891357 -69.49449920654297,3.9855458736419678 -69.49449920654297,0 C-69.49449920654297,-3.9855458736419678 -38.3540153503418,-7.221499919891357 0,-7.221499919891357z"></path></g></g></g></g></svg>