<?xml version="1.0" encoding="UTF-8" standalone="no" ?>
<!DOCTYPE svg PUBLIC "-//W3C//DTD SVG 1.1//EN" "http://www.w3.org/Graphics/SVG/1.1/DTD/svg11.dtd">
<svg xmlns="http://www.w3.org/2000/svg" xmlns:xlink="http://www.w3.org/1999/xlink" version="1.1" width="1024" height="599" viewBox="0 0 1024 599" xml:space="preserve">
<desc>Created with Fabric.js 5.3.0</desc>
<defs>
</defs>
<g transform="matrix(1.5066388244636033 0 0 1.5066388244636035 512.2884406023202 299.90797184647926)" id="background-05fc041b-d3bc-4c09-862a-6d7116b7cbf3"  >
<rect style="stroke: none; stroke-width: 0; stroke-dasharray: none; stroke-linecap: butt; stroke-dashoffset: 0; stroke-linejoin: miter; stroke-miterlimit: 4; fill: rgb(8,8,71); fill-rule: nonzero; opacity: 1;"  paint-order="stroke"  x="-340" y="-199" rx="0" ry="0" width="680" height="398" />
</g>
<g transform="matrix(1.5460360432093851 0 0 1.5460360432093851 520.3110186193936 409.6190375643761)" id="shape-ec402fd0-b342-4f78-9091-3b20b5fd9682"  >
<g style="opacity: 0.25;"  paint-order="stroke"   >
		<g transform="matrix(1 0 0 1 0 0)" id="shape-1"  >
<circle style="stroke: none; stroke-width: 1; stroke-dasharray: none; stroke-linecap: butt; stroke-dashoffset: 0; stroke-linejoin: miter; stroke-miterlimit: 4; fill: rgb(255,255,255); fill-rule: nonzero; opacity: 0.15;"  paint-order="stroke"  cx="0" cy="0" r="376.27" />
</g>
		<g transform="matrix(1 0 0 1 0 0)" id="shape-1"  >
<circle style="stroke: none; stroke-width: 1; stroke-dasharray: none; stroke-linecap: butt; stroke-dashoffset: 0; stroke-linejoin: miter; stroke-miterlimit: 4; fill: rgb(255,255,255); fill-rule: nonzero; opacity: 0.24;"  paint-order="stroke"  cx="0" cy="0" r="306.62" />
</g>
		<g transform="matrix(1 0 0 1 0 0)" id="shape-1"  >
<circle style="stroke: none; stroke-width: 1; stroke-dasharray: none; stroke-linecap: butt; stroke-dashoffset: 0; stroke-linejoin: miter; stroke-miterlimit: 4; fill: rgb(255,255,255); fill-rule: nonzero; opacity: 0.33;"  paint-order="stroke"  cx="0" cy="0" r="236.96" />
</g>
		<g transform="matrix(1 0 0 1 0 0)" id="shape-1"  >
<circle style="stroke: none; stroke-width: 1; stroke-dasharray: none; stroke-linecap: butt; stroke-dashoffset: 0; stroke-linejoin: miter; stroke-miterlimit: 4; fill: rgb(255,255,255); fill-rule: nonzero; opacity: 0.41;"  paint-order="stroke"  cx="0" cy="0" r="167.31" />
</g>
		<g transform="matrix(1 0 0 1 2.842171e-14 2.842171e-14)" id="shape-1"  >
<circle style="stroke: none; stroke-width: 1; stroke-dasharray: none; stroke-linecap: butt; stroke-dashoffset: 0; stroke-linejoin: miter; stroke-miterlimit: 4; fill: rgb(255,255,255); fill-rule: nonzero; opacity: 0.5;"  paint-order="stroke"  cx="0" cy="0" r="97.65" />
</g>
</g>
</g>
<g transform="matrix(0.633993647039992 -1.3667525755944265 1.3667525755944263 0.6339936470399918 276.2647099814686 223.91512292721183)" id="text-logo-0"  >
<g style=""  paint-order="stroke"   >
		<g transform="matrix(1 0 0 1 0 0)" id="text-logo-0-path-0"  >
<path style="stroke: none; stroke-width: 0; stroke-dasharray: none; stroke-linecap: butt; stroke-dashoffset: 0; stroke-linejoin: miter; stroke-miterlimit: 4; fill: rgb(255,255,255); fill-rule: nonzero; opacity: 1;"  paint-order="stroke"  transform=" translate(-10.41, 11.549999999999999)" d="M 11.85 0.3 C 15.11 0.3 17.49 -0.79 19.83 -3.56 L 18.51 -4.92 C 16.9 -2.24 14.49 -0.63 11.85 -0.63 C 7 -0.63 3.43 -4.98 3.43 -11.55 C 3.43 -17.69 6.93 -22.51 11.85 -22.51 C 14.65 -22.51 16.7 -21.25 18.51 -18.18 L 19.83 -19.54 C 17.79 -21.98 14.95 -23.4 11.85 -23.4 C 5.61 -23.4 0.99 -18.64 0.99 -11.55 C 0.99 -4.88 5.48 0.3 11.85 0.3 Z" stroke-linecap="round" />
</g>
</g>
</g>
<g transform="matrix(0.8330620531507288 -1.255375705906945 1.255375705906945 0.8330620531507287 296.1291090409849 188.41044146204266)" id="text-logo-1"  >
<g style=""  paint-order="stroke"   >
		<g transform="matrix(0.9999999999999999 0 0 1 0 0)" id="text-logo-1-path-0"  >
<path style="stroke: none; stroke-width: 0; stroke-dasharray: none; stroke-linecap: butt; stroke-dashoffset: 0; stroke-linejoin: miter; stroke-miterlimit: 4; fill: rgb(255,255,255); fill-rule: nonzero; opacity: 1;"  paint-order="stroke"  transform=" translate(-7.375, 11.55)" d="M 13.76 -0.92 L 3.43 -0.92 L 3.43 -23.1 L 0.99 -23.1 L 0.99 0 L 13.76 0 Z" stroke-linecap="round" />
</g>
</g>
</g>
<g transform="matrix(1.0072231009506454 -1.1204740837219014 1.1204740837219016 1.0072231009506456 320.2011554199305 157.32865179357825)" id="text-logo-2"  >
<g style=""  paint-order="stroke"   >
		<g transform="matrix(1 0 0 1 0 0)" id="text-logo-2-path-0"  >
<path style="stroke: none; stroke-width: 0; stroke-dasharray: none; stroke-linecap: butt; stroke-dashoffset: 0; stroke-linejoin: miter; stroke-miterlimit: 4; fill: rgb(255,255,255); fill-rule: nonzero; opacity: 1;"  paint-order="stroke"  transform=" translate(-11.865, 11.549999999999999)" d="M 0.99 -11.55 C 0.99 -5.18 5.87 0.3 11.85 0.3 C 17.85 0.3 22.74 -5.18 22.74 -11.55 C 22.74 -17.92 17.85 -23.4 11.85 -23.4 C 5.84 -23.4 0.99 -17.92 0.99 -11.55 Z M 3.43 -11.55 C 3.43 -17.42 7.19 -22.51 11.85 -22.51 C 16.5 -22.51 20.3 -17.42 20.3 -11.55 C 20.3 -5.68 16.5 -0.63 11.85 -0.63 C 7.19 -0.63 3.43 -5.68 3.43 -11.55 Z" stroke-linecap="round" />
</g>
</g>
</g>
<g transform="matrix(1.1880738123351282 -0.9265210002069802 0.9265210002069804 1.1880738123351284 354.9595987235437 125.21596727960218)" id="text-logo-3"  >
<g style=""  paint-order="stroke"   >
		<g transform="matrix(0.9999999999999999 0 0 1 0 0)" id="text-logo-3-path-0"  >
<path style="stroke: none; stroke-width: 0; stroke-dasharray: none; stroke-linecap: butt; stroke-dashoffset: 0; stroke-linejoin: miter; stroke-miterlimit: 4; fill: rgb(255,255,255); fill-rule: nonzero; opacity: 1;"  paint-order="stroke"  transform=" translate(-9.8, 11.4)" d="M 3.43 -8.81 L 3.43 -23.1 L 0.99 -23.1 L 0.99 -8.81 C 0.99 -3.96 4.95 0.3 9.8 0.3 C 14.69 0.3 18.61 -3.96 18.61 -8.81 L 18.61 -23.1 L 17.69 -23.1 L 17.69 -8.81 C 17.69 -4.46 14.52 -0.63 10.56 -0.63 C 6.63 -0.63 3.43 -4.46 3.43 -8.81 Z" stroke-linecap="round" />
</g>
</g>
</g>
<g transform="matrix(1.3245402196589955 -0.7180207196778992 0.718020719677899 1.3245402196589953 392.07335637960614 100.65677020867884)" id="text-logo-4"  >
<g style=""  paint-order="stroke"   >
		<g transform="matrix(1 0 0 1 0 0)" id="text-logo-4-path-0"  >
<path style="stroke: none; stroke-width: 0; stroke-dasharray: none; stroke-linecap: butt; stroke-dashoffset: 0; stroke-linejoin: miter; stroke-miterlimit: 4; fill: rgb(255,255,255); fill-rule: nonzero; opacity: 1;"  paint-order="stroke"  transform=" translate(-10.195, 11.55)" d="M 0.99 0 L 7.85 0 C 14.22 0 19.4 -5.18 19.4 -11.55 C 19.4 -17.92 14.22 -23.1 7.85 -23.1 L 0.99 -23.1 Z M 3.43 -0.92 L 3.43 -22.18 L 6.34 -22.18 C 12.21 -22.18 16.96 -17.42 16.96 -11.55 C 16.96 -5.68 12.21 -0.92 6.34 -0.92 Z" stroke-linecap="round" />
</g>
</g>
</g>
<g transform="matrix(1.4170930876903334 -0.5116715041912593 0.5116715041912593 1.4170930876903336 428.8877019161547 84.14363580121665)" id="text-logo-5"  >
<g style=""  paint-order="stroke"   >
		<g transform="matrix(1 0 0 1 0 0)" id="text-logo-5-path-0"  >
<path style="stroke: none; stroke-width: 0; stroke-dasharray: none; stroke-linecap: butt; stroke-dashoffset: 0; stroke-linejoin: miter; stroke-miterlimit: 4; fill: rgb(255,255,255); fill-rule: nonzero; opacity: 1;"  paint-order="stroke"  transform=" translate(-7.375, 11.55)" d="M 13.76 -0.92 L 3.43 -0.92 L 3.43 -23.1 L 0.99 -23.1 L 0.99 0 L 13.76 0 Z" stroke-linecap="round" />
</g>
</g>
</g>
<g transform="matrix(1.4611240822705112 -0.3675281806749318 0.36752818067493187 1.4611240822705114 454.60737030348344 76.28682769151732)" id="text-logo-6"  >
<g style=""  paint-order="stroke"   >
		<g transform="matrix(1 0 0 1 0 0)" id="text-logo-6-path-0"  >
<path style="stroke: none; stroke-width: 0; stroke-dasharray: none; stroke-linecap: butt; stroke-dashoffset: 0; stroke-linejoin: miter; stroke-miterlimit: 4; fill: rgb(255,255,255); fill-rule: nonzero; opacity: 1;"  paint-order="stroke"  transform=" translate(-2.21, 11.55)" d="M 0.99 0 L 3.43 0 L 3.43 -23.1 L 0.99 -23.1 Z" stroke-linecap="round" />
</g>
</g>
</g>
<g transform="matrix(1.493106186946848 -0.20148067371862832 0.20148067371862835 1.4931061869468483 484.29793552113443 70.56779916280158)" id="text-logo-7"  >
<g style=""  paint-order="stroke"   >
		<g transform="matrix(1 0 0 1 0 0)" id="text-logo-7-path-0"  >
<path style="stroke: none; stroke-width: 0; stroke-dasharray: none; stroke-linecap: butt; stroke-dashoffset: 0; stroke-linejoin: miter; stroke-miterlimit: 4; fill: rgb(255,255,255); fill-rule: nonzero; opacity: 1;"  paint-order="stroke"  transform=" translate(-9.340000000000002, 11.55)" d="M 0.99 -23.1 L 0.99 0 L 1.91 0 L 1.91 -21.58 L 14.95 0 L 17.69 0 L 17.69 -23.1 L 16.76 -23.1 L 16.76 -1.52 L 3.73 -23.1 Z" stroke-linecap="round" />
</g>
</g>
</g>
<g transform="matrix(1.5065166105794905 0.01918982618868869 -0.01918982618868869 1.5065166105794903 523.6565302585739 68.17703770187137)" id="text-logo-8"  >
<g style=""  paint-order="stroke"   >
		<g transform="matrix(0.9999999999999999 0 0 1 0 0)" id="text-logo-8-path-0"  >
<path style="stroke: none; stroke-width: 0; stroke-dasharray: none; stroke-linecap: butt; stroke-dashoffset: 0; stroke-linejoin: miter; stroke-miterlimit: 4; fill: rgb(255,255,255); fill-rule: nonzero; opacity: 1;"  paint-order="stroke"  transform=" translate(-7.705, 11.55)" d="M 3.43 -0.92 L 3.43 -11.09 L 12.04 -11.09 L 12.04 -12.01 L 3.43 -12.01 L 3.43 -22.18 L 14.42 -22.18 L 14.42 -23.1 L 0.99 -23.1 L 0.99 0 L 14.42 0 L 14.42 -0.92 Z" stroke-linecap="round" />
</g>
</g>
</g>
<g transform="matrix(0.9902732362052599 0.13913632759118547 -0.13913632759118547 0.9902732362052599 374.61335825662985 59.20777532239703)" id="text-logo-9"  >
<g style=""  paint-order="stroke"   >
		<g transform="matrix(1 0 0 1 0 0)" id="text-logo-9-path-0"  >
<path style="stroke: none; stroke-width: 0; stroke-dasharray: none; stroke-linecap: butt; stroke-dashoffset: 0; stroke-linejoin: miter; stroke-miterlimit: 4; fill: rgb(255,255,255); fill-rule: nonzero; opacity: 1;"  paint-order="stroke"  transform=" translate(0, 0)" d="" stroke-linecap="round" />
</g>
</g>
</g>
<g transform="matrix(1.466319119945007 0.3462207184221781 -0.34622071842217816 1.4663191199450072 582.0253359593285 75.34793119045821)" id="text-logo-10"  >
<g style=""  paint-order="stroke"   >
		<g transform="matrix(1 0 0 1 0 0)" id="text-logo-10-path-0"  >
<path style="stroke: none; stroke-width: 0; stroke-dasharray: none; stroke-linecap: butt; stroke-dashoffset: 0; stroke-linejoin: miter; stroke-miterlimit: 4; fill: rgb(255,255,255); fill-rule: nonzero; opacity: 1;"  paint-order="stroke"  transform=" translate(-2.21, 11.55)" d="M 0.99 0 L 3.43 0 L 3.43 -23.1 L 0.99 -23.1 Z" stroke-linecap="round" />
</g>
</g>
</g>
<g transform="matrix(1.4125156230816276 0.5241756975780064 -0.5241756975780063 1.4125156230816274 613.8046508944375 84.9526541942871)" id="text-logo-11"  >
<g style=""  paint-order="stroke"   >
		<g transform="matrix(0.9999999999999999 0 0 0.9999999999999999 0 0)" id="text-logo-11-path-0"  >
<path style="stroke: none; stroke-width: 0; stroke-dasharray: none; stroke-linecap: butt; stroke-dashoffset: 0; stroke-linejoin: miter; stroke-miterlimit: 4; fill: rgb(255,255,255); fill-rule: nonzero; opacity: 1;"  paint-order="stroke"  transform=" translate(-11.090000000000002, 11.55)" d="M 3.73 -23.1 L 0.99 -23.1 L 0.99 0 L 1.91 0 L 1.91 -20.63 L 9.57 0 L 12.31 0 L 18.74 -20.23 L 18.74 0 L 21.19 0 L 21.19 -23.1 L 18.74 -23.1 L 11.81 -1.32 Z" stroke-linecap="round" />
</g>
</g>
</g>
<g transform="matrix(1.305234854202617 0.7525440337652948 -0.7525440337652947 1.3052348542026169 654.6059102749471 104.1235048645504)" id="text-logo-12"  >
<g style=""  paint-order="stroke"   >
		<g transform="matrix(0.9999999999999999 0 0 1 0 0)" id="text-logo-12-path-0"  >
<path style="stroke: none; stroke-width: 0; stroke-dasharray: none; stroke-linecap: butt; stroke-dashoffset: 0; stroke-linejoin: miter; stroke-miterlimit: 4; fill: rgb(255,255,255); fill-rule: nonzero; opacity: 1;"  paint-order="stroke"  transform=" translate(-9.255, 11.55)" d="M 0.99 0 L 1.91 0 L 4.32 -7.99 L 12.64 -7.99 L 15.08 0 L 17.52 0 L 10.46 -23.1 L 8.02 -23.1 Z M 4.62 -8.88 L 8.48 -21.58 L 12.38 -8.88 Z" stroke-linecap="round" />
</g>
</g>
</g>
<g transform="matrix(1.1690451994036213 0.9504177340161619 -0.950417734016162 1.1690451994036215 689.9082225335524 128.4217879779631)" id="text-logo-13"  >
<g style=""  paint-order="stroke"   >
		<g transform="matrix(0.9999999999999999 0 0 1 0 0)" id="text-logo-13-path-0"  >
<path style="stroke: none; stroke-width: 0; stroke-dasharray: none; stroke-linecap: butt; stroke-dashoffset: 0; stroke-linejoin: miter; stroke-miterlimit: 4; fill: rgb(255,255,255); fill-rule: nonzero; opacity: 1;"  paint-order="stroke"  transform=" translate(-11.8, 11.549999999999999)" d="M 0.99 -11.55 C 0.99 -4.88 5.48 0.3 11.85 0.3 C 17.56 0.3 21.68 -3.4 22.61 -9.83 L 13.66 -9.83 L 13.66 -8.91 L 20 -8.91 C 19.04 -4.03 15.84 -0.63 11.85 -0.63 C 7 -0.63 3.43 -4.98 3.43 -11.55 C 3.43 -17.69 6.93 -22.51 11.85 -22.51 C 14.65 -22.51 16.7 -21.25 18.51 -18.18 L 19.83 -19.54 C 17.79 -21.98 14.95 -23.4 11.85 -23.4 C 5.61 -23.4 0.99 -18.64 0.99 -11.55 Z" stroke-linecap="round" />
</g>
</g>
</g>
<g transform="matrix(0.9999204088813994 1.1269958843241281 -1.1269958843241283 0.9999204088813997 721.4218399336961 158.6029152591031)" id="text-logo-14"  >
<g style=""  paint-order="stroke"   >
		<g transform="matrix(1 0 0 1 0 0)" id="text-logo-14-path-0"  >
<path style="stroke: none; stroke-width: 0; stroke-dasharray: none; stroke-linecap: butt; stroke-dashoffset: 0; stroke-linejoin: miter; stroke-miterlimit: 4; fill: rgb(255,255,255); fill-rule: nonzero; opacity: 1;"  paint-order="stroke"  transform=" translate(-7.705, 11.55)" d="M 3.43 -0.92 L 3.43 -11.09 L 12.04 -11.09 L 12.04 -12.01 L 3.43 -12.01 L 3.43 -22.18 L 14.42 -22.18 L 14.42 -23.1 L 0.99 -23.1 L 0.99 0 L 14.42 0 L 14.42 -0.92 Z" stroke-linecap="round" />
</g>
</g>
</g>
<g transform="matrix(0.8199642288910601 1.2639696241287437 -1.263969624128744 0.8199642288910602 746.5719954415631 199.84716710738073)" id="text-logo-15"  >
<g style=""  paint-order="stroke"   >
		<g transform="matrix(1 0 0 1 0 0)" id="text-logo-15-path-0"  >
<path style="stroke: none; stroke-width: 0; stroke-dasharray: none; stroke-linecap: butt; stroke-dashoffset: 0; stroke-linejoin: miter; stroke-miterlimit: 4; fill: rgb(255,255,255); fill-rule: nonzero; opacity: 1;"  paint-order="stroke"  transform=" translate(-15.180000000000001, 8.645000000000001)" d="M 9.24 -23.1 L 0.99 -23.1 L 0.99 0 L 3.43 0 L 3.43 -6.96 L 6.37 -6.96 C 7.89 -6.77 9.21 -6.04 10.36 -5.12 C 12.21 -3.63 13.7 -1.75 15.51 0 C 17.29 1.72 19.11 3.56 21.55 4.82 C 22.74 5.41 24.12 5.81 25.51 5.81 C 26.93 5.81 28.25 5.38 29.37 4.72 L 29.01 3.86 C 28.18 4.09 27.36 4.22 26.57 4.22 C 23.93 4.22 21.71 2.54 19.83 0.83 C 18.94 0 18.08 -0.86 17.23 -1.75 C 15.21 -3.83 12.61 -5.94 9.87 -7 C 14.03 -7.33 17.29 -10.79 17.29 -15.05 C 17.29 -19.5 13.7 -23.1 9.24 -23.1 Z M 3.43 -7.89 L 3.43 -22.18 L 7.69 -22.18 C 11.65 -22.18 14.85 -18.98 14.85 -15.05 C 14.85 -11.09 11.65 -7.89 7.69 -7.89 Z" stroke-linecap="round" />
</g>
</g>
</g>
<g transform="matrix(0.6161767344529697 1.374877005153531 -1.374877005153531 0.6161767344529697 765.6729144613402 227.09708531098497)" id="text-logo-16"  >
<g style=""  paint-order="stroke"   >
		<g transform="matrix(1 0 0 1 0 0)" id="text-logo-16-path-0"  >
<path style="stroke: none; stroke-width: 0; stroke-dasharray: none; stroke-linecap: butt; stroke-dashoffset: 0; stroke-linejoin: miter; stroke-miterlimit: 4; fill: rgb(255,255,255); fill-rule: nonzero; opacity: 1;"  paint-order="stroke"  transform=" translate(-8.315, 11.55)" d="M 0.99 -23.1 L 7.1 -11.91 L 7.1 0 L 9.54 0 L 9.54 -11.91 L 15.64 -23.1 L 14.75 -23.1 L 9.08 -12.77 L 3.43 -23.1 Z" stroke-linecap="round" />
</g>
</g>
</g>
<g transform="matrix(1 0 0 1 340.06606474344863 296.25929552079265)" id="tagline-def5f289-8159-42cb-80b3-43e2ff5ed656-logo"  >
<g style=""  paint-order="stroke"   >
		<g transform="matrix(1 0 0 1 0 0)" id="tagline-def5f289-8159-42cb-80b3-43e2ff5ed656-logo-path-0"  >
<path style="stroke: none; stroke-width: 0; stroke-dasharray: none; stroke-linecap: butt; stroke-dashoffset: 0; stroke-linejoin: miter; stroke-miterlimit: 4; fill: rgb(255,255,255); fill-rule: nonzero; opacity: 1;"  paint-order="stroke"  transform=" translate(0, 0)" d="" stroke-linecap="round" />
</g>
</g>
</g>
<g transform="matrix(1.0198995130740613 0 0 1.0198995130740613 520.3110186193935 251.24895471408607)" id="maker-logo"  >
<g style=""  paint-order="stroke"   >
		<g transform="matrix(1 0 0 1 0 0)" id="background-logo"  >
<rect style="stroke: none; stroke-width: 0; stroke-dasharray: none; stroke-linecap: butt; stroke-dashoffset: 0; stroke-linejoin: miter; stroke-miterlimit: 4; fill: rgb(30,30,87); fill-rule: nonzero; opacity: 0; visibility: hidden;"  paint-order="stroke"  x="-325" y="-260" rx="0" ry="0" width="650" height="520" />
</g>
		<g transform="matrix(1 0 0 1 0 -54.123678131606084)" id="logo-logo"  >
<g style=""  paint-order="stroke"   >
		<g transform="matrix(0.8403693724035253 0 0 0.8403693724035253 -4.567431111373992 23.21974325184928)"  >
<path style="stroke: none; stroke-width: 1; stroke-dasharray: none; stroke-linecap: butt; stroke-dashoffset: 0; stroke-linejoin: miter; stroke-miterlimit: 4; fill: rgb(8,8,71); fill-rule: nonzero; opacity: 1;"  paint-order="stroke"  transform=" translate(-512.9266662499999, -551.3112487999999)" d="M 583.4882812 537.6220703 C 575.9639892 540.0576782 570.3243408 543.6275635000001 566.7042236 546.3361206000001 C 570.8453369 539.0538940000001 574.9865112 531.7716064000001 579.1276245 524.4893799 C 597.1231079 525.6762085 615.1185303 526.8631592 633.1140137 528.0499878 C 635.1635742 531.3172607 639.449646 532.6836548 643.0056763 533.8423462000001 C 644.2471924 534.2468872000001 645.5004883 534.5753784000001 646.758606 534.8723145 L 618.0212402999999 534.8723145 C 613.0486450999999 535.6051636 606.6794434 537.4451294 600.914856 542.0213013 C 593.1241456 548.2059326 588.4387207 557.8206787 587.2061768 568.8121338 C 586.6085206 574.1416016 582.0299683 578.1331177 576.6670533 578.1331177 L 576.6670533 578.1331177 C 576.6546632000001 570.7693482 577.2841187 562.4376831 579.1276246 553.4255370999999 C 580.3192139 547.6003418 581.8453369 542.3197021 583.4882812 537.6220703 z M 460.0563354 578.1331177 L 460.0563354 578.1331177 C 460.0687255 570.7693482 459.43927 562.4376831 457.5957641 553.4255370999999 C 456.4041747 547.6003417999999 454.8780517 542.3197021 453.2351074 537.6220702999999 C 460.7593994 540.0576781999999 466.3990478 543.6275635 470.019165 546.3361206 C 465.8780517 539.053894 461.73687739999997 531.7716064 457.5957641 524.4893798999999 C 439.3566894 525.6922607999999 421.1174926 526.8953247 402.8784179 528.0982055999999 C 402.37365719999997 529.5979614999999 401.0960693 530.8030395999999 399.0425414 530.8030395999999 C 398.5236815 530.8030395999999 398.0702514 530.7063598999999 397.6503295 530.567688 C 394.5776977 532.2409058 391.1856689 532.93927 387.6808471 533.3562012 C 387.309204 533.4003907 386.94812 533.3670044 386.6012573 533.2814331 C 384.1043701 533.8331909 381.5975342 534.3435668999999 379.0947265 534.8723143999999 L 418.7021484 534.8723143999999 C 423.6747436 535.6051634999999 430.0439453 537.4451293 435.8085327 542.0213011999999 C 443.5992431 548.2059324999999 448.284668 557.8206786 449.5172119 568.8121336999999 C 450.1148376 574.1416016 454.6934509 578.1331177 460.0563354 578.1331177 z" stroke-linecap="round" />
</g>
		<g transform="matrix(0.8403693724035253 0 0 0.8403693724035253 4.201859837849e-8 -9.476493129753663)"  >
<linearGradient id="SVGID_621712" gradientUnits="userSpaceOnUse" gradientTransform="matrix(1 0 0 1 64.37786870000002 -56.170226999999954)"  x1="512.9266357" y1="578.1331177" x2="512.9266357" y2="524.4893799">
<stop offset="45.65638%" style="stop-color:rgb(255,255,255);stop-opacity: 1"/>
<stop offset="100%" style="stop-color:rgb(204,204,204);stop-opacity: 1"/>
</linearGradient>
<path style="stroke: none; stroke-width: 1; stroke-dasharray: none; stroke-linecap: butt; stroke-dashoffset: 0; stroke-linejoin: miter; stroke-miterlimit: 4; fill: url(#SVGID_621712); fill-rule: nonzero; opacity: 1;"  paint-order="stroke"  transform=" translate(-518.36169435, -512.4042664)" d="M 574.5318604 516.3191528 C 560.2331543 512.5522460999999 550.3647461 505.2896118 545.1384888 500.78686519999997 C 554.638855 498.99615479999994 563.1773072 497.55389399999996 570.7746582 496.45263669999997 C 569.001709 495.1426391 567.2156982 493.74700929999995 565.4254761 492.23400879999997 C 559.0092162999999 486.81143189999995 553.9779662999999 481.23352049999994 550.0895995999999 476.1907654 C 546.2590941999999 471.2229309 540.3446654999999 468.31915289999995 534.0715332 468.31915289999995 L 518.3616943 468.31915289999995 L 504.86944579999994 468.31915289999995 C 497.32208249999996 468.31915289999995 490.19894409999995 471.7587280999999 485.48535159999994 477.65322879999997 C 481.76937869999995 482.30010989999994 477.09988409999994 487.33056639999995 471.29791259999996 492.23400879999997 C 469.50769039999994 493.74700929999995 467.7216797 495.14263919999996 465.94873049999995 496.45263669999997 C 473.5460816 497.55389399999996 482.08453369999995 498.9961548 491.5848999 500.78686519999997 C 486.3586426 505.2896118 476.49023439999996 512.5522460999999 462.19152829999996 516.3191528 C 455.11761469999993 518.1827392 448.70800779999996 518.7288208 443.47259519999994 518.7230835 C 447.54565429999997 526.1281738 454.63696289999996 536.0437012 466.44683839999993 544.0638428 C 481.32171629999993 554.1655274 496.00695799999994 556.0479126 502.7021484999999 556.4893799 L 513.1047973999999 515.3309326 C 514.4843139999999 509.8728943 522.2390747 509.8728943 523.6185912999999 515.3309326 L 534.0212402 556.4893799 C 540.7164306 556.0479126 555.4016723 554.1655274 570.2765502999999 544.0638428 C 582.0864257999999 536.0437012 589.1777344 526.1281739 593.2507935 518.7230835 C 588.0153809 518.7288208 581.6057739 518.1827393 574.5318604 516.3191528 z" stroke-linecap="round" />
</g>
		<g transform="matrix(0.8403693724035253 0 0 0.8403693724035253 -31.467252647284568 -9.476493129753663)"  >
<linearGradient id="SVGID_621713" gradientUnits="userSpaceOnUse" gradientTransform="matrix(1 0 0 1 -9.999996564147e-8 0)"  x1="494.3208923" y1="560.3790283" x2="545.4779663" y2="471.7723999">
<stop offset="0%" style="stop-color:rgb(204,204,204);stop-opacity: 1"/>
<stop offset="54.34362%" style="stop-color:rgb(255,255,255);stop-opacity: 1"/>
</linearGradient>
<path style="stroke: none; stroke-width: 1; stroke-dasharray: none; stroke-linecap: butt; stroke-dashoffset: 0; stroke-linejoin: miter; stroke-miterlimit: 4; fill: url(#SVGID_621713); fill-rule: nonzero; opacity: 1;"  paint-order="stroke"  transform=" translate(-480.9171447, -512.4042664)" d="M 518.3616943 511.2373657 C 516.078125 511.2373657 513.7945556 512.6018677 513.1047973 515.3308716 L 502.7021484 556.4893799 C 496.006958 556.0479126 481.3217163 554.1655274 466.44683829999997 544.0638428 C 454.6369628 536.0437012 447.54565419999994 526.1281739 443.4725951 518.7230835 C 448.7080077 518.7288208 455.11761459999997 518.1827393 462.1915282 516.3191528 C 476.4902343 512.5522460999999 486.3586425 505.2896118 491.5848998 500.78686519999997 C 482.08453360000004 498.99615479999994 473.5460814 497.55389399999996 465.94873040000004 496.45263669999997 C 467.7216796000001 495.1426391 469.50769040000006 493.74700929999995 471.29791250000005 492.23400879999997 C 477.09991450000007 487.33056639999995 481.7694091000001 482.3001099 485.48535150000004 477.6531983 C 490.1989745 471.7587281 497.3220825 468.3191529 504.8694457 468.3191529 L 518.3616942 468.3191529 L 518.3616942 511.2373657 z" stroke-linecap="round" />
</g>
		<g transform="matrix(0.8403693724035253 0 0 0.8403693724035253 5.684342e-14 -10.477791430178314)"  >
<linearGradient id="SVGID_621714" gradientUnits="userSpaceOnUse" gradientTransform="matrix(1 0 0 1 -130.08728009999993 16.680847099999994)"  x1="480.9171448" y1="556.4893799" x2="480.9171448" y2="468.3191528">
<stop offset="45.65638%" style="stop-color:rgb(255,255,255);stop-opacity: 1"/>
<stop offset="100%" style="stop-color:rgb(204,204,204);stop-opacity: 1"/>
</linearGradient>
<path style="stroke: none; stroke-width: 1; stroke-dasharray: none; stroke-linecap: butt; stroke-dashoffset: 0; stroke-linejoin: miter; stroke-miterlimit: 4; fill: url(#SVGID_621714); fill-rule: nonzero; opacity: 1;"  paint-order="stroke"  transform=" translate(-518.3616943, -511.21276855)" d="M 410.4065552 529.085083 C 410.4065552 533.6914062000001 388.6876221 537.4255371 361.89593510000003 537.4255371 C 335.10424810000006 537.4255371 313.38531500000005 533.6914062000001 313.38531500000005 529.085083 C 313.38531500000005 526.9426880000001 318.08776860000006 524.989624 325.8093873 523.5125122000001 C 322.9404908 524.3410644 321.31054700000004 525.2802124000001 321.31054700000004 526.2766113 C 321.31054700000004 529.6137695 339.4812623 532.3191528 361.89593520000005 532.3191528 C 384.3106081000001 532.3191528 402.48132340000006 529.6137695 402.48132340000006 526.2766113 C 402.48132340000006 525.2802124 400.8513796000001 524.3410644 397.9824831000001 523.5125122000001 C 405.7041016 524.989624 410.4065552 526.942688 410.4065552 529.085083 z M 710.9140015 523.5125122 C 713.782898 524.3410643999999 715.4128418 525.2802124 715.4128418 526.2766112999999 C 715.4128418 529.6137694999999 697.2421265 532.3191527999999 674.8274536 532.3191527999999 C 652.4127807 532.3191527999999 634.2420654 529.6137694999999 634.2420654 526.2766112999999 C 634.2420654 525.2802123999999 635.8720092 524.3410643999999 638.7409057 523.5125122 C 631.019287 524.9896239999999 626.3168334 526.942688 626.3168334 529.0850829999999 C 626.3168334 533.6914062 648.0357664999999 537.4255370999999 674.8274534999999 537.4255370999999 C 701.6191405 537.4255370999999 723.3380735999999 533.6914062 723.3380735999999 529.0850829999999 C 723.3380737 526.942688 718.6356201 524.989624 710.9140015 523.5125122 z M 648.7539062 507.2949829 C 612.885559 507.2949829 583.8084716 502.2285156 583.8084716 495.9786987 C 583.8084716 490.78302 603.9117431 486.4082641 631.2988891 485.0792846 C 628.529541 485.0278931 625.7199707 485 622.8723145 485 C 579.4415894 485 544.2340088 491.1346436 544.2340088 498.7021484 C 544.2340088 506.2695922 579.4415894 512.4042358 622.8723145 512.4042358 C 656.0945435 512.4042358 684.4839478 508.81274410000003 696.0043335 503.73797600000006 C 684.1617432 505.9266357 667.3798218 507.2949829 648.7539062 507.2949829 z M 413.8510742 485 C 411.003418 485 408.1938476 485.0278931 405.4244995 485.0792847 C 432.81164550000005 486.4082642 452.914917 490.78302010000004 452.914917 495.9786988 C 452.914917 502.2285157 423.8378296 507.294983 387.9694824 507.294983 C 369.3435669 507.294983 352.5616455 505.9266358 340.7190552 503.7379762 C 352.23944090000003 508.81274429999996 380.6288452 512.404236 413.8510742 512.404236 C 457.28179930000005 512.404236 492.4893799 506.26959239999996 492.4893799 498.7021486 C 492.4893799 491.1346436 457.2817993 485 413.8510742 485 z" stroke-linecap="round" />
</g>
		<g transform="matrix(0.8403693724035253 0 0 0.8403693724035253 8.403696938331e-8 35.74914074228769)"  >
<linearGradient id="SVGID_621715" gradientUnits="userSpaceOnUse" gradientTransform="matrix(1 0 0 1 180.32623289999987 68.39874270000001)"  x1="313.3853149" y1="511.2127686" x2="723.3380737" y2="511.2127686">
<stop offset="15.621360000000001%" style="stop-color:rgb(0,255,255);stop-opacity: 1"/>
<stop offset="36.381409999999995%" style="stop-color:rgb(5,116,226);stop-opacity: 1"/>
<stop offset="62.372989999999994%" style="stop-color:rgb(8,117,226);stop-opacity: 1"/>
<stop offset="82.71784%" style="stop-color:rgb(0,250,254);stop-opacity: 1"/>
</linearGradient>
<path style="stroke: none; stroke-width: 1; stroke-dasharray: none; stroke-linecap: butt; stroke-dashoffset: 0; stroke-linejoin: miter; stroke-miterlimit: 4; fill: url(#SVGID_621715); fill-rule: nonzero; opacity: 1;"  paint-order="stroke"  transform=" translate(-518.3616943999999, -566.2206421000001)" d="M 542.9867554 553.3987427 C 538.99823 554.6984252999999 533.595398 556.1077270999999 527.0923462 556.8277588 C 527.392395 557.7359619 527.5606078999999 558.7040405 527.5606078999999 559.7127686 C 527.5606078999999 564.7932129 523.4421386999999 568.9117432 518.3616943 568.9117432 C 513.2812499 568.9117432 509.16275019999995 564.7932129000001 509.16275019999995 559.7127686 C 509.16275019999995 558.6994629 509.33288569999996 557.727356 509.6354979999999 556.8156128 C 503.1612242999999 556.0977783000001 497.74942009999995 554.7064209 493.73663329999994 553.3987427000001 C 493.7236022999999 553.7287598 493.7115478999999 554.0591431 493.7115478999999 554.3923950000001 C 493.7115478999999 568.0063476 504.7478332999999 579.0425415000001 518.3616943999999 579.0425415000001 C 531.9755859999999 579.0425415000001 543.0118408999999 568.0063477000001 543.0118408999999 554.3923950000001 C 543.0118408 554.0591431 542.9997559 553.7287598 542.9867554 553.3987427 z" stroke-linecap="round" />
</g>
		<g transform="matrix(0.8403693724035253 0 0 0.8403693724035253 5.684342e-14 30.199851006922216)"  >
<linearGradient id="SVGID_621716" gradientUnits="userSpaceOnUse" gradientTransform="matrix(1 0 0 1 -499.1353549999999 -558.8225497999999)"  x1="493.8549194" y1="566.2206421" x2="543.1552124" y2="566.2206421">
<stop offset="51.260110000000005%" style="stop-color:rgb(255,255,255);stop-opacity: 1"/>
<stop offset="75.68651%" style="stop-color:rgb(204,204,204);stop-opacity: 1"/>
<stop offset="100%" style="stop-color:rgb(255,255,255);stop-opacity: 1"/>
</linearGradient>
<circle style="stroke: none; stroke-width: 1; stroke-dasharray: none; stroke-linecap: butt; stroke-dashoffset: 0; stroke-linejoin: miter; stroke-miterlimit: 4; fill: url(#SVGID_621716); fill-rule: nonzero; opacity: 1;"  paint-order="stroke"  cx="0" cy="0" r="5.4238071" />
</g>
		<g transform="matrix(0.8403693724035253 0 0 0.8403693724035253 1.6807388192319e-7 35.749140742287636)"  >
<linearGradient id="SVGID_621717" gradientUnits="userSpaceOnUse" gradientTransform="matrix(1 0 0 1 -19.226339200000098 -0.7946987000000263)"  x1="512.9378662" y1="559.6172485" x2="523.7855225" y2="559.6172485">
<stop offset="15.621360000000001%" style="stop-color:rgb(5,116,226);stop-opacity: 1"/>
<stop offset="82.71784%" style="stop-color:rgb(0,250,254);stop-opacity: 1"/>
</linearGradient>
<path style="stroke: none; stroke-width: 1; stroke-dasharray: none; stroke-linecap: butt; stroke-dashoffset: 0; stroke-linejoin: miter; stroke-miterlimit: 4; fill: url(#SVGID_621717); fill-rule: nonzero; opacity: 1;"  paint-order="stroke"  transform=" translate(-518.3616944999999, -566.2206421)" d="M 542.9867554 553.3987427 C 540.6096192 564.876709 530.7294922 573.2601318999999 519.3174439 573.6904297 C 507.2321168 574.1461181999999 496.27685549999995 565.5750122 493.73663339999996 553.3987427 C 493.72360239999995 553.7287597999999 493.71154799999994 554.0591430999999 493.71154799999994 554.392395 C 493.71154799999994 568.0063475999999 504.74783339999993 579.0425415 518.3616944999999 579.0425415 C 531.9755860999999 579.0425415 543.0118409999999 568.0063477 543.0118409999999 554.392395 C 543.0118408 554.0591431 542.9997559 553.7287598 542.9867554 553.3987427 z" stroke-linecap="round" />
</g>
		<g transform="matrix(0.8403693724035253 0 0 0.8403693724035253 -2.7444594721213775 27.544133944722574)"  >
<linearGradient id="SVGID_621718" gradientUnits="userSpaceOnUse" gradientTransform="matrix(1 0 0 1 -75.00939949999997 -18.61772001795748)"  x1="493.7115479" y1="566.2206421" x2="543.0118408" y2="566.2206421">
<stop offset="24.99204%" style="stop-color:rgb(255,255,255);stop-opacity: 1"/>
<stop offset="44.57193%" style="stop-color:rgb(204,204,204);stop-opacity: 1"/>
<stop offset="87.02734%" style="stop-color:rgb(255,255,255);stop-opacity: 1"/>
</linearGradient>
<path style="stroke: none; stroke-width: 1; stroke-dasharray: none; stroke-linecap: butt; stroke-dashoffset: 0; stroke-linejoin: miter; stroke-miterlimit: 4; fill: url(#SVGID_621718); fill-rule: nonzero; opacity: 1;"  paint-order="stroke"  transform=" translate(-515.0959167, -556.4570701910213)" d="M 458.1522217 556.3563232 C 459.5633545 564.2463378 460.06738279999996 571.5753173 460.0563355 578.1331176 C 454.6934205 578.1331176 450.1148682 574.1416015 449.517212 568.8120727 C 448.2846681 557.8206787 443.5992432 548.2059326000001 435.80853279999997 542.0213012 C 430.0439454 537.4451293000001 423.67474369999996 535.6051635 418.70214849999996 534.8723144 C 423.12255869999996 534.5902099000001 429.8546143 534.8091430000001 437.1702271 537.7659301000001 C 447.7762451 542.0526123 454.3377686 549.9632568 458.1522217 556.3563232 z M 598.9301147 539.2765503 C 588.7699585 543.3830566 582.3248291 550.8135986000001 578.4472045 557.0515137000001 C 577.1293334 564.6772461 576.656372 571.7680664000001 576.6670531 578.1331177000001 C 582.0299681 578.1331177000001 586.6085204 574.1416016000001 587.2061765999999 568.8121338000001 C 588.4387204999999 557.8206787 593.1241454 548.2059326000001 600.9148557999999 542.0213013000001 C 604.3667601 539.2810059000001 608.0338744 537.5269165000001 611.4896848999999 536.3991089000001 C 607.8062134 536.6578369 603.4815063 537.4370117 598.9301147 539.2765503 z" stroke-linecap="round" />
</g>
</g>
</g>
		<g transform="matrix(1 0 0 1 0 54.42335391540533)" id="text-logo"  >
<g style=""  paint-order="stroke"   >
		<g transform="matrix(1 0 0 1 0 0)" id="text-logo-path-0"  >
<path style="stroke: none; stroke-width: 0; stroke-dasharray: none; stroke-linecap: butt; stroke-dashoffset: 0; stroke-linejoin: miter; stroke-miterlimit: 4; fill: rgb(255,255,255); fill-rule: nonzero; opacity: 1;"  paint-order="stroke"  transform=" translate(0, 0)" d="" stroke-linecap="round" />
</g>
</g>
</g>
		<g transform="matrix(1 0 0 1 0 94.73401502157407)" id="tagline-01f97f93-aec9-4cf8-8b73-8a8de2c7d284-logo"  >
<g style=""  paint-order="stroke"   >
		<g transform="matrix(1 0 0 1 0 0)" id="tagline-01f97f93-aec9-4cf8-8b73-8a8de2c7d284-logo-path-0"  >
<path style="stroke: none; stroke-width: 0; stroke-dasharray: none; stroke-linecap: butt; stroke-dashoffset: 0; stroke-linejoin: miter; stroke-miterlimit: 4; fill: rgb(5,158,235); fill-rule: nonzero; opacity: 1;"  paint-order="stroke"  transform=" translate(0, 0)" d="" stroke-linecap="round" />
</g>
</g>
</g>
</g>
</g>
<g transform="matrix(1.5066388244636033 0 0 1.5066388244636035 533.3494167692738 302.29660685964035)" id="tagline-06ae6c55-885f-4269-b112-d2043a720170-logo"  >
<g style=""  paint-order="stroke"   >
		<g transform="matrix(1 0 0 1 0 0)" id="tagline-06ae6c55-885f-4269-b112-d2043a720170-logo-path-0"  >
<path style="stroke: none; stroke-width: 0; stroke-dasharray: none; stroke-linecap: butt; stroke-dashoffset: 0; stroke-linejoin: miter; stroke-miterlimit: 4; fill: rgb(255,255,255); fill-rule: nonzero; opacity: 1;"  paint-order="stroke"  transform=" translate(-225.24, 6.664999999999999)" d="M 0.75 0 L 2.6 0 L 2.6 -5.28 L 7 -5.28 C 10.38 -5.28 13.1 -8.03 13.1 -11.4 C 13.1 -14.78 10.38 -17.5 7 -17.5 L 0.75 -17.5 Z M 2.6 -5.98 L 2.6 -16.8 L 5.83 -16.8 C 8.83 -16.8 11.25 -14.38 11.25 -11.4 C 11.25 -8.4 8.83 -5.98 5.83 -5.98 Z M 22.1 -17.5 L 15.85 -17.5 L 15.85 0 L 17.7 0 L 17.7 -5.28 L 19.93 -5.28 C 21.08 -5.13 22.08 -4.58 22.95 -3.88 C 24.35 -2.75 25.48 -1.33 26.85 0 C 28.2 1.3 29.58 2.7 31.43 3.65 C 32.33 4.1 33.38 4.4 34.43 4.4 C 35.5 4.4 36.5 4.08 37.35 3.58 L 37.08 2.93 C 36.45 3.1 35.83 3.2 35.23 3.2 C 33.23 3.2 31.55 1.93 30.13 0.63 C 29.45 0 28.8 -0.65 28.15 -1.33 C 26.63 -2.9 24.65 -4.5 22.58 -5.3 C 25.73 -5.55 28.2 -8.18 28.2 -11.4 C 28.2 -14.78 25.48 -17.5 22.1 -17.5 Z M 17.7 -5.98 L 17.7 -16.8 L 20.93 -16.8 C 23.93 -16.8 26.35 -14.38 26.35 -11.4 C 26.35 -8.4 23.93 -5.98 20.93 -5.98 Z M 32.05 -8.75 C 32.05 -3.93 35.75 0.23 40.28 0.23 C 44.83 0.23 48.53 -3.93 48.53 -8.75 C 48.53 -13.58 44.83 -17.73 40.28 -17.73 C 35.73 -17.73 32.05 -13.58 32.05 -8.75 Z M 33.9 -8.75 C 33.9 -13.2 36.75 -17.05 40.28 -17.05 C 43.8 -17.05 46.68 -13.2 46.68 -8.75 C 46.68 -4.3 43.8 -0.48 40.28 -0.48 C 36.75 -0.48 33.9 -4.3 33.9 -8.75 Z M 51.28 -17.5 L 51.28 0 L 53.13 0 L 53.13 -8.4 L 60.58 -8.4 L 60.58 -9.1 L 53.13 -9.1 L 53.13 -16.8 L 61.7 -16.8 L 61.7 -17.5 Z M 66.3 -0.7 L 66.3 -8.4 L 72.83 -8.4 L 72.83 -9.1 L 66.3 -9.1 L 66.3 -16.8 L 74.63 -16.8 L 74.63 -17.5 L 64.45 -17.5 L 64.45 0 L 74.63 0 L 74.63 -0.7 Z M 78.08 -5.43 L 77.38 -5.43 C 77.5 -2.02 80.67 0.13 83.85 0.13 C 86.42 0.13 89.22 -1.15 90.05 -3.78 C 90.38 -4.8 90.4 -5.88 90.03 -6.95 C 89.3 -9.03 87.22 -9.88 85.35 -10.6 C 84.5 -10.93 83.67 -11.23 82.95 -11.6 C 82.58 -11.8 82.25 -11.95 81.95 -12.15 C 81.47 -12.48 81.08 -13.03 81.03 -13.63 C 81 -13.93 81.03 -14.25 81.1 -14.58 C 81.42 -16.03 82.85 -16.93 84.28 -16.93 C 85.2 -16.93 86.15 -16.55 86.83 -15.9 C 87.42 -15.33 87.75 -14.53 87.7 -13.73 L 88.38 -13.73 C 88.22 -16.15 86 -17.63 83.75 -17.63 C 81.42 -17.63 79.15 -15.95 79.15 -13.53 C 79.15 -11.75 80.6 -10.45 82.15 -9.85 C 83.03 -9.5 83.88 -9.2 84.7 -8.88 C 86.03 -8.35 87.65 -7.68 88.22 -6.28 C 88.45 -5.7 88.5 -4.93 88.38 -4.23 C 87.95 -1.9 85.55 -0.58 83.38 -0.58 C 81.53 -0.58 79.67 -1.45 78.67 -3.05 C 78.22 -3.78 78.03 -4.6 78.08 -5.43 Z M 93.75 -5.43 L 93.05 -5.43 C 93.17 -2.02 96.35 0.13 99.52 0.13 C 102.1 0.13 104.9 -1.15 105.72 -3.78 C 106.05 -4.8 106.08 -5.88 105.7 -6.95 C 104.97 -9.03 102.9 -9.88 101.02 -10.6 C 100.17 -10.93 99.35 -11.23 98.63 -11.6 C 98.25 -11.8 97.92 -11.95 97.63 -12.15 C 97.15 -12.48 96.75 -13.03 96.7 -13.63 C 96.67 -13.93 96.7 -14.25 96.77 -14.58 C 97.1 -16.03 98.52 -16.93 99.95 -16.93 C 100.88 -16.93 101.83 -16.55 102.5 -15.9 C 103.1 -15.33 103.42 -14.53 103.38 -13.73 L 104.05 -13.73 C 103.9 -16.15 101.67 -17.63 99.42 -17.63 C 97.1 -17.63 94.83 -15.95 94.83 -13.53 C 94.83 -11.75 96.27 -10.45 97.83 -9.85 C 98.7 -9.5 99.55 -9.2 100.38 -8.88 C 101.7 -8.35 103.33 -7.68 103.9 -6.28 C 104.13 -5.7 104.17 -4.93 104.05 -4.23 C 103.63 -1.9 101.22 -0.58 99.05 -0.58 C 97.2 -0.58 95.35 -1.45 94.35 -3.05 C 93.9 -3.78 93.7 -4.6 93.75 -5.43 Z M 108.72 0 L 110.57 0 L 110.57 -17.5 L 108.72 -17.5 Z M 113.32 -8.75 C 113.32 -3.93 117.02 0.23 121.55 0.23 C 126.1 0.23 129.8 -3.93 129.8 -8.75 C 129.8 -13.58 126.1 -17.73 121.55 -17.73 C 117 -17.73 113.32 -13.58 113.32 -8.75 Z M 115.17 -8.75 C 115.17 -13.2 118.02 -17.05 121.55 -17.05 C 125.07 -17.05 127.95 -13.2 127.95 -8.75 C 127.95 -4.3 125.07 -0.48 121.55 -0.48 C 118.02 -0.48 115.17 -4.3 115.17 -8.75 Z M 132.55 -17.5 L 132.55 0 L 133.25 0 L 133.25 -16.35 L 143.12 0 L 145.2 0 L 145.2 -17.5 L 144.5 -17.5 L 144.5 -1.15 L 134.62 -17.5 Z M 147.95 0 L 148.65 0 L 150.47 -6.05 L 156.77 -6.05 L 158.63 0 L 160.47 0 L 155.13 -17.5 L 153.27 -17.5 Z M 150.7 -6.73 L 153.63 -16.35 L 156.57 -6.73 Z M 172.9 -0.7 L 165.07 -0.7 L 165.07 -17.5 L 163.22 -17.5 L 163.22 0 L 172.9 0 Z M 186.22 0 L 186.92 0 L 188.75 -6.05 L 195.05 -6.05 L 196.9 0 L 198.75 0 L 193.4 -17.5 L 191.55 -17.5 Z M 188.97 -6.73 L 191.9 -16.35 L 194.85 -6.73 Z M 203.35 -0.7 L 203.35 -8.4 L 209.88 -8.4 L 209.88 -9.1 L 203.35 -9.1 L 203.35 -16.8 L 211.68 -16.8 L 211.68 -17.5 L 201.5 -17.5 L 201.5 0 L 211.68 0 L 211.68 -0.7 Z M 220.68 -17.5 L 214.43 -17.5 L 214.43 0 L 216.28 0 L 216.28 -5.28 L 218.5 -5.28 C 219.65 -5.13 220.65 -4.58 221.53 -3.88 C 222.93 -2.75 224.05 -1.33 225.43 0 C 226.78 1.3 228.15 2.7 230 3.65 C 230.9 4.1 231.95 4.4 233 4.4 C 234.08 4.4 235.08 4.08 235.93 3.58 L 235.65 2.93 C 235.03 3.1 234.4 3.2 233.8 3.2 C 231.8 3.2 230.13 1.93 228.7 0.63 C 228.03 0 227.38 -0.65 226.73 -1.33 C 225.2 -2.9 223.23 -4.5 221.15 -5.3 C 224.3 -5.55 226.78 -8.18 226.78 -11.4 C 226.78 -14.78 224.05 -17.5 220.68 -17.5 Z M 216.28 -5.98 L 216.28 -16.8 L 219.5 -16.8 C 222.5 -16.8 224.93 -14.38 224.93 -11.4 C 224.93 -8.4 222.5 -5.98 219.5 -5.98 Z M 230.63 0 L 232.47 0 L 232.47 -17.5 L 230.63 -17.5 Z M 235.22 0 L 235.92 0 L 237.75 -6.05 L 244.05 -6.05 L 245.9 0 L 247.75 0 L 242.4 -17.5 L 240.55 -17.5 Z M 237.97 -6.73 L 240.9 -16.35 L 243.85 -6.73 Z M 260.18 -0.7 L 252.35 -0.7 L 252.35 -17.5 L 250.5 -17.5 L 250.5 0 L 260.18 0 Z M 273.5 0 L 275.35 0 L 275.35 -5.28 L 279.75 -5.28 C 283.13 -5.28 285.85 -8.03 285.85 -11.4 C 285.85 -14.78 283.13 -17.5 279.75 -17.5 L 273.5 -17.5 Z M 275.35 -5.98 L 275.35 -16.8 L 278.57 -16.8 C 281.57 -16.8 284 -14.38 284 -11.4 C 284 -8.4 281.57 -5.98 278.57 -5.98 Z M 288.6 0 L 290.45 0 L 290.45 -8.4 L 299.05 -8.4 L 299.05 0 L 300.9 0 L 300.9 -17.5 L 299.05 -17.5 L 299.05 -9.1 L 290.45 -9.1 L 290.45 -17.5 L 288.6 -17.5 Z M 303.65 -8.75 C 303.65 -3.93 307.35 0.23 311.88 0.23 C 316.43 0.23 320.13 -3.93 320.13 -8.75 C 320.13 -13.58 316.43 -17.73 311.88 -17.73 C 307.33 -17.73 303.65 -13.58 303.65 -8.75 Z M 305.5 -8.75 C 305.5 -13.2 308.35 -17.05 311.88 -17.05 C 315.4 -17.05 318.28 -13.2 318.28 -8.75 C 318.28 -4.3 315.4 -0.48 311.88 -0.48 C 308.35 -0.48 305.5 -4.3 305.5 -8.75 Z M 322.88 -17.5 L 322.88 -16.8 L 328.45 -16.8 L 328.45 0 L 330.33 0 L 330.33 -16.8 L 335.9 -16.8 L 335.9 -17.5 Z M 338.65 -8.75 C 338.65 -3.93 342.35 0.23 346.88 0.23 C 351.43 0.23 355.13 -3.93 355.13 -8.75 C 355.13 -13.58 351.43 -17.73 346.88 -17.73 C 342.33 -17.73 338.65 -13.58 338.65 -8.75 Z M 340.5 -8.75 C 340.5 -13.2 343.35 -17.05 346.88 -17.05 C 350.4 -17.05 353.28 -13.2 353.28 -8.75 C 353.28 -4.3 350.4 -0.48 346.88 -0.48 C 343.35 -0.48 340.5 -4.3 340.5 -8.75 Z M 357.88 -8.75 C 357.88 -3.7 361.28 0.23 366.1 0.23 C 370.43 0.23 373.55 -2.58 374.25 -7.45 L 367.48 -7.45 L 367.48 -6.75 L 372.28 -6.75 C 371.55 -3.05 369.13 -0.48 366.1 -0.48 C 362.43 -0.48 359.73 -3.78 359.73 -8.75 C 359.73 -13.4 362.38 -17.05 366.1 -17.05 C 368.23 -17.05 369.78 -16.1 371.15 -13.78 L 372.15 -14.8 C 370.6 -16.65 368.45 -17.73 366.1 -17.73 C 361.38 -17.73 357.88 -14.13 357.88 -8.75 Z M 383.25 -17.5 L 377 -17.5 L 377 0 L 378.85 0 L 378.85 -5.28 L 381.08 -5.28 C 382.23 -5.13 383.23 -4.58 384.1 -3.88 C 385.5 -2.75 386.63 -1.33 388 0 C 389.35 1.3 390.73 2.7 392.58 3.65 C 393.48 4.1 394.53 4.4 395.58 4.4 C 396.65 4.4 397.65 4.08 398.5 3.58 L 398.23 2.93 C 397.6 3.1 396.98 3.2 396.38 3.2 C 394.38 3.2 392.7 1.93 391.28 0.63 C 390.6 0 389.95 -0.65 389.3 -1.33 C 387.78 -2.9 385.8 -4.5 383.73 -5.3 C 386.88 -5.55 389.35 -8.18 389.35 -11.4 C 389.35 -14.78 386.63 -17.5 383.25 -17.5 Z M 378.85 -5.98 L 378.85 -16.8 L 382.08 -16.8 C 385.08 -16.8 387.5 -14.38 387.5 -11.4 C 387.5 -8.4 385.08 -5.98 382.08 -5.98 Z M 393.2 0 L 393.9 0 L 395.73 -6.05 L 402.03 -6.05 L 403.88 0 L 405.73 0 L 400.38 -17.5 L 398.53 -17.5 Z M 395.95 -6.73 L 398.88 -16.35 L 401.83 -6.73 Z M 408.48 0 L 410.33 0 L 410.33 -5.28 L 414.73 -5.28 C 418.1 -5.28 420.83 -8.03 420.83 -11.4 C 420.83 -14.78 418.1 -17.5 414.73 -17.5 L 408.48 -17.5 Z M 410.33 -5.98 L 410.33 -16.8 L 413.55 -16.8 C 416.55 -16.8 418.98 -14.38 418.98 -11.4 C 418.98 -8.4 416.55 -5.98 413.55 -5.98 Z M 423.58 0 L 425.43 0 L 425.43 -8.4 L 434.03 -8.4 L 434.03 0 L 435.88 0 L 435.88 -17.5 L 434.03 -17.5 L 434.03 -9.1 L 425.43 -9.1 L 425.43 -17.5 L 423.58 -17.5 Z M 438.63 -17.5 L 443.25 -9.03 L 443.25 0 L 445.1 0 L 445.1 -9.03 L 449.73 -17.5 L 449.05 -17.5 L 444.75 -9.68 L 440.48 -17.5 Z" stroke-linecap="round" />
</g>
</g>
</g>
<g transform="matrix(1.5066388244636033 0 0 1.5066388244636035 257.1209625843175 483.55070788044446)" id="tagline-78a78531-e171-4421-b784-a42bc15f74eb-logo"  >
<g style=""  paint-order="stroke"   >
		<g transform="matrix(1 0 0 1 -16.784708633753525 -35.39160000000004)" id="tagline-78a78531-e171-4421-b784-a42bc15f74eb-logo-path-0"  >
<path style="stroke: none; stroke-width: 0; stroke-dasharray: none; stroke-linecap: butt; stroke-dashoffset: 0; stroke-linejoin: miter; stroke-miterlimit: 4; fill: rgb(255,255,255); fill-rule: nonzero; opacity: 1;"  paint-order="stroke"  transform=" translate(-121.09500000000001, 6.58)" d="M 6.46 0.16 C 8.24 0.16 9.54 -0.43 10.82 -1.94 L 10.1 -2.68 C 9.22 -1.22 7.9 -0.34 6.46 -0.34 C 3.82 -0.34 1.87 -2.72 1.87 -6.3 C 1.87 -9.65 3.78 -12.28 6.46 -12.28 C 7.99 -12.28 9.11 -11.59 10.1 -9.92 L 10.82 -10.66 C 9.7 -11.99 8.15 -12.76 6.46 -12.76 C 3.06 -12.76 0.54 -10.17 0.54 -6.3 C 0.54 -2.66 2.99 0.16 6.46 0.16 Z M 12.8 -5 C 12.8 -2.11 14.81 0.16 17.64 0.16 C 20.43 0.16 22.48 -1.91 22.48 -5 C 22.48 -7.9 20.47 -10.17 17.64 -10.17 C 14.87 -10.17 12.8 -8.08 12.8 -5 Z M 14.13 -5 C 14.13 -7.61 15.59 -9.67 17.64 -9.67 C 19.67 -9.67 21.15 -7.81 21.15 -5 C 21.15 -2.39 19.69 -0.34 17.64 -0.34 C 15.61 -0.34 14.13 -2.2 14.13 -5 Z M 31.14 -6.23 L 31.14 0 L 32.47 0 L 32.47 -6.23 C 32.47 -8.14 33.46 -9.67 35.14 -9.67 C 36.81 -9.67 37.82 -8.14 37.82 -6.23 L 37.82 0 L 39.15 0 L 39.15 -6.23 C 39.15 -8.41 37.75 -10.17 35.57 -10.17 C 33.91 -10.17 32.72 -9.18 32.22 -7.76 C 31.72 -9.18 30.53 -10.17 28.89 -10.17 C 27.47 -10.17 26.39 -9.43 25.79 -8.33 L 25.79 -10.01 L 24.46 -10.01 L 24.46 0 L 25.79 0 L 25.79 -6.23 C 25.79 -8.14 26.78 -9.67 28.46 -9.67 C 30.13 -9.67 31.14 -8.14 31.14 -6.23 Z M 47.81 -6.23 L 47.81 0 L 49.14 0 L 49.14 -6.23 C 49.14 -8.14 50.13 -9.67 51.8 -9.67 C 53.48 -9.67 54.49 -8.14 54.49 -6.23 L 54.49 0 L 55.82 0 L 55.82 -6.23 C 55.82 -8.41 54.41 -10.17 52.24 -10.17 C 50.58 -10.17 49.39 -9.18 48.89 -7.76 C 48.38 -9.18 47.2 -10.17 45.56 -10.17 C 44.14 -10.17 43.06 -9.43 42.46 -8.33 L 42.46 -10.01 L 41.13 -10.01 L 41.13 0 L 42.46 0 L 42.46 -6.23 C 42.46 -8.14 43.45 -9.67 45.13 -9.67 C 46.8 -9.67 47.81 -8.14 47.81 -6.23 Z M 62.64 0.16 C 64.03 0.16 65.27 -0.49 66.15 -1.49 L 65.43 -2.21 C 64.78 -1.1 63.77 -0.34 62.64 -0.34 C 60.7 -0.34 59.13 -2.52 59.13 -5 L 66.74 -5 C 66.74 -7.76 65.12 -10.17 62.46 -10.17 C 59.8 -10.17 57.8 -7.76 57.8 -5 C 57.8 -2.25 59.96 0.16 62.64 0.16 Z M 59.15 -5.51 C 59.33 -7.78 60.64 -9.67 62.46 -9.67 C 64.28 -9.67 65.27 -7.78 65.39 -5.51 Z M 70.06 -10.01 L 68.72 -10.01 L 68.72 0 L 70.06 0 L 70.06 -6.23 C 70.06 -8.14 71.41 -9.22 73.08 -9.22 C 73.55 -9.22 74.02 -9.13 74.41 -8.96 L 74.41 -10.06 C 74.12 -10.13 73.82 -10.17 73.51 -10.17 C 72.02 -10.17 70.74 -9.36 70.06 -8.15 Z M 81.23 0.16 C 82.62 0.16 83.86 -0.49 84.74 -1.49 L 84.02 -2.21 C 83.38 -1.1 82.37 -0.34 81.23 -0.34 C 79.29 -0.34 77.72 -2.52 77.72 -5 C 77.72 -7.49 79.29 -9.67 81.23 -9.67 C 82.37 -9.67 83.38 -8.91 84.02 -7.79 L 84.74 -8.51 C 83.86 -9.52 82.62 -10.17 81.23 -10.17 C 78.57 -10.17 76.39 -7.76 76.39 -5 C 76.39 -2.25 78.55 0.16 81.23 0.16 Z M 86.72 -12.65 C 86.72 -12.2 87.08 -11.88 87.5 -11.88 C 87.93 -11.88 88.25 -12.2 88.25 -12.65 C 88.25 -13.05 87.93 -13.41 87.5 -13.41 C 87.08 -13.41 86.72 -13.05 86.72 -12.65 Z M 86.83 0 L 88.16 0 L 88.16 -10.01 L 86.83 -10.01 Z M 90.23 -5 C 90.23 -2.11 92.25 0.16 95.08 0.16 C 96.86 0.16 97.97 -0.67 98.59 -1.93 L 98.59 0 L 99.92 0 L 99.92 -10.01 L 98.59 -10.01 L 98.59 -8.08 C 97.97 -9.34 96.86 -10.17 95.08 -10.17 C 92.3 -10.17 90.23 -8.08 90.23 -5 Z M 91.57 -5 C 91.57 -7.61 93.02 -9.67 95.08 -9.67 C 97.38 -9.67 98.59 -8.03 98.59 -5 C 98.59 -1.98 97.38 -0.34 95.08 -0.34 C 93.04 -0.34 91.57 -2.2 91.57 -5 Z M 101.9 0 L 103.23 0 L 103.23 -13.14 L 101.9 -13.14 Z M 112.82 -5 C 112.82 -2.11 114.84 0.16 117.67 0.16 C 119.45 0.16 120.56 -0.67 121.18 -1.93 L 121.18 0 L 122.51 0 L 122.51 -10.01 L 121.18 -10.01 L 121.18 -8.08 C 120.56 -9.34 119.45 -10.17 117.67 -10.17 C 114.89 -10.17 112.82 -8.08 112.82 -5 Z M 114.16 -5 C 114.16 -7.61 115.61 -9.67 117.67 -9.67 C 119.97 -9.67 121.18 -8.03 121.18 -5 C 121.18 -1.98 119.97 -0.34 117.67 -0.34 C 115.63 -0.34 114.16 -2.2 114.16 -5 Z M 131.89 -6.23 L 131.89 0 L 133.22 0 L 133.22 -6.23 C 133.22 -8.41 131.45 -10.17 129.28 -10.17 C 127.78 -10.17 126.5 -9.36 125.82 -8.15 L 125.82 -10.01 L 124.49 -10.01 L 124.49 0 L 125.82 0 L 125.82 -6.23 C 125.82 -8.14 127.17 -9.67 128.84 -9.67 C 130.52 -9.67 131.89 -8.14 131.89 -6.23 Z M 135.2 -5 C 135.2 -2.11 137.21 0.16 140.04 0.16 C 141.82 0.16 142.94 -0.67 143.55 -1.93 L 143.55 0 L 144.88 0 L 144.88 -13.14 L 143.55 -13.14 L 143.55 -8.08 C 142.94 -9.34 141.82 -10.17 140.04 -10.17 C 137.27 -10.17 135.2 -8.08 135.2 -5 Z M 136.53 -5 C 136.53 -7.61 137.99 -9.67 140.04 -9.67 C 142.34 -9.67 143.55 -8.03 143.55 -5 C 143.55 -1.98 142.34 -0.34 140.04 -0.34 C 138.01 -0.34 136.53 -2.2 136.53 -5 Z M 155.81 -10.01 L 154.48 -10.01 L 154.48 0 L 155.81 0 L 155.81 -6.23 C 155.81 -8.14 157.16 -9.22 158.83 -9.22 C 159.3 -9.22 159.77 -9.13 160.16 -8.96 L 160.16 -10.06 C 159.88 -10.13 159.57 -10.17 159.26 -10.17 C 157.77 -10.17 156.49 -9.36 155.81 -8.15 Z M 166.99 0.16 C 168.37 0.16 169.61 -0.49 170.5 -1.49 L 169.78 -2.21 C 169.13 -1.1 168.12 -0.34 166.99 -0.34 C 165.04 -0.34 163.48 -2.52 163.48 -5 L 171.09 -5 C 171.09 -7.76 169.47 -10.17 166.81 -10.17 C 164.14 -10.17 162.14 -7.76 162.14 -5 C 162.14 -2.25 164.3 0.16 166.99 0.16 Z M 163.49 -5.51 C 163.67 -7.78 164.99 -9.67 166.81 -9.67 C 168.62 -9.67 169.61 -7.78 169.74 -5.51 Z M 173.57 -3.06 L 173.07 -3.06 C 173.16 -1.03 175.05 0.25 176.96 0.25 C 178.47 0.25 180.18 -0.5 180.67 -2.05 C 180.86 -2.66 180.9 -3.33 180.67 -4 C 180.23 -5.24 178.97 -5.76 177.84 -6.21 C 177.35 -6.41 176.87 -6.57 176.44 -6.79 C 175.99 -7 175.43 -7.31 175.37 -7.87 C 175.36 -8.03 175.37 -8.21 175.41 -8.39 C 175.59 -9.27 176.4 -9.76 177.25 -9.76 C 177.79 -9.76 178.25 -9.54 178.63 -9.18 C 178.97 -8.86 179.17 -8.37 179.12 -7.92 L 179.62 -7.92 C 179.53 -9.34 178.18 -10.26 176.85 -10.26 C 175.41 -10.26 174.04 -9.32 174.04 -7.81 C 174.04 -6.71 174.89 -5.9 175.86 -5.53 C 176.38 -5.31 176.89 -5.15 177.37 -4.97 C 178.11 -4.7 179.01 -4.27 179.37 -3.51 C 179.51 -3.2 179.51 -2.75 179.46 -2.38 C 179.26 -1.03 177.86 -0.25 176.6 -0.25 C 175.52 -0.25 174.49 -0.74 173.92 -1.67 C 173.66 -2.09 173.54 -2.57 173.57 -3.06 Z M 182.83 -12.65 C 182.83 -12.2 183.19 -11.88 183.6 -11.88 C 184.03 -11.88 184.36 -12.2 184.36 -12.65 C 184.36 -13.05 184.03 -13.41 183.6 -13.41 C 183.19 -13.41 182.83 -13.05 182.83 -12.65 Z M 182.93 0 L 184.27 0 L 184.27 -10.01 L 182.93 -10.01 Z M 186.34 -5 C 186.34 -2.11 188.35 0.16 191.18 0.16 C 192.96 0.16 194.08 -0.67 194.69 -1.93 L 194.69 0 L 196.02 0 L 196.02 -13.14 L 194.69 -13.14 L 194.69 -8.08 C 194.08 -9.34 192.96 -10.17 191.18 -10.17 C 188.41 -10.17 186.34 -8.08 186.34 -5 Z M 187.67 -5 C 187.67 -7.61 189.13 -9.67 191.18 -9.67 C 193.48 -9.67 194.69 -8.03 194.69 -5 C 194.69 -1.98 193.48 -0.34 191.18 -0.34 C 189.14 -0.34 187.67 -2.2 187.67 -5 Z M 202.84 0.16 C 204.23 0.16 205.47 -0.49 206.35 -1.49 L 205.63 -2.21 C 204.98 -1.1 203.98 -0.34 202.84 -0.34 C 200.9 -0.34 199.33 -2.52 199.33 -5 L 206.95 -5 C 206.95 -7.76 205.33 -10.17 202.66 -10.17 C 200 -10.17 198 -7.76 198 -5 C 198 -2.25 200.16 0.16 202.84 0.16 Z M 199.35 -5.51 C 199.53 -7.78 200.84 -9.67 202.66 -9.67 C 204.48 -9.67 205.47 -7.78 205.6 -5.51 Z M 216.32 -6.23 L 216.32 0 L 217.66 0 L 217.66 -6.23 C 217.66 -8.41 215.89 -10.17 213.71 -10.17 C 212.22 -10.17 210.94 -9.36 210.26 -8.15 L 210.26 -10.01 L 208.93 -10.01 L 208.93 0 L 210.26 0 L 210.26 -6.23 C 210.26 -8.14 211.61 -9.67 213.28 -9.67 C 214.96 -9.67 216.32 -8.14 216.32 -6.23 Z M 220.73 0 L 222.07 0 L 222.07 -9.5 L 223.27 -9.5 L 223.27 -10.01 L 222.07 -10.01 L 222.07 -11.88 L 220.73 -11.88 L 220.73 -10.01 L 219.53 -10.01 L 219.53 -9.5 L 220.73 -9.5 Z M 225.14 -12.65 C 225.14 -12.2 225.5 -11.88 225.92 -11.88 C 226.35 -11.88 226.67 -12.2 226.67 -12.65 C 226.67 -13.05 226.35 -13.41 225.92 -13.41 C 225.5 -13.41 225.14 -13.05 225.14 -12.65 Z M 225.25 0 L 226.58 0 L 226.58 -10.01 L 225.25 -10.01 Z M 228.65 -5 C 228.65 -2.11 230.67 0.16 233.5 0.16 C 235.28 0.16 236.39 -0.67 237.01 -1.93 L 237.01 0 L 238.34 0 L 238.34 -10.01 L 237.01 -10.01 L 237.01 -8.08 C 236.39 -9.34 235.28 -10.17 233.5 -10.17 C 230.72 -10.17 228.65 -8.08 228.65 -5 Z M 229.99 -5 C 229.99 -7.61 231.44 -9.67 233.5 -9.67 C 235.8 -9.67 237.01 -8.03 237.01 -5 C 237.01 -1.98 235.8 -0.34 233.5 -0.34 C 231.46 -0.34 229.99 -2.2 229.99 -5 Z M 240.32 0 L 241.65 0 L 241.65 -13.14 L 240.32 -13.14 Z" stroke-linecap="round" />
</g>
		<g transform="matrix(1 0 0 1 -39.14956849325941 -9.700199999999995)" id="tagline-78a78531-e171-4421-b784-a42bc15f74eb-logo-path-1"  >
<path style="stroke: none; stroke-width: 0; stroke-dasharray: none; stroke-linecap: butt; stroke-dashoffset: 0; stroke-linejoin: miter; stroke-miterlimit: 4; fill: rgb(255,255,255); fill-rule: nonzero; opacity: 1;"  paint-order="stroke"  transform=" translate(-98.73072287298704, 4.48)" d="M 6.46 0.16 C 8.24 0.16 9.54 -0.43 10.82 -1.94 L 10.1 -2.68 C 9.22 -1.22 7.9 -0.34 6.46 -0.34 C 3.82 -0.34 1.87 -2.72 1.87 -6.3 C 1.87 -9.65 3.78 -12.28 6.46 -12.28 C 7.99 -12.28 9.11 -11.59 10.1 -9.92 L 10.82 -10.66 C 9.7 -11.99 8.15 -12.76 6.46 -12.76 C 3.06 -12.76 0.54 -10.17 0.54 -6.3 C 0.54 -2.66 2.99 0.16 6.46 0.16 Z M 12.8 -5 C 12.8 -2.11 14.81 0.16 17.64 0.16 C 20.43 0.16 22.48 -1.91 22.48 -5 C 22.48 -7.9 20.47 -10.17 17.64 -10.17 C 14.87 -10.17 12.8 -8.08 12.8 -5 Z M 14.13 -5 C 14.13 -7.61 15.59 -9.67 17.64 -9.67 C 19.67 -9.67 21.15 -7.81 21.15 -5 C 21.15 -2.39 19.69 -0.34 17.64 -0.34 C 15.61 -0.34 14.13 -2.2 14.13 -5 Z M 31.86 -6.23 L 31.86 0 L 33.19 0 L 33.19 -6.23 C 33.19 -8.41 31.43 -10.17 29.25 -10.17 C 27.76 -10.17 26.48 -9.36 25.79 -8.15 L 25.79 -10.01 L 24.46 -10.01 L 24.46 0 L 25.79 0 L 25.79 -6.23 C 25.79 -8.14 27.14 -9.67 28.82 -9.67 C 30.49 -9.67 31.86 -8.14 31.86 -6.23 Z M 35.68 -3.06 L 35.17 -3.06 C 35.26 -1.03 37.15 0.25 39.06 0.25 C 40.57 0.25 42.28 -0.5 42.77 -2.05 C 42.97 -2.66 43 -3.33 42.77 -4 C 42.34 -5.24 41.08 -5.76 39.94 -6.21 C 39.46 -6.41 38.97 -6.57 38.54 -6.79 C 38.09 -7 37.53 -7.31 37.48 -7.87 C 37.46 -8.03 37.48 -8.21 37.51 -8.39 C 37.69 -9.27 38.5 -9.76 39.35 -9.76 C 39.89 -9.76 40.36 -9.54 40.73 -9.18 C 41.08 -8.86 41.27 -8.37 41.22 -7.92 L 41.72 -7.92 C 41.63 -9.34 40.28 -10.26 38.95 -10.26 C 37.51 -10.26 36.14 -9.32 36.14 -7.81 C 36.14 -6.71 36.99 -5.9 37.96 -5.53 C 38.48 -5.31 38.99 -5.15 39.47 -4.97 C 40.21 -4.7 41.11 -4.27 41.47 -3.51 C 41.62 -3.2 41.62 -2.75 41.56 -2.38 C 41.36 -1.03 39.96 -0.25 38.7 -0.25 C 37.62 -0.25 36.59 -0.74 36.02 -1.67 C 35.77 -2.09 35.64 -2.57 35.68 -3.06 Z M 46.03 0 L 47.36 0 L 47.36 -9.5 L 48.56 -9.5 L 48.56 -10.01 L 47.36 -10.01 L 47.36 -11.88 L 46.03 -11.88 L 46.03 -10.01 L 44.82 -10.01 L 44.82 -9.5 L 46.03 -9.5 Z M 51.77 -10.01 L 50.44 -10.01 L 50.44 0 L 51.77 0 L 51.77 -6.23 C 51.77 -8.14 53.12 -9.22 54.79 -9.22 C 55.26 -9.22 55.73 -9.13 56.12 -8.96 L 56.12 -10.06 C 55.84 -10.13 55.53 -10.17 55.22 -10.17 C 53.73 -10.17 52.45 -9.36 51.77 -8.15 Z M 59.44 -3.78 L 59.44 -10.01 L 58.1 -10.01 L 58.1 -3.78 C 58.1 -1.6 59.87 0.16 62.05 0.16 C 63.54 0.16 64.82 -0.65 65.5 -1.85 L 65.5 0 L 66.83 0 L 66.83 -10.01 L 65.5 -10.01 L 65.5 -3.78 C 65.5 -1.87 64.15 -0.34 62.48 -0.34 C 60.8 -0.34 59.44 -1.87 59.44 -3.78 Z M 73.66 0.16 C 75.04 0.16 76.28 -0.49 77.17 -1.49 L 76.45 -2.21 C 75.8 -1.1 74.79 -0.34 73.66 -0.34 C 71.71 -0.34 70.15 -2.52 70.15 -5 C 70.15 -7.49 71.71 -9.67 73.66 -9.67 C 74.79 -9.67 75.8 -8.91 76.45 -7.79 L 77.17 -8.51 C 76.28 -9.52 75.04 -10.17 73.66 -10.17 C 70.99 -10.17 68.81 -7.76 68.81 -5 C 68.81 -2.25 70.97 0.16 73.66 0.16 Z M 80.24 0 L 81.58 0 L 81.58 -9.5 L 82.78 -9.5 L 82.78 -10.01 L 81.58 -10.01 L 81.58 -11.88 L 80.24 -11.88 L 80.24 -10.01 L 79.04 -10.01 L 79.04 -9.5 L 80.24 -9.5 Z M 84.65 -12.65 C 84.65 -12.2 85.01 -11.88 85.43 -11.88 C 85.86 -11.88 86.18 -12.2 86.18 -12.65 C 86.18 -13.05 85.86 -13.41 85.43 -13.41 C 85.01 -13.41 84.65 -13.05 84.65 -12.65 Z M 84.76 0 L 86.09 0 L 86.09 -10.01 L 84.76 -10.01 Z M 88.16 -5 C 88.16 -2.11 90.18 0.16 93.01 0.16 C 95.8 0.16 97.85 -1.91 97.85 -5 C 97.85 -7.9 95.83 -10.17 93.01 -10.17 C 90.23 -10.17 88.16 -8.08 88.16 -5 Z M 89.5 -5 C 89.5 -7.61 90.95 -9.67 93.01 -9.67 C 95.04 -9.67 96.52 -7.81 96.52 -5 C 96.52 -2.39 95.06 -0.34 93.01 -0.34 C 90.97 -0.34 89.5 -2.2 89.5 -5 Z M 107.23 -6.23 L 107.23 0 L 108.56 0 L 108.56 -6.23 C 108.56 -8.41 106.79 -10.17 104.62 -10.17 C 103.12 -10.17 101.84 -9.36 101.16 -8.15 L 101.16 -10.01 L 99.83 -10.01 L 99.83 0 L 101.16 0 L 101.16 -6.23 C 101.16 -8.14 102.51 -9.67 104.18 -9.67 C 105.86 -9.67 107.23 -8.14 107.23 -6.23 Z M 127.84 -5 C 127.84 -8.08 125.77 -10.17 122.99 -10.17 C 121.21 -10.17 120.1 -9.34 119.48 -8.08 L 119.48 -10.01 L 118.15 -10.01 L 118.15 3.13 L 119.48 3.13 L 119.48 -1.93 C 120.1 -0.67 121.21 0.16 122.99 0.16 C 125.82 0.16 127.84 -2.11 127.84 -5 Z M 119.48 -5 C 119.48 -8.03 120.69 -9.67 122.99 -9.67 C 125.05 -9.67 126.5 -7.61 126.5 -5 C 126.5 -2.2 125.03 -0.34 122.99 -0.34 C 120.69 -0.34 119.48 -1.98 119.48 -5 Z M 131.15 -10.01 L 129.82 -10.01 L 129.82 0 L 131.15 0 L 131.15 -6.23 C 131.15 -8.14 132.5 -9.22 134.17 -9.22 C 134.64 -9.22 135.11 -9.13 135.5 -8.96 L 135.5 -10.06 C 135.22 -10.13 134.91 -10.17 134.6 -10.17 C 133.11 -10.17 131.83 -9.36 131.15 -8.15 Z M 137.48 -5 C 137.48 -2.11 139.5 0.16 142.33 0.16 C 145.12 0.16 147.17 -1.91 147.17 -5 C 147.17 -7.9 145.15 -10.17 142.33 -10.17 C 139.55 -10.17 137.48 -8.08 137.48 -5 Z M 138.82 -5 C 138.82 -7.61 140.27 -9.67 142.33 -9.67 C 144.36 -9.67 145.84 -7.81 145.84 -5 C 145.84 -2.39 144.38 -0.34 142.33 -0.34 C 140.29 -0.34 138.82 -2.2 138.82 -5 Z M 149.15 -5.17 C 149.15 -2.36 151.16 -0.16 153.99 -0.16 C 155.77 -0.16 156.89 -0.97 157.5 -2.18 L 157.5 0.59 C 157.5 3.11 155.86 3.87 154.22 3.87 C 152.82 3.87 151.67 3.33 151.02 2.27 C 150.73 1.8 150.59 1.24 150.62 0.7 L 150.07 0.7 C 150.16 3.01 152.3 4.45 154.46 4.45 C 157.01 4.45 158.83 2.81 158.83 0.72 L 158.83 -10.01 L 157.5 -10.01 L 157.5 -8.15 C 156.89 -9.36 155.77 -10.17 153.99 -10.17 C 151.22 -10.17 149.15 -8.15 149.15 -5.17 Z M 150.48 -5.17 C 150.48 -7.7 151.94 -9.68 153.99 -9.68 C 156.29 -9.68 157.5 -8.1 157.5 -5.17 C 157.5 -2.23 156.29 -0.65 153.99 -0.65 C 151.96 -0.65 150.48 -2.45 150.48 -5.17 Z M 162.14 -10.01 L 160.81 -10.01 L 160.81 0 L 162.14 0 L 162.14 -6.23 C 162.14 -8.14 163.49 -9.22 165.17 -9.22 C 165.64 -9.22 166.1 -9.13 166.5 -8.96 L 166.5 -10.06 C 166.21 -10.13 165.91 -10.17 165.6 -10.17 C 164.11 -10.17 162.83 -9.36 162.14 -8.15 Z M 173.32 0.16 C 174.71 0.16 175.95 -0.49 176.83 -1.49 L 176.11 -2.21 C 175.46 -1.1 174.46 -0.34 173.32 -0.34 C 171.38 -0.34 169.81 -2.52 169.81 -5 L 177.43 -5 C 177.43 -7.76 175.81 -10.17 173.14 -10.17 C 170.48 -10.17 168.48 -7.76 168.48 -5 C 168.48 -2.25 170.64 0.16 173.32 0.16 Z M 169.83 -5.51 C 170.01 -7.78 171.32 -9.67 173.14 -9.67 C 174.96 -9.67 175.95 -7.78 176.08 -5.51 Z M 179.91 -3.06 L 179.41 -3.06 C 179.5 -1.03 181.39 0.25 183.29 0.25 C 184.81 0.25 186.52 -0.5 187 -2.05 C 187.2 -2.66 187.24 -3.33 187 -4 C 186.57 -5.24 185.31 -5.76 184.18 -6.21 C 183.69 -6.41 183.2 -6.57 182.77 -6.79 C 182.32 -7 181.76 -7.31 181.71 -7.87 C 181.69 -8.03 181.71 -8.21 181.75 -8.39 C 181.93 -9.27 182.74 -9.76 183.58 -9.76 C 184.12 -9.76 184.59 -9.54 184.97 -9.18 C 185.31 -8.86 185.51 -8.37 185.45 -7.92 L 185.96 -7.92 C 185.87 -9.34 184.52 -10.26 183.19 -10.26 C 181.75 -10.26 180.38 -9.32 180.38 -7.81 C 180.38 -6.71 181.22 -5.9 182.2 -5.53 C 182.72 -5.31 183.22 -5.15 183.71 -4.97 C 184.45 -4.7 185.35 -4.27 185.71 -3.51 C 185.85 -3.2 185.85 -2.75 185.8 -2.38 C 185.6 -1.03 184.19 -0.25 182.93 -0.25 C 181.85 -0.25 180.83 -0.74 180.25 -1.67 C 180 -2.09 179.87 -2.57 179.91 -3.06 Z M 189.67 -3.06 L 189.16 -3.06 C 189.25 -1.03 191.14 0.25 193.05 0.25 C 194.56 0.25 196.27 -0.5 196.76 -2.05 C 196.96 -2.66 196.99 -3.33 196.76 -4 C 196.33 -5.24 195.07 -5.76 193.93 -6.21 C 193.45 -6.41 192.96 -6.57 192.53 -6.79 C 192.08 -7 191.52 -7.31 191.47 -7.87 C 191.45 -8.03 191.47 -8.21 191.5 -8.39 C 191.68 -9.27 192.49 -9.76 193.34 -9.76 C 193.88 -9.76 194.35 -9.54 194.72 -9.18 C 195.07 -8.86 195.26 -8.37 195.21 -7.92 L 195.71 -7.92 C 195.62 -9.34 194.27 -10.26 192.94 -10.26 C 191.5 -10.26 190.13 -9.32 190.13 -7.81 C 190.13 -6.71 190.98 -5.9 191.95 -5.53 C 192.47 -5.31 192.98 -5.15 193.46 -4.97 C 194.2 -4.7 195.1 -4.27 195.46 -3.51 C 195.61 -3.2 195.61 -2.75 195.55 -2.38 C 195.35 -1.03 193.95 -0.25 192.69 -0.25 C 191.61 -0.25 190.58 -0.74 190.01 -1.67 C 189.76 -2.09 189.63 -2.57 189.67 -3.06 Z" stroke-linecap="round" />
</g>
		<g transform="matrix(1 0 0 1 -67.41870863375362 14.218199999999968)" id="tagline-78a78531-e171-4421-b784-a42bc15f74eb-logo-path-2"  >
<path style="stroke: none; stroke-width: 0; stroke-dasharray: none; stroke-linecap: butt; stroke-dashoffset: 0; stroke-linejoin: miter; stroke-miterlimit: 4; fill: rgb(255,255,255); fill-rule: nonzero; opacity: 1;"  paint-order="stroke"  transform=" translate(-70.46000000000001, 4.154999999999999)" d="M 1.87 -0.5 L 1.87 -6.05 L 6.57 -6.05 L 6.57 -6.55 L 1.87 -6.55 L 1.87 -12.1 L 7.87 -12.1 L 7.87 -12.6 L 0.54 -12.6 L 0.54 0 L 7.87 0 L 7.87 -0.5 Z M 9.85 -10.01 L 13.43 0 L 14.76 0 L 18.36 -10.01 L 17.86 -10.01 L 14.51 -0.79 L 11.18 -10.01 Z M 25.18 0.16 C 26.57 0.16 27.81 -0.49 28.69 -1.49 L 27.97 -2.21 C 27.32 -1.1 26.32 -0.34 25.18 -0.34 C 23.24 -0.34 21.67 -2.52 21.67 -5 L 29.29 -5 C 29.29 -7.76 27.67 -10.17 25 -10.17 C 22.34 -10.17 20.34 -7.76 20.34 -5 C 20.34 -2.25 22.5 0.16 25.18 0.16 Z M 21.69 -5.51 C 21.87 -7.78 23.18 -9.67 25 -9.67 C 26.82 -9.67 27.81 -7.78 27.94 -5.51 Z M 38.66 -6.23 L 38.66 0 L 40 0 L 40 -6.23 C 40 -8.41 38.23 -10.17 36.05 -10.17 C 34.56 -10.17 33.28 -9.36 32.6 -8.15 L 32.6 -10.01 L 31.27 -10.01 L 31.27 0 L 32.6 0 L 32.6 -6.23 C 32.6 -8.14 33.95 -9.67 35.62 -9.67 C 37.3 -9.67 38.66 -8.14 38.66 -6.23 Z M 43.07 0 L 44.41 0 L 44.41 -9.5 L 45.61 -9.5 L 45.61 -10.01 L 44.41 -10.01 L 44.41 -11.88 L 43.07 -11.88 L 43.07 -10.01 L 41.87 -10.01 L 41.87 -9.5 L 43.07 -9.5 Z M 61.02 0.16 C 62.8 0.16 64.1 -0.43 65.38 -1.94 L 64.66 -2.68 C 63.77 -1.22 62.46 -0.34 61.02 -0.34 C 58.37 -0.34 56.43 -2.72 56.43 -6.3 C 56.43 -9.65 58.34 -12.28 61.02 -12.28 C 62.55 -12.28 63.67 -11.59 64.66 -9.92 L 65.38 -10.66 C 64.26 -11.99 62.71 -12.76 61.02 -12.76 C 57.62 -12.76 55.1 -10.17 55.1 -6.3 C 55.1 -2.66 57.55 0.16 61.02 0.16 Z M 67.36 -5 C 67.36 -2.11 69.37 0.16 72.2 0.16 C 74.99 0.16 77.04 -1.91 77.04 -5 C 77.04 -7.9 75.02 -10.17 72.2 -10.17 C 69.43 -10.17 67.36 -8.08 67.36 -5 Z M 68.69 -5 C 68.69 -7.61 70.15 -9.67 72.2 -9.67 C 74.23 -9.67 75.71 -7.81 75.71 -5 C 75.71 -2.39 74.25 -0.34 72.2 -0.34 C 70.16 -0.34 68.69 -2.2 68.69 -5 Z M 79.02 -10.01 L 82.6 0 L 83.93 0 L 87.53 -10.01 L 87.03 -10.01 L 83.68 -0.79 L 80.35 -10.01 Z M 94.36 0.16 C 95.74 0.16 96.98 -0.49 97.87 -1.49 L 97.15 -2.21 C 96.5 -1.1 95.49 -0.34 94.36 -0.34 C 92.41 -0.34 90.85 -2.52 90.85 -5 L 98.46 -5 C 98.46 -7.76 96.84 -10.17 94.18 -10.17 C 91.51 -10.17 89.51 -7.76 89.51 -5 C 89.51 -2.25 91.67 0.16 94.36 0.16 Z M 90.86 -5.51 C 91.04 -7.78 92.36 -9.67 94.18 -9.67 C 95.99 -9.67 96.98 -7.78 97.11 -5.51 Z M 101.77 -10.01 L 100.44 -10.01 L 100.44 0 L 101.77 0 L 101.77 -6.23 C 101.77 -8.14 103.12 -9.22 104.8 -9.22 C 105.26 -9.22 105.73 -9.13 106.13 -8.96 L 106.13 -10.06 C 105.84 -10.13 105.53 -10.17 105.23 -10.17 C 103.73 -10.17 102.46 -9.36 101.77 -8.15 Z M 108.11 -5 C 108.11 -2.11 110.12 0.16 112.95 0.16 C 114.73 0.16 115.85 -0.67 116.46 -1.93 L 116.46 0 L 117.79 0 L 117.79 -10.01 L 116.46 -10.01 L 116.46 -8.08 C 115.85 -9.34 114.73 -10.17 112.95 -10.17 C 110.18 -10.17 108.11 -8.08 108.11 -5 Z M 109.44 -5 C 109.44 -7.61 110.9 -9.67 112.95 -9.67 C 115.25 -9.67 116.46 -8.03 116.46 -5 C 116.46 -1.98 115.25 -0.34 112.95 -0.34 C 110.92 -0.34 109.44 -2.2 109.44 -5 Z M 119.77 -5.17 C 119.77 -2.36 121.79 -0.16 124.61 -0.16 C 126.4 -0.16 127.51 -0.97 128.12 -2.18 L 128.12 0.59 C 128.12 3.11 126.49 3.87 124.85 3.87 C 123.44 3.87 122.29 3.33 121.64 2.27 C 121.36 1.8 121.21 1.24 121.25 0.7 L 120.69 0.7 C 120.78 3.01 122.92 4.45 125.08 4.45 C 127.64 4.45 129.46 2.81 129.46 0.72 L 129.46 -10.01 L 128.12 -10.01 L 128.12 -8.15 C 127.51 -9.36 126.4 -10.17 124.61 -10.17 C 121.84 -10.17 119.77 -8.15 119.77 -5.17 Z M 121.1 -5.17 C 121.1 -7.7 122.56 -9.68 124.61 -9.68 C 126.92 -9.68 128.12 -8.1 128.12 -5.17 C 128.12 -2.23 126.92 -0.65 124.61 -0.65 C 122.58 -0.65 121.1 -2.45 121.1 -5.17 Z M 136.28 0.16 C 137.66 0.16 138.91 -0.49 139.79 -1.49 L 139.07 -2.21 C 138.42 -1.1 137.41 -0.34 136.28 -0.34 C 134.33 -0.34 132.77 -2.52 132.77 -5 L 140.38 -5 C 140.38 -7.76 138.76 -10.17 136.1 -10.17 C 133.43 -10.17 131.44 -7.76 131.44 -5 C 131.44 -2.25 133.6 0.16 136.28 0.16 Z M 132.79 -5.51 C 132.97 -7.78 134.28 -9.67 136.1 -9.67 C 137.92 -9.67 138.91 -7.78 139.03 -5.51 Z" stroke-linecap="round" />
</g>
		<g transform="matrix(1 0 0 1 0.00029136624638681496 35.39159999999998)" id="tagline-78a78531-e171-4421-b784-a42bc15f74eb-logo-path-3"  >
<path style="stroke: none; stroke-width: 0; stroke-dasharray: none; stroke-linecap: butt; stroke-dashoffset: 0; stroke-linejoin: miter; stroke-miterlimit: 4; fill: rgb(255,255,255); fill-rule: nonzero; opacity: 1;"  paint-order="stroke"  transform=" translate(-137.88, 6.58)" d="M 0.54 0 L 1.87 0 L 1.87 -3.8 L 5.04 -3.8 C 7.47 -3.8 9.43 -5.78 9.43 -8.21 C 9.43 -10.64 7.47 -12.6 5.04 -12.6 L 0.54 -12.6 Z M 1.87 -4.3 L 1.87 -12.1 L 4.19 -12.1 C 6.35 -12.1 8.1 -10.35 8.1 -8.21 C 8.1 -6.05 6.35 -4.3 4.19 -4.3 Z M 12.74 -10.01 L 11.41 -10.01 L 11.41 0 L 12.74 0 L 12.74 -6.23 C 12.74 -8.14 14.09 -9.22 15.77 -9.22 C 16.24 -9.22 16.7 -9.13 17.1 -8.96 L 17.1 -10.06 C 16.81 -10.13 16.51 -10.17 16.2 -10.17 C 14.71 -10.17 13.43 -9.36 12.74 -8.15 Z M 19.08 -5 C 19.08 -2.11 21.1 0.16 23.92 0.16 C 26.71 0.16 28.76 -1.91 28.76 -5 C 28.76 -7.9 26.75 -10.17 23.92 -10.17 C 21.15 -10.17 19.08 -8.08 19.08 -5 Z M 20.41 -5 C 20.41 -7.61 21.87 -9.67 23.92 -9.67 C 25.96 -9.67 27.43 -7.81 27.43 -5 C 27.43 -2.39 25.97 -0.34 23.92 -0.34 C 21.89 -0.34 20.41 -2.2 20.41 -5 Z M 37.42 -6.23 L 37.42 0 L 38.75 0 L 38.75 -6.23 C 38.75 -8.14 39.74 -9.67 41.42 -9.67 C 43.09 -9.67 44.1 -8.14 44.1 -6.23 L 44.1 0 L 45.43 0 L 45.43 -6.23 C 45.43 -8.41 44.03 -10.17 41.85 -10.17 C 40.19 -10.17 39.01 -9.18 38.5 -7.76 C 38 -9.18 36.81 -10.17 35.17 -10.17 C 33.75 -10.17 32.67 -9.43 32.08 -8.33 L 32.08 -10.01 L 30.74 -10.01 L 30.74 0 L 32.08 0 L 32.08 -6.23 C 32.08 -8.14 33.07 -9.67 34.74 -9.67 C 36.41 -9.67 37.42 -8.14 37.42 -6.23 Z M 47.41 -5 C 47.41 -2.11 49.43 0.16 52.25 0.16 C 55.04 0.16 57.1 -1.91 57.1 -5 C 57.1 -7.9 55.08 -10.17 52.25 -10.17 C 49.48 -10.17 47.41 -8.08 47.41 -5 Z M 48.74 -5 C 48.74 -7.61 50.2 -9.67 52.25 -9.67 C 54.29 -9.67 55.76 -7.81 55.76 -5 C 55.76 -2.39 54.31 -0.34 52.25 -0.34 C 50.22 -0.34 48.74 -2.2 48.74 -5 Z M 60.17 0 L 61.51 0 L 61.51 -9.5 L 62.71 -9.5 L 62.71 -10.01 L 61.51 -10.01 L 61.51 -11.88 L 60.17 -11.88 L 60.17 -10.01 L 58.97 -10.01 L 58.97 -9.5 L 60.17 -9.5 Z M 64.58 -12.65 C 64.58 -12.2 64.94 -11.88 65.36 -11.88 C 65.79 -11.88 66.11 -12.2 66.11 -12.65 C 66.11 -13.05 65.79 -13.41 65.36 -13.41 C 64.94 -13.41 64.58 -13.05 64.58 -12.65 Z M 64.69 0 L 66.02 0 L 66.02 -10.01 L 64.69 -10.01 Z M 68.09 -5 C 68.09 -2.11 70.11 0.16 72.94 0.16 C 75.73 0.16 77.78 -1.91 77.78 -5 C 77.78 -7.9 75.76 -10.17 72.94 -10.17 C 70.16 -10.17 68.09 -8.08 68.09 -5 Z M 69.43 -5 C 69.43 -7.61 70.88 -9.67 72.94 -9.67 C 74.97 -9.67 76.45 -7.81 76.45 -5 C 76.45 -2.39 74.99 -0.34 72.94 -0.34 C 70.9 -0.34 69.43 -2.2 69.43 -5 Z M 87.16 -6.23 L 87.16 0 L 88.49 0 L 88.49 -6.23 C 88.49 -8.41 86.72 -10.17 84.55 -10.17 C 83.05 -10.17 81.77 -9.36 81.09 -8.15 L 81.09 -10.01 L 79.76 -10.01 L 79.76 0 L 81.09 0 L 81.09 -6.23 C 81.09 -8.14 82.44 -9.67 84.11 -9.67 C 85.79 -9.67 87.16 -8.14 87.16 -6.23 Z M 90.47 -5 C 90.47 -2.11 92.48 0.16 95.31 0.16 C 97.09 0.16 98.21 -0.67 98.82 -1.93 L 98.82 0 L 100.15 0 L 100.15 -10.01 L 98.82 -10.01 L 98.82 -8.08 C 98.21 -9.34 97.09 -10.17 95.31 -10.17 C 92.54 -10.17 90.47 -8.08 90.47 -5 Z M 91.8 -5 C 91.8 -7.61 93.26 -9.67 95.31 -9.67 C 97.61 -9.67 98.82 -8.03 98.82 -5 C 98.82 -1.98 97.61 -0.34 95.31 -0.34 C 93.28 -0.34 91.8 -2.2 91.8 -5 Z M 102.13 0 L 103.46 0 L 103.46 -13.14 L 102.13 -13.14 Z M 113.06 -10.01 L 116.64 0 L 117.97 0 L 121.57 -10.01 L 121.07 -10.01 L 117.72 -0.79 L 114.39 -10.01 Z M 123.55 -12.65 C 123.55 -12.2 123.91 -11.88 124.33 -11.88 C 124.76 -11.88 125.08 -12.2 125.08 -12.65 C 125.08 -13.05 124.76 -13.41 124.33 -13.41 C 123.91 -13.41 123.55 -13.05 123.55 -12.65 Z M 123.66 0 L 124.99 0 L 124.99 -10.01 L 123.66 -10.01 Z M 127.06 -5 C 127.06 -2.11 129.08 0.16 131.9 0.16 C 133.69 0.16 134.8 -0.67 135.41 -1.93 L 135.41 0 L 136.75 0 L 136.75 -13.14 L 135.41 -13.14 L 135.41 -8.08 C 134.8 -9.34 133.69 -10.17 131.9 -10.17 C 129.13 -10.17 127.06 -8.08 127.06 -5 Z M 128.39 -5 C 128.39 -7.61 129.85 -9.67 131.9 -9.67 C 134.21 -9.67 135.41 -8.03 135.41 -5 C 135.41 -1.98 134.21 -0.34 131.9 -0.34 C 129.87 -0.34 128.39 -2.2 128.39 -5 Z M 143.57 0.16 C 144.95 0.16 146.2 -0.49 147.08 -1.49 L 146.36 -2.21 C 145.71 -1.1 144.7 -0.34 143.57 -0.34 C 141.62 -0.34 140.06 -2.52 140.06 -5 L 147.67 -5 C 147.67 -7.76 146.05 -10.17 143.39 -10.17 C 140.72 -10.17 138.73 -7.76 138.73 -5 C 138.73 -2.25 140.89 0.16 143.57 0.16 Z M 140.08 -5.51 C 140.26 -7.78 141.57 -9.67 143.39 -9.67 C 145.21 -9.67 146.2 -7.78 146.32 -5.51 Z M 149.65 -5 C 149.65 -2.11 151.67 0.16 154.49 0.16 C 157.28 0.16 159.34 -1.91 159.34 -5 C 159.34 -7.9 157.32 -10.17 154.49 -10.17 C 151.72 -10.17 149.65 -8.08 149.65 -5 Z M 150.98 -5 C 150.98 -7.61 152.44 -9.67 154.49 -9.67 C 156.53 -9.67 158 -7.81 158 -5 C 158 -2.39 156.55 -0.34 154.49 -0.34 C 152.46 -0.34 150.98 -2.2 150.98 -5 Z M 161.82 -3.06 L 161.32 -3.06 C 161.41 -1.03 163.3 0.25 165.2 0.25 C 166.72 0.25 168.43 -0.5 168.91 -2.05 C 169.11 -2.66 169.15 -3.33 168.91 -4 C 168.48 -5.24 167.22 -5.76 166.09 -6.21 C 165.6 -6.41 165.11 -6.57 164.68 -6.79 C 164.23 -7 163.67 -7.31 163.62 -7.87 C 163.6 -8.03 163.62 -8.21 163.66 -8.39 C 163.84 -9.27 164.65 -9.76 165.49 -9.76 C 166.03 -9.76 166.5 -9.54 166.88 -9.18 C 167.22 -8.86 167.42 -8.37 167.36 -7.92 L 167.87 -7.92 C 167.78 -9.34 166.43 -10.26 165.1 -10.26 C 163.66 -10.26 162.29 -9.32 162.29 -7.81 C 162.29 -6.71 163.13 -5.9 164.11 -5.53 C 164.63 -5.31 165.13 -5.15 165.62 -4.97 C 166.36 -4.7 167.26 -4.27 167.62 -3.51 C 167.76 -3.2 167.76 -2.75 167.71 -2.38 C 167.51 -1.03 166.1 -0.25 164.84 -0.25 C 163.76 -0.25 162.74 -0.74 162.16 -1.67 C 161.91 -2.09 161.78 -2.57 161.82 -3.06 Z M 178.69 -5 C 178.69 -2.11 180.7 0.16 183.53 0.16 C 185.31 0.16 186.43 -0.67 187.04 -1.93 L 187.04 0 L 188.37 0 L 188.37 -10.01 L 187.04 -10.01 L 187.04 -8.08 C 186.43 -9.34 185.31 -10.17 183.53 -10.17 C 180.76 -10.17 178.69 -8.08 178.69 -5 Z M 180.02 -5 C 180.02 -7.61 181.48 -9.67 183.53 -9.67 C 185.83 -9.67 187.04 -8.03 187.04 -5 C 187.04 -1.98 185.83 -0.34 183.53 -0.34 C 181.49 -0.34 180.02 -2.2 180.02 -5 Z M 197.75 -6.23 L 197.75 0 L 199.08 0 L 199.08 -6.23 C 199.08 -8.41 197.32 -10.17 195.14 -10.17 C 193.64 -10.17 192.37 -9.36 191.68 -8.15 L 191.68 -10.01 L 190.35 -10.01 L 190.35 0 L 191.68 0 L 191.68 -6.23 C 191.68 -8.14 193.03 -9.67 194.71 -9.67 C 196.38 -9.67 197.75 -8.14 197.75 -6.23 Z M 201.06 -5 C 201.06 -2.11 203.08 0.16 205.9 0.16 C 207.68 0.16 208.8 -0.67 209.41 -1.93 L 209.41 0 L 210.74 0 L 210.74 -13.14 L 209.41 -13.14 L 209.41 -8.08 C 208.8 -9.34 207.68 -10.17 205.9 -10.17 C 203.13 -10.17 201.06 -8.08 201.06 -5 Z M 202.39 -5 C 202.39 -7.61 203.85 -9.67 205.9 -9.67 C 208.21 -9.67 209.41 -8.03 209.41 -5 C 209.41 -1.98 208.21 -0.34 205.9 -0.34 C 203.87 -0.34 202.39 -2.2 202.39 -5 Z M 227.02 -6.23 L 227.02 0 L 228.35 0 L 228.35 -6.23 C 228.35 -8.14 229.34 -9.67 231.01 -9.67 C 232.69 -9.67 233.69 -8.14 233.69 -6.23 L 233.69 0 L 235.03 0 L 235.03 -6.23 C 235.03 -8.41 233.62 -10.17 231.44 -10.17 C 229.79 -10.17 228.6 -9.18 228.1 -7.76 C 227.59 -9.18 226.4 -10.17 224.77 -10.17 C 223.34 -10.17 222.26 -9.43 221.67 -8.33 L 221.67 -10.01 L 220.34 -10.01 L 220.34 0 L 221.67 0 L 221.67 -6.23 C 221.67 -8.14 222.66 -9.67 224.33 -9.67 C 226.01 -9.67 227.02 -8.14 227.02 -6.23 Z M 237.01 -5 C 237.01 -2.11 239.02 0.16 241.85 0.16 C 244.64 0.16 246.69 -1.91 246.69 -5 C 246.69 -7.9 244.67 -10.17 241.85 -10.17 C 239.08 -10.17 237.01 -8.08 237.01 -5 Z M 238.34 -5 C 238.34 -7.61 239.8 -9.67 241.85 -9.67 C 243.88 -9.67 245.36 -7.81 245.36 -5 C 245.36 -2.39 243.9 -0.34 241.85 -0.34 C 239.81 -0.34 238.34 -2.2 238.34 -5 Z M 250 -10.01 L 248.67 -10.01 L 248.67 0 L 250 0 L 250 -6.23 C 250 -8.14 251.35 -9.22 253.03 -9.22 C 253.49 -9.22 253.96 -9.13 254.36 -8.96 L 254.36 -10.06 C 254.07 -10.13 253.76 -10.17 253.46 -10.17 C 251.96 -10.17 250.69 -9.36 250 -8.15 Z M 261.18 0.16 C 262.57 0.16 263.81 -0.49 264.69 -1.49 L 263.97 -2.21 C 263.32 -1.1 262.31 -0.34 261.18 -0.34 C 259.24 -0.34 257.67 -2.52 257.67 -5 L 265.28 -5 C 265.28 -7.76 263.66 -10.17 261 -10.17 C 258.34 -10.17 256.34 -7.76 256.34 -5 C 256.34 -2.25 258.5 0.16 261.18 0.16 Z M 257.69 -5.51 C 257.87 -7.78 259.18 -9.67 261 -9.67 C 262.82 -9.67 263.81 -7.78 263.93 -5.51 Z M 267.26 -0.5 C 267.26 -0.13 267.57 0.16 267.93 0.16 C 268.31 0.16 268.6 -0.13 268.6 -0.5 C 268.6 -0.86 268.31 -1.17 267.93 -1.17 C 267.57 -1.17 267.26 -0.86 267.26 -0.5 Z M 270.58 -0.5 C 270.58 -0.13 270.88 0.16 271.24 0.16 C 271.62 0.16 271.91 -0.13 271.91 -0.5 C 271.91 -0.86 271.62 -1.17 271.24 -1.17 C 270.88 -1.17 270.58 -0.86 270.58 -0.5 Z M 273.89 -0.5 C 273.89 -0.13 274.19 0.16 274.55 0.16 C 274.93 0.16 275.22 -0.13 275.22 -0.5 C 275.22 -0.86 274.93 -1.17 274.55 -1.17 C 274.19 -1.17 273.89 -0.86 273.89 -0.5 Z" stroke-linecap="round" />
</g>
</g>
</g>
<g transform="matrix(1.5066388244636033 0 0 1.5066388244636035 743.1490692287525 468.4629253645011)" id="tagline-72c572a4-47cf-45b4-9695-5edb6dd783d8-logo"  >
<g style=""  paint-order="stroke"   >
		<g transform="matrix(1 0 0 1 123.86700000000008 -48.69279999999998)" id="tagline-72c572a4-47cf-45b4-9695-5edb6dd783d8-logo-path-0"  >
<path style="stroke: none; stroke-width: 0; stroke-dasharray: none; stroke-linecap: butt; stroke-dashoffset: 0; stroke-linejoin: miter; stroke-miterlimit: 4; fill: rgb(255,255,255); fill-rule: nonzero; opacity: 1;"  paint-order="stroke"  transform=" translate(-30.15, 6.3)" d="M 0.54 -6.3 C 0.54 -2.83 3.2 0.16 6.46 0.16 C 9.74 0.16 12.4 -2.83 12.4 -6.3 C 12.4 -9.77 9.74 -12.76 6.46 -12.76 C 3.19 -12.76 0.54 -9.77 0.54 -6.3 Z M 1.87 -6.3 C 1.87 -9.5 3.92 -12.28 6.46 -12.28 C 9 -12.28 11.07 -9.5 11.07 -6.3 C 11.07 -3.1 9 -0.34 6.46 -0.34 C 3.92 -0.34 1.87 -3.1 1.87 -6.3 Z M 14.92 -10.01 L 18.5 0 L 19.84 0 L 21.87 -5.67 L 23.9 0 L 25.24 0 L 28.84 -10.01 L 28.33 -10.01 L 24.98 -0.79 L 22.55 -7.54 L 23.44 -10.01 L 22.93 -10.01 L 22.28 -8.24 L 21.65 -10.01 L 20.32 -10.01 L 21.62 -6.39 L 19.58 -0.79 L 16.25 -10.01 Z M 38.75 -6.23 L 38.75 0 L 40.09 0 L 40.09 -6.23 C 40.09 -8.41 38.32 -10.17 36.14 -10.17 C 34.65 -10.17 33.37 -9.36 32.69 -8.15 L 32.69 -10.01 L 31.36 -10.01 L 31.36 0 L 32.69 0 L 32.69 -6.23 C 32.69 -8.14 34.04 -9.67 35.71 -9.67 C 37.39 -9.67 38.75 -8.14 38.75 -6.23 Z M 47.45 0.16 C 48.83 0.16 50.08 -0.49 50.96 -1.49 L 50.24 -2.21 C 49.59 -1.1 48.58 -0.34 47.45 -0.34 C 45.5 -0.34 43.94 -2.52 43.94 -5 L 51.55 -5 C 51.55 -7.76 49.93 -10.17 47.27 -10.17 C 44.6 -10.17 42.61 -7.76 42.61 -5 C 42.61 -2.25 44.77 0.16 47.45 0.16 Z M 43.96 -5.51 C 44.14 -7.78 45.45 -9.67 47.27 -9.67 C 49.09 -9.67 50.08 -7.78 50.2 -5.51 Z M 55.4 -10.01 L 54.07 -10.01 L 54.07 0 L 55.4 0 L 55.4 -6.23 C 55.4 -8.14 56.75 -9.22 58.43 -9.22 C 58.9 -9.22 59.36 -9.13 59.76 -8.96 L 59.76 -10.06 C 59.47 -10.13 59.17 -10.17 58.86 -10.17 C 57.37 -10.17 56.09 -9.36 55.4 -8.15 Z" stroke-linecap="round" />
</g>
		<g transform="matrix(1 0 0 1 72.22500000000014 -23.595399999999984)" id="tagline-72c572a4-47cf-45b4-9695-5edb6dd783d8-logo-path-1"  >
<path style="stroke: none; stroke-width: 0; stroke-dasharray: none; stroke-linecap: butt; stroke-dashoffset: 0; stroke-linejoin: miter; stroke-miterlimit: 4; fill: rgb(255,255,255); fill-rule: nonzero; opacity: 1;"  paint-order="stroke"  transform=" translate(-83.04500000000002, 4.795)" d="M 6.46 0.16 C 8.24 0.16 9.54 -0.43 10.82 -1.94 L 10.1 -2.68 C 9.22 -1.22 7.9 -0.34 6.46 -0.34 C 3.82 -0.34 1.87 -2.72 1.87 -6.3 C 1.87 -9.65 3.78 -12.28 6.46 -12.28 C 7.99 -12.28 9.11 -11.59 10.1 -9.92 L 10.82 -10.66 C 9.7 -11.99 8.15 -12.76 6.46 -12.76 C 3.06 -12.76 0.54 -10.17 0.54 -6.3 C 0.54 -2.66 2.99 0.16 6.46 0.16 Z M 17.84 -12.6 L 13.34 -12.6 L 13.34 0 L 14.67 0 L 14.67 -3.8 L 16.27 -3.8 C 17.1 -3.69 17.82 -3.29 18.45 -2.79 C 19.46 -1.98 20.27 -0.95 21.26 0 C 22.23 0.94 23.22 1.94 24.55 2.63 C 25.2 2.95 25.96 3.17 26.71 3.17 C 27.49 3.17 28.21 2.93 28.82 2.57 L 28.62 2.11 C 28.17 2.23 27.72 2.3 27.29 2.3 C 25.85 2.3 24.64 1.39 23.62 0.45 C 23.13 0 22.66 -0.47 22.19 -0.95 C 21.1 -2.09 19.67 -3.24 18.18 -3.82 C 20.45 -4 22.23 -5.89 22.23 -8.21 C 22.23 -10.64 20.27 -12.6 17.84 -12.6 Z M 14.67 -4.3 L 14.67 -12.1 L 16.99 -12.1 C 19.15 -12.1 20.9 -10.35 20.9 -8.21 C 20.9 -6.05 19.15 -4.3 16.99 -4.3 Z M 25.54 0 L 26.05 0 L 27.36 -4.36 L 31.9 -4.36 L 33.23 0 L 34.56 0 L 30.71 -12.6 L 29.38 -12.6 Z M 27.52 -4.84 L 29.63 -11.77 L 31.75 -4.84 Z M 37.08 0 L 38.41 0 L 38.41 -12.6 L 37.08 -12.6 Z M 40.93 -6.3 C 40.93 -2.66 43.38 0.16 46.85 0.16 C 49.97 0.16 52.22 -1.85 52.72 -5.36 L 47.84 -5.36 L 47.84 -4.86 L 51.3 -4.86 C 50.78 -2.2 49.03 -0.34 46.85 -0.34 C 44.21 -0.34 42.26 -2.72 42.26 -6.3 C 42.26 -9.65 44.17 -12.28 46.85 -12.28 C 48.38 -12.28 49.5 -11.59 50.49 -9.92 L 51.21 -10.66 C 50.09 -11.99 48.55 -12.76 46.85 -12.76 C 43.45 -12.76 40.93 -10.17 40.93 -6.3 Z M 70.36 -0.5 L 64.73 -0.5 L 64.73 -12.6 L 63.4 -12.6 L 63.4 0 L 70.36 0 Z M 72.88 -6.3 C 72.88 -2.83 75.55 0.16 78.8 0.16 C 82.08 0.16 84.74 -2.83 84.74 -6.3 C 84.74 -9.77 82.08 -12.76 78.8 -12.76 C 75.53 -12.76 72.88 -9.77 72.88 -6.3 Z M 74.21 -6.3 C 74.21 -9.5 76.27 -12.28 78.8 -12.28 C 81.34 -12.28 83.41 -9.5 83.41 -6.3 C 83.41 -3.1 81.34 -0.34 78.8 -0.34 C 76.27 -0.34 74.21 -3.1 74.21 -6.3 Z M 87.26 -6.3 C 87.26 -2.66 89.71 0.16 93.19 0.16 C 96.3 0.16 98.55 -1.85 99.05 -5.36 L 94.18 -5.36 L 94.18 -4.86 L 97.63 -4.86 C 97.11 -2.2 95.36 -0.34 93.19 -0.34 C 90.54 -0.34 88.6 -2.72 88.6 -6.3 C 88.6 -9.65 90.5 -12.28 93.19 -12.28 C 94.72 -12.28 95.83 -11.59 96.82 -9.92 L 97.54 -10.66 C 96.43 -11.99 94.88 -12.76 93.19 -12.76 C 89.78 -12.76 87.26 -10.17 87.26 -6.3 Z M 102.91 -0.5 L 102.91 -6.05 L 107.6 -6.05 L 107.6 -6.55 L 102.91 -6.55 L 102.91 -12.1 L 108.9 -12.1 L 108.9 -12.6 L 101.57 -12.6 L 101.57 0 L 108.9 0 L 108.9 -0.5 Z M 115.92 -12.6 L 111.42 -12.6 L 111.42 0 L 112.75 0 L 112.75 -3.8 L 114.35 -3.8 C 115.18 -3.69 115.9 -3.29 116.53 -2.79 C 117.54 -1.98 118.35 -0.95 119.34 0 C 120.31 0.94 121.3 1.94 122.63 2.63 C 123.28 2.95 124.04 3.17 124.79 3.17 C 125.57 3.17 126.29 2.93 126.9 2.57 L 126.7 2.11 C 126.25 2.23 125.8 2.3 125.37 2.3 C 123.93 2.3 122.72 1.39 121.7 0.45 C 121.21 0 120.74 -0.47 120.28 -0.95 C 119.18 -2.09 117.76 -3.24 116.26 -3.82 C 118.53 -4 120.31 -5.89 120.31 -8.21 C 120.31 -10.64 118.35 -12.6 115.92 -12.6 Z M 112.75 -4.3 L 112.75 -12.1 L 115.07 -12.1 C 117.23 -12.1 118.98 -10.35 118.98 -8.21 C 118.98 -6.05 117.23 -4.3 115.07 -4.3 Z M 124.96 -12.6 L 123.62 -12.6 L 126.79 0 L 128.12 0 L 130.18 -8.12 L 132.23 0 L 133.56 0 L 136.73 -12.6 L 136.22 -12.6 L 133.31 -0.99 L 130.37 -12.6 L 129.04 -12.6 L 129.92 -9.11 L 127.89 -0.99 Z M 140.58 -0.5 L 140.58 -6.05 L 145.28 -6.05 L 145.28 -6.55 L 140.58 -6.55 L 140.58 -12.1 L 146.57 -12.1 L 146.57 -12.6 L 139.25 -12.6 L 139.25 0 L 146.57 0 L 146.57 -0.5 Z M 156.06 -0.5 L 150.43 -0.5 L 150.43 -12.6 L 149.09 -12.6 L 149.09 0 L 156.06 0 Z M 165.55 -0.5 L 159.91 -0.5 L 159.91 -12.6 L 158.58 -12.6 L 158.58 0 L 165.55 0 Z" stroke-linecap="round" />
</g>
		<g transform="matrix(1 0 0 1 60.62400000000014 -1.504000000000019)" id="tagline-72c572a4-47cf-45b4-9695-5edb6dd783d8-logo-path-2"  >
<path style="stroke: none; stroke-width: 0; stroke-dasharray: none; stroke-linecap: butt; stroke-dashoffset: 0; stroke-linejoin: miter; stroke-miterlimit: 4; fill: rgb(255,255,255); fill-rule: nonzero; opacity: 1;"  paint-order="stroke"  transform=" translate(-96.19000000000001, 6.3)" d="M 6.46 0.16 C 8.24 0.16 9.54 -0.43 10.82 -1.94 L 10.1 -2.68 C 9.22 -1.22 7.9 -0.34 6.46 -0.34 C 3.82 -0.34 1.87 -2.72 1.87 -6.3 C 1.87 -9.65 3.78 -12.28 6.46 -12.28 C 7.99 -12.28 9.11 -11.59 10.1 -9.92 L 10.82 -10.66 C 9.7 -11.99 8.15 -12.76 6.46 -12.76 C 3.06 -12.76 0.54 -10.17 0.54 -6.3 C 0.54 -2.66 2.99 0.16 6.46 0.16 Z M 20.3 -0.5 L 14.67 -0.5 L 14.67 -12.6 L 13.34 -12.6 L 13.34 0 L 20.3 0 Z M 22.82 -6.3 C 22.82 -2.83 25.49 0.16 28.75 0.16 C 32.02 0.16 34.69 -2.83 34.69 -6.3 C 34.69 -9.77 32.02 -12.76 28.75 -12.76 C 25.47 -12.76 22.82 -9.77 22.82 -6.3 Z M 24.16 -6.3 C 24.16 -9.5 26.21 -12.28 28.75 -12.28 C 31.28 -12.28 33.35 -9.5 33.35 -6.3 C 33.35 -3.1 31.28 -0.34 28.75 -0.34 C 26.21 -0.34 24.16 -3.1 24.16 -6.3 Z M 38.54 -4.81 L 38.54 -12.6 L 37.21 -12.6 L 37.21 -4.81 C 37.21 -2.16 39.37 0.16 42.01 0.16 C 44.68 0.16 46.82 -2.16 46.82 -4.81 L 46.82 -12.6 L 46.31 -12.6 L 46.31 -4.81 C 46.31 -2.43 44.59 -0.34 42.43 -0.34 C 40.28 -0.34 38.54 -2.43 38.54 -4.81 Z M 49.34 0 L 53.08 0 C 56.56 0 59.38 -2.83 59.38 -6.3 C 59.38 -9.77 56.56 -12.6 53.08 -12.6 L 49.34 -12.6 Z M 50.67 -0.5 L 50.67 -12.1 L 52.25 -12.1 C 55.46 -12.1 58.05 -9.5 58.05 -6.3 C 58.05 -3.1 55.46 -0.5 52.25 -0.5 Z M 68.87 -0.5 L 63.23 -0.5 L 63.23 -12.6 L 61.9 -12.6 L 61.9 0 L 68.87 0 Z M 71.39 0 L 72.72 0 L 72.72 -12.6 L 71.39 -12.6 Z M 75.24 -12.6 L 75.24 0 L 75.74 0 L 75.74 -11.77 L 82.85 0 L 84.35 0 L 84.35 -12.6 L 83.84 -12.6 L 83.84 -0.83 L 76.73 -12.6 Z M 88.2 -0.5 L 88.2 -6.05 L 92.9 -6.05 L 92.9 -6.55 L 88.2 -6.55 L 88.2 -12.1 L 94.19 -12.1 L 94.19 -12.6 L 86.87 -12.6 L 86.87 0 L 94.19 0 L 94.19 -0.5 Z M 96.71 0 L 98.05 0 L 98.05 -12.6 L 96.71 -12.6 Z M 102.06 -12.6 L 100.57 -12.6 L 100.57 0 L 101.07 0 L 101.07 -11.25 L 105.25 0 L 106.74 0 L 110.25 -11.03 L 110.25 0 L 111.58 0 L 111.58 -12.6 L 110.25 -12.6 L 106.47 -0.72 Z M 114.1 0 L 114.61 0 L 115.92 -4.36 L 120.46 -4.36 L 121.79 0 L 123.12 0 L 119.27 -12.6 L 117.94 -12.6 Z M 116.08 -4.84 L 118.19 -11.77 L 120.31 -4.84 Z M 125.64 -6.3 C 125.64 -2.66 128.09 0.16 131.56 0.16 C 134.68 0.16 136.93 -1.85 137.43 -5.36 L 132.55 -5.36 L 132.55 -4.86 L 136.01 -4.86 C 135.49 -2.2 133.74 -0.34 131.56 -0.34 C 128.92 -0.34 126.97 -2.72 126.97 -6.3 C 126.97 -9.65 128.88 -12.28 131.56 -12.28 C 133.09 -12.28 134.21 -11.59 135.2 -9.92 L 135.92 -10.66 C 134.8 -11.99 133.25 -12.76 131.56 -12.76 C 128.16 -12.76 125.64 -10.17 125.64 -6.3 Z M 141.28 -0.5 L 141.28 -6.05 L 145.98 -6.05 L 145.98 -6.55 L 141.28 -6.55 L 141.28 -12.1 L 147.28 -12.1 L 147.28 -12.6 L 139.95 -12.6 L 139.95 0 L 147.28 0 L 147.28 -0.5 Z M 149.8 -0.5 C 149.8 -0.13 150.1 0.16 150.46 0.16 C 150.84 0.16 151.13 -0.13 151.13 -0.5 C 151.13 -0.86 150.84 -1.17 150.46 -1.17 C 150.1 -1.17 149.8 -0.86 149.8 -0.5 Z M 159.57 0.16 C 161.35 0.16 162.65 -0.43 163.93 -1.94 L 163.21 -2.68 C 162.32 -1.22 161.01 -0.34 159.57 -0.34 C 156.92 -0.34 154.98 -2.72 154.98 -6.3 C 154.98 -9.65 156.89 -12.28 159.57 -12.28 C 161.1 -12.28 162.22 -11.59 163.21 -9.92 L 163.93 -10.66 C 162.81 -11.99 161.26 -12.76 159.57 -12.76 C 156.17 -12.76 153.65 -10.17 153.65 -6.3 C 153.65 -2.66 156.1 0.16 159.57 0.16 Z M 166.45 -6.3 C 166.45 -2.83 169.11 0.16 172.37 0.16 C 175.64 0.16 178.31 -2.83 178.31 -6.3 C 178.31 -9.77 175.64 -12.76 172.37 -12.76 C 169.09 -12.76 166.45 -9.77 166.45 -6.3 Z M 167.78 -6.3 C 167.78 -9.5 169.83 -12.28 172.37 -12.28 C 174.91 -12.28 176.98 -9.5 176.98 -6.3 C 176.98 -3.1 174.91 -0.34 172.37 -0.34 C 169.83 -0.34 167.78 -3.1 167.78 -6.3 Z M 182.32 -12.6 L 180.83 -12.6 L 180.83 0 L 181.33 0 L 181.33 -11.25 L 185.51 0 L 187 0 L 190.51 -11.03 L 190.51 0 L 191.84 0 L 191.84 -12.6 L 190.51 -12.6 L 186.73 -0.72 Z" stroke-linecap="round" />
</g>
		<g transform="matrix(1 0 0 1 88.03800000000012 22.081399999999974)" id="tagline-72c572a4-47cf-45b4-9695-5edb6dd783d8-logo-path-3"  >
<path style="stroke: none; stroke-width: 0; stroke-dasharray: none; stroke-linecap: butt; stroke-dashoffset: 0; stroke-linejoin: miter; stroke-miterlimit: 4; fill: rgb(255,255,255); fill-rule: nonzero; opacity: 1;"  paint-order="stroke"  transform=" translate(-65.915, 6.31)" d="M 0.54 -6.3 C 0.54 -2.83 1.06 0.16 3.76 0.16 L 3.76 -0.34 C 1.8 -0.34 1.87 -3.1 1.87 -6.3 C 1.87 -9.5 1.8 -12.28 3.76 -12.28 L 3.76 -12.76 C 1.06 -12.76 0.54 -9.77 0.54 -6.3 Z M 6.28 -0.95 L 6.28 0 L 14.2 0 L 14.2 -0.5 L 7.61 -0.5 L 7.61 -0.94 C 7.61 -2.39 8.84 -3.29 9.94 -4.05 C 10.66 -4.55 11.45 -5 12.2 -5.6 C 13.23 -6.41 14.15 -7.51 14.15 -8.87 C 14.15 -11.23 12.62 -12.78 10.3 -12.78 C 8.55 -12.78 7.22 -11.72 6.34 -10.3 L 6.79 -10.08 C 7.38 -11.3 8.59 -12.28 9.97 -12.28 C 11.74 -12.28 12.83 -11.23 12.92 -9.52 C 12.94 -9.32 12.92 -9.11 12.91 -8.95 C 12.8 -7.97 12.08 -7.27 11.34 -6.71 C 10.67 -6.21 9.92 -5.74 9.16 -5.22 C 7.65 -4.18 6.28 -2.93 6.28 -0.95 Z M 17.14 -2.5 L 16.72 -2.29 C 17.39 -0.85 18.86 0.16 20.56 0.16 C 22.9 0.16 24.8 -1.73 24.8 -4.07 C 24.8 -6.41 22.9 -8.32 20.56 -8.32 C 20.23 -8.32 19.93 -8.26 19.62 -8.21 L 19.62 -12.1 L 23.33 -12.1 L 23.33 -12.6 L 18.29 -12.6 L 18.29 -7.16 C 18.81 -7.58 19.49 -7.81 20.16 -7.81 C 22.01 -7.81 23.51 -6.14 23.51 -4.07 C 23.51 -2.02 22.01 -0.34 20.16 -0.34 C 18.81 -0.34 17.66 -1.22 17.14 -2.5 Z M 27.74 -2.52 L 27.32 -2.29 C 28.03 -0.83 29.5 0.16 31.23 0.16 C 33.62 0.16 35.57 -1.78 35.57 -4.18 C 35.57 -6.57 33.62 -8.51 31.23 -8.51 L 33.8 -12.6 L 28.44 -12.6 L 28.44 -12.1 L 32.17 -12.1 L 29.32 -7.61 C 29.77 -7.87 30.28 -8.01 30.82 -8.01 C 30.83 -8.01 30.87 -8.01 30.89 -7.99 C 32.74 -7.96 34.22 -6.26 34.22 -4.18 C 34.22 -2.07 32.71 -0.34 30.82 -0.34 C 29.47 -0.34 28.3 -1.24 27.74 -2.52 Z M 38.09 -12.76 L 38.09 -12.28 C 40.05 -12.28 39.98 -9.5 39.98 -6.3 C 39.98 -3.1 40.05 -0.34 38.09 -0.34 L 38.09 0.16 C 40.79 0.16 41.31 -2.83 41.31 -6.3 C 41.31 -9.77 40.79 -12.76 38.09 -12.76 Z M 51.98 -0.95 L 51.98 0 L 59.9 0 L 59.9 -0.5 L 53.32 -0.5 L 53.32 -0.94 C 53.32 -2.39 54.54 -3.29 55.64 -4.05 C 56.36 -4.55 57.15 -5 57.91 -5.6 C 58.93 -6.41 59.85 -7.51 59.85 -8.87 C 59.85 -11.23 58.32 -12.78 56 -12.78 C 54.25 -12.78 52.92 -11.72 52.04 -10.3 L 52.49 -10.08 C 53.08 -11.3 54.29 -12.28 55.67 -12.28 C 57.44 -12.28 58.54 -11.23 58.63 -9.52 C 58.64 -9.32 58.63 -9.11 58.61 -8.95 C 58.5 -7.97 57.78 -7.27 57.04 -6.71 C 56.38 -6.21 55.62 -5.74 54.86 -5.22 C 53.35 -4.18 51.98 -2.93 51.98 -0.95 Z M 62.42 -3.31 L 68.15 -3.31 L 68.15 0 L 69.48 0 L 69.48 -3.31 L 71.01 -3.31 L 71.01 -3.82 L 69.48 -3.82 L 69.48 -12.6 L 68.15 -12.6 L 62.42 -3.82 Z M 62.93 -3.82 L 68.15 -11.83 L 68.15 -3.82 Z M 73.53 -3.31 L 79.25 -3.31 L 79.25 0 L 80.59 0 L 80.59 -3.31 L 82.12 -3.31 L 82.12 -3.82 L 80.59 -3.82 L 80.59 -12.6 L 79.25 -12.6 L 73.53 -3.82 Z M 74.03 -3.82 L 79.25 -11.83 L 79.25 -3.82 Z M 84.64 -6.05 L 89.15 -6.05 L 89.15 -6.55 L 84.64 -6.55 Z M 91.67 -3.31 L 97.4 -3.31 L 97.4 0 L 98.73 0 L 98.73 -3.31 L 100.26 -3.31 L 100.26 -3.82 L 98.73 -3.82 L 98.73 -12.6 L 97.4 -12.6 L 91.67 -3.82 Z M 92.18 -3.82 L 97.4 -11.83 L 97.4 -3.82 Z M 110.2 -12.6 L 102.78 -12.6 L 102.78 -12.1 L 108.7 -12.1 L 104.9 0 L 106.24 0 Z M 112.72 -8.77 C 112.72 -6.57 114.41 -4.77 116.93 -4.77 C 117.99 -4.77 118.93 -5.11 119.63 -5.65 C 119.52 -3.08 118.13 -1.33 116.15 -0.5 L 116.15 0 C 120.1 -1.1 122.29 -5.92 120.96 -9.95 L 120.94 -9.97 L 120.94 -10.01 C 120.44 -11.61 118.94 -12.76 116.93 -12.76 C 114.41 -12.76 112.72 -10.98 112.72 -8.77 Z M 114.05 -8.77 C 114.05 -10.71 115.15 -12.28 116.93 -12.28 C 118.69 -12.28 119.79 -10.71 119.79 -8.77 C 119.79 -6.84 118.69 -5.27 116.93 -5.27 C 115.15 -5.27 114.05 -6.84 114.05 -8.77 Z M 131.29 -12.6 L 123.88 -12.6 L 123.88 -12.1 L 129.8 -12.1 L 126 0 L 127.33 0 Z" stroke-linecap="round" />
</g>
		<g transform="matrix(1 0 0 1 0 47.18780000000004)" id="tagline-72c572a4-47cf-45b4-9695-5edb6dd783d8-logo-path-4"  >
<path style="stroke: none; stroke-width: 0; stroke-dasharray: none; stroke-linecap: butt; stroke-dashoffset: 0; stroke-linejoin: miter; stroke-miterlimit: 4; fill: rgb(255,255,255); fill-rule: nonzero; opacity: 1;"  paint-order="stroke"  transform=" translate(-156.98, 4.795)" d="M 6.46 0.16 C 8.24 0.16 9.54 -0.43 10.82 -1.94 L 10.1 -2.68 C 9.22 -1.22 7.9 -0.34 6.46 -0.34 C 3.82 -0.34 1.87 -2.72 1.87 -6.3 C 1.87 -9.65 3.78 -12.28 6.46 -12.28 C 7.99 -12.28 9.11 -11.59 10.1 -9.92 L 10.82 -10.66 C 9.7 -11.99 8.15 -12.76 6.46 -12.76 C 3.06 -12.76 0.54 -10.17 0.54 -6.3 C 0.54 -2.66 2.99 0.16 6.46 0.16 Z M 17.84 -12.6 L 13.34 -12.6 L 13.34 0 L 14.67 0 L 14.67 -3.8 L 16.27 -3.8 C 17.1 -3.69 17.82 -3.29 18.45 -2.79 C 19.46 -1.98 20.27 -0.95 21.26 0 C 22.23 0.94 23.22 1.94 24.55 2.63 C 25.2 2.95 25.96 3.17 26.71 3.17 C 27.49 3.17 28.21 2.93 28.82 2.57 L 28.62 2.11 C 28.17 2.23 27.72 2.3 27.29 2.3 C 25.85 2.3 24.64 1.39 23.62 0.45 C 23.13 0 22.66 -0.47 22.19 -0.95 C 21.1 -2.09 19.67 -3.24 18.18 -3.82 C 20.45 -4 22.23 -5.89 22.23 -8.21 C 22.23 -10.64 20.27 -12.6 17.84 -12.6 Z M 14.67 -4.3 L 14.67 -12.1 L 16.99 -12.1 C 19.15 -12.1 20.9 -10.35 20.9 -8.21 C 20.9 -6.05 19.15 -4.3 16.99 -4.3 Z M 25.54 0 L 26.05 0 L 27.36 -4.36 L 31.9 -4.36 L 33.23 0 L 34.56 0 L 30.71 -12.6 L 29.38 -12.6 Z M 27.52 -4.84 L 29.63 -11.77 L 31.75 -4.84 Z M 37.08 0 L 38.41 0 L 38.41 -12.6 L 37.08 -12.6 Z M 40.93 -6.3 C 40.93 -2.66 43.38 0.16 46.85 0.16 C 49.97 0.16 52.22 -1.85 52.72 -5.36 L 47.84 -5.36 L 47.84 -4.86 L 51.3 -4.86 C 50.78 -2.2 49.03 -0.34 46.85 -0.34 C 44.21 -0.34 42.26 -2.72 42.26 -6.3 C 42.26 -9.65 44.17 -12.28 46.85 -12.28 C 48.38 -12.28 49.5 -11.59 50.49 -9.92 L 51.21 -10.66 C 50.09 -11.99 48.55 -12.76 46.85 -12.76 C 43.45 -12.76 40.93 -10.17 40.93 -6.3 Z M 62.21 -0.5 L 56.57 -0.5 L 56.57 -12.6 L 55.24 -12.6 L 55.24 0 L 62.21 0 Z M 64.73 -6.3 C 64.73 -2.83 67.39 0.16 70.65 0.16 C 73.93 0.16 76.59 -2.83 76.59 -6.3 C 76.59 -9.77 73.93 -12.76 70.65 -12.76 C 67.37 -12.76 64.73 -9.77 64.73 -6.3 Z M 66.06 -6.3 C 66.06 -9.5 68.11 -12.28 70.65 -12.28 C 73.19 -12.28 75.26 -9.5 75.26 -6.3 C 75.26 -3.1 73.19 -0.34 70.65 -0.34 C 68.11 -0.34 66.06 -3.1 66.06 -6.3 Z M 79.11 -6.3 C 79.11 -2.66 81.56 0.16 85.03 0.16 C 88.15 0.16 90.4 -1.85 90.9 -5.36 L 86.02 -5.36 L 86.02 -4.86 L 89.48 -4.86 C 88.96 -2.2 87.21 -0.34 85.03 -0.34 C 82.39 -0.34 80.44 -2.72 80.44 -6.3 C 80.44 -9.65 82.35 -12.28 85.03 -12.28 C 86.56 -12.28 87.68 -11.59 88.67 -9.92 L 89.39 -10.66 C 88.27 -11.99 86.72 -12.76 85.03 -12.76 C 81.63 -12.76 79.11 -10.17 79.11 -6.3 Z M 94.75 -0.5 L 94.75 -6.05 L 99.45 -6.05 L 99.45 -6.55 L 94.75 -6.55 L 94.75 -12.1 L 100.75 -12.1 L 100.75 -12.6 L 93.42 -12.6 L 93.42 0 L 100.75 0 L 100.75 -0.5 Z M 107.77 -12.6 L 103.27 -12.6 L 103.27 0 L 104.6 0 L 104.6 -3.8 L 106.2 -3.8 C 107.03 -3.69 107.75 -3.29 108.38 -2.79 C 109.39 -1.98 110.2 -0.95 111.19 0 C 112.16 0.94 113.15 1.94 114.48 2.63 C 115.13 2.95 115.88 3.17 116.64 3.17 C 117.41 3.17 118.13 2.93 118.75 2.57 L 118.55 2.11 C 118.1 2.23 117.65 2.3 117.22 2.3 C 115.78 2.3 114.57 1.39 113.54 0.45 C 113.06 0 112.59 -0.47 112.12 -0.95 C 111.02 -2.09 109.6 -3.24 108.11 -3.82 C 110.38 -4 112.16 -5.89 112.16 -8.21 C 112.16 -10.64 110.2 -12.6 107.77 -12.6 Z M 104.6 -4.3 L 104.6 -12.1 L 106.92 -12.1 C 109.08 -12.1 110.83 -10.35 110.83 -8.21 C 110.83 -6.05 109.08 -4.3 106.92 -4.3 Z M 116.8 -12.6 L 115.47 -12.6 L 118.64 0 L 119.97 0 L 122.02 -8.12 L 124.07 0 L 125.41 0 L 128.57 -12.6 L 128.07 -12.6 L 125.15 -0.99 L 122.22 -12.6 L 120.89 -12.6 L 121.77 -9.11 L 119.74 -0.99 Z M 132.43 -0.5 L 132.43 -6.05 L 137.12 -6.05 L 137.12 -6.55 L 132.43 -6.55 L 132.43 -12.1 L 138.42 -12.1 L 138.42 -12.6 L 131.09 -12.6 L 131.09 0 L 138.42 0 L 138.42 -0.5 Z M 147.91 -0.5 L 142.27 -0.5 L 142.27 -12.6 L 140.94 -12.6 L 140.94 0 L 147.91 0 Z M 157.39 -0.5 L 151.76 -0.5 L 151.76 -12.6 L 150.43 -12.6 L 150.43 0 L 157.39 0 Z M 159.91 -6.23 C 159.91 -2.7 162.77 0.16 166.3 0.16 C 168.05 0.16 169.65 -0.56 170.8 -1.71 L 170.12 -2.39 C 169.2 -1.13 167.83 -0.34 166.3 -0.34 C 163.51 -0.34 161.24 -2.97 161.24 -6.23 C 161.24 -9.47 163.51 -12.1 166.3 -12.1 C 169.07 -12.1 171.34 -9.79 171.34 -6.55 C 171.34 -5.42 170.78 -4 170.12 -4 C 169.45 -4 168.91 -5.09 168.91 -6.23 L 168.91 -9.07 L 167.58 -9.07 L 167.58 -7.81 C 167.2 -8.73 166.5 -9.34 165.67 -9.34 C 164.47 -9.34 163.48 -7.99 163.48 -6.3 C 163.48 -4.63 164.47 -3.28 165.67 -3.28 C 166.59 -3.28 167.38 -4.05 167.71 -5.17 C 168.1 -4.21 169.24 -3.67 170.12 -3.67 C 171.54 -3.67 172.67 -4.97 172.67 -6.71 C 172.67 -10.24 169.81 -12.6 166.3 -12.6 C 162.77 -12.6 159.91 -9.74 159.91 -6.23 Z M 164.81 -6.3 C 164.81 -7.7 165.44 -8.82 166.19 -8.82 C 166.95 -8.82 167.58 -7.7 167.58 -6.3 C 167.58 -4.91 166.95 -3.8 166.19 -3.8 C 165.44 -3.8 164.81 -4.91 164.81 -6.3 Z M 181.12 0.16 C 182.9 0.16 184.19 -0.43 185.47 -1.94 L 184.75 -2.68 C 183.87 -1.22 182.56 -0.34 181.12 -0.34 C 178.47 -0.34 176.53 -2.72 176.53 -6.3 C 176.53 -9.65 178.43 -12.28 181.12 -12.28 C 182.65 -12.28 183.76 -11.59 184.75 -9.92 L 185.47 -10.66 C 184.36 -11.99 182.81 -12.76 181.12 -12.76 C 177.71 -12.76 175.19 -10.17 175.19 -6.3 C 175.19 -2.66 177.64 0.16 181.12 0.16 Z M 194.96 -0.5 L 189.32 -0.5 L 189.32 -12.6 L 187.99 -12.6 L 187.99 0 L 194.96 0 Z M 197.48 -6.3 C 197.48 -2.83 200.14 0.16 203.4 0.16 C 206.68 0.16 209.34 -2.83 209.34 -6.3 C 209.34 -9.77 206.68 -12.76 203.4 -12.76 C 200.12 -12.76 197.48 -9.77 197.48 -6.3 Z M 198.81 -6.3 C 198.81 -9.5 200.86 -12.28 203.4 -12.28 C 205.94 -12.28 208.01 -9.5 208.01 -6.3 C 208.01 -3.1 205.94 -0.34 203.4 -0.34 C 200.86 -0.34 198.81 -3.1 198.81 -6.3 Z M 213.19 -4.81 L 213.19 -12.6 L 211.86 -12.6 L 211.86 -4.81 C 211.86 -2.16 214.02 0.16 216.67 0.16 C 219.33 0.16 221.47 -2.16 221.47 -4.81 L 221.47 -12.6 L 220.97 -12.6 L 220.97 -4.81 C 220.97 -2.43 219.24 -0.34 217.08 -0.34 C 214.94 -0.34 213.19 -2.43 213.19 -4.81 Z M 223.99 0 L 227.74 0 C 231.21 0 234.04 -2.83 234.04 -6.3 C 234.04 -9.77 231.21 -12.6 227.74 -12.6 L 223.99 -12.6 Z M 225.32 -0.5 L 225.32 -12.1 L 226.91 -12.1 C 230.11 -12.1 232.7 -9.5 232.7 -6.3 C 232.7 -3.1 230.11 -0.5 226.91 -0.5 Z M 243.52 -0.5 L 237.89 -0.5 L 237.89 -12.6 L 236.56 -12.6 L 236.56 0 L 243.52 0 Z M 246.04 0 L 247.37 0 L 247.37 -12.6 L 246.04 -12.6 Z M 249.89 -12.6 L 249.89 0 L 250.4 0 L 250.4 -11.77 L 257.51 0 L 259 0 L 259 -12.6 L 258.5 -12.6 L 258.5 -0.83 L 251.39 -12.6 Z M 262.85 -0.5 L 262.85 -6.05 L 267.55 -6.05 L 267.55 -6.55 L 262.85 -6.55 L 262.85 -12.1 L 268.85 -12.1 L 268.85 -12.6 L 261.52 -12.6 L 261.52 0 L 268.85 0 L 268.85 -0.5 Z M 271.37 -0.5 C 271.37 -0.13 271.67 0.16 272.03 0.16 C 272.41 0.16 272.7 -0.13 272.7 -0.5 C 272.7 -0.86 272.41 -1.17 272.03 -1.17 C 271.67 -1.17 271.37 -0.86 271.37 -0.5 Z M 281.14 0.16 C 282.92 0.16 284.22 -0.43 285.5 -1.94 L 284.78 -2.68 C 283.9 -1.22 282.58 -0.34 281.14 -0.34 C 278.5 -0.34 276.55 -2.72 276.55 -6.3 C 276.55 -9.65 278.46 -12.28 281.14 -12.28 C 282.67 -12.28 283.79 -11.59 284.78 -9.92 L 285.5 -10.66 C 284.38 -11.99 282.83 -12.76 281.14 -12.76 C 277.74 -12.76 275.22 -10.17 275.22 -6.3 C 275.22 -2.66 277.67 0.16 281.14 0.16 Z M 288.02 -6.3 C 288.02 -2.83 290.68 0.16 293.94 0.16 C 297.22 0.16 299.88 -2.83 299.88 -6.3 C 299.88 -9.77 297.22 -12.76 293.94 -12.76 C 290.66 -12.76 288.02 -9.77 288.02 -6.3 Z M 289.35 -6.3 C 289.35 -9.5 291.4 -12.28 293.94 -12.28 C 296.48 -12.28 298.55 -9.5 298.55 -6.3 C 298.55 -3.1 296.48 -0.34 293.94 -0.34 C 291.4 -0.34 289.35 -3.1 289.35 -6.3 Z M 303.89 -12.6 L 302.4 -12.6 L 302.4 0 L 302.9 0 L 302.9 -11.25 L 307.08 0 L 308.57 0 L 312.08 -11.03 L 312.08 0 L 313.42 0 L 313.42 -12.6 L 312.08 -12.6 L 308.3 -0.72 Z" stroke-linecap="round" />
</g>
</g>
</g>
</svg>