<?xml version="1.0" encoding="UTF-8" standalone="no" ?>
<!DOCTYPE svg PUBLIC "-//W3C//DTD SVG 1.1//EN" "http://www.w3.org/Graphics/SVG/1.1/DTD/svg11.dtd">
<svg xmlns="http://www.w3.org/2000/svg" xmlns:xlink="http://www.w3.org/1999/xlink" version="1.1" width="1280" height="1024" viewBox="0 0 1280 1024" xml:space="preserve">
<desc>Created with Fabric.js 5.3.0</desc>
<defs>
</defs>
<g transform="matrix(1 0 0 1 640 512)" id="background-logo"  >
<rect style="stroke: none; stroke-width: 0; stroke-dasharray: none; stroke-linecap: butt; stroke-dashoffset: 0; stroke-linejoin: miter; stroke-miterlimit: 4; fill: rgb(30,30,87); fill-rule: nonzero; opacity: 1;"  paint-order="stroke"  x="-640" y="-512" rx="0" ry="0" width="1280" height="1024" />
</g>
<g transform="matrix(1.9211538461538462 0 0 1.9211538461538462 640 408.02008758947215)" id="logo-logo"  >
<g style=""  paint-order="stroke"   >
		<g transform="matrix(0.8403693724035253 0 0 0.8403693724035253 -4.567431111373992 23.21974325184928)"  >
<path style="stroke: none; stroke-width: 1; stroke-dasharray: none; stroke-linecap: butt; stroke-dashoffset: 0; stroke-linejoin: miter; stroke-miterlimit: 4; fill: rgb(8,8,71); fill-rule: nonzero; opacity: 1;"  paint-order="stroke"  transform=" translate(-512.9266662499999, -551.3112487999999)" d="M 583.4882812 537.6220703 C 575.9639892 540.0576782 570.3243408 543.6275635000001 566.7042236 546.3361206000001 C 570.8453369 539.0538940000001 574.9865112 531.7716064000001 579.1276245 524.4893799 C 597.1231079 525.6762085 615.1185303 526.8631592 633.1140137 528.0499878 C 635.1635742 531.3172607 639.449646 532.6836548 643.0056763 533.8423462000001 C 644.2471924 534.2468872000001 645.5004883 534.5753784000001 646.758606 534.8723145 L 618.0212402999999 534.8723145 C 613.0486450999999 535.6051636 606.6794434 537.4451294 600.914856 542.0213013 C 593.1241456 548.2059326 588.4387207 557.8206787 587.2061768 568.8121338 C 586.6085206 574.1416016 582.0299683 578.1331177 576.6670533 578.1331177 L 576.6670533 578.1331177 C 576.6546632000001 570.7693482 577.2841187 562.4376831 579.1276246 553.4255370999999 C 580.3192139 547.6003418 581.8453369 542.3197021 583.4882812 537.6220703 z M 460.0563354 578.1331177 L 460.0563354 578.1331177 C 460.0687255 570.7693482 459.43927 562.4376831 457.5957641 553.4255370999999 C 456.4041747 547.6003417999999 454.8780517 542.3197021 453.2351074 537.6220702999999 C 460.7593994 540.0576781999999 466.3990478 543.6275635 470.019165 546.3361206 C 465.8780517 539.053894 461.73687739999997 531.7716064 457.5957641 524.4893798999999 C 439.3566894 525.6922607999999 421.1174926 526.8953247 402.8784179 528.0982055999999 C 402.37365719999997 529.5979614999999 401.0960693 530.8030395999999 399.0425414 530.8030395999999 C 398.5236815 530.8030395999999 398.0702514 530.7063598999999 397.6503295 530.567688 C 394.5776977 532.2409058 391.1856689 532.93927 387.6808471 533.3562012 C 387.309204 533.4003907 386.94812 533.3670044 386.6012573 533.2814331 C 384.1043701 533.8331909 381.5975342 534.3435668999999 379.0947265 534.8723143999999 L 418.7021484 534.8723143999999 C 423.6747436 535.6051634999999 430.0439453 537.4451293 435.8085327 542.0213011999999 C 443.5992431 548.2059324999999 448.284668 557.8206786 449.5172119 568.8121336999999 C 450.1148376 574.1416016 454.6934509 578.1331177 460.0563354 578.1331177 z" stroke-linecap="round" />
</g>
		<g transform="matrix(0.8403693724035253 0 0 0.8403693724035253 4.201859837849e-8 -9.476493129753663)"  >
<linearGradient id="SVGID_91_279102" gradientUnits="userSpaceOnUse" gradientTransform="matrix(1 0 0 1 64.37786870000002 -56.170226999999954)"  x1="512.9266357" y1="578.1331177" x2="512.9266357" y2="524.4893799">
<stop offset="45.65638%" style="stop-color:rgb(255,255,255);stop-opacity: 1"/>
<stop offset="100%" style="stop-color:rgb(204,204,204);stop-opacity: 1"/>
</linearGradient>
<path style="stroke: none; stroke-width: 1; stroke-dasharray: none; stroke-linecap: butt; stroke-dashoffset: 0; stroke-linejoin: miter; stroke-miterlimit: 4; fill: url(#SVGID_91_279102); fill-rule: nonzero; opacity: 1;"  paint-order="stroke"  transform=" translate(-518.36169435, -512.4042664)" d="M 574.5318604 516.3191528 C 560.2331543 512.5522460999999 550.3647461 505.2896118 545.1384888 500.78686519999997 C 554.638855 498.99615479999994 563.1773072 497.55389399999996 570.7746582 496.45263669999997 C 569.001709 495.1426391 567.2156982 493.74700929999995 565.4254761 492.23400879999997 C 559.0092162999999 486.81143189999995 553.9779662999999 481.23352049999994 550.0895995999999 476.1907654 C 546.2590941999999 471.2229309 540.3446654999999 468.31915289999995 534.0715332 468.31915289999995 L 518.3616943 468.31915289999995 L 504.86944579999994 468.31915289999995 C 497.32208249999996 468.31915289999995 490.19894409999995 471.7587280999999 485.48535159999994 477.65322879999997 C 481.76937869999995 482.30010989999994 477.09988409999994 487.33056639999995 471.29791259999996 492.23400879999997 C 469.50769039999994 493.74700929999995 467.7216797 495.14263919999996 465.94873049999995 496.45263669999997 C 473.5460816 497.55389399999996 482.08453369999995 498.9961548 491.5848999 500.78686519999997 C 486.3586426 505.2896118 476.49023439999996 512.5522460999999 462.19152829999996 516.3191528 C 455.11761469999993 518.1827392 448.70800779999996 518.7288208 443.47259519999994 518.7230835 C 447.54565429999997 526.1281738 454.63696289999996 536.0437012 466.44683839999993 544.0638428 C 481.32171629999993 554.1655274 496.00695799999994 556.0479126 502.7021484999999 556.4893799 L 513.1047973999999 515.3309326 C 514.4843139999999 509.8728943 522.2390747 509.8728943 523.6185912999999 515.3309326 L 534.0212402 556.4893799 C 540.7164306 556.0479126 555.4016723 554.1655274 570.2765502999999 544.0638428 C 582.0864257999999 536.0437012 589.1777344 526.1281739 593.2507935 518.7230835 C 588.0153809 518.7288208 581.6057739 518.1827393 574.5318604 516.3191528 z" stroke-linecap="round" />
</g>
		<g transform="matrix(0.8403693724035253 0 0 0.8403693724035253 -31.467252647284568 -9.476493129753663)"  >
<linearGradient id="SVGID_92_279103" gradientUnits="userSpaceOnUse" gradientTransform="matrix(1 0 0 1 -9.999996564147e-8 0)"  x1="494.3208923" y1="560.3790283" x2="545.4779663" y2="471.7723999">
<stop offset="0%" style="stop-color:rgb(204,204,204);stop-opacity: 1"/>
<stop offset="54.34362%" style="stop-color:rgb(255,255,255);stop-opacity: 1"/>
</linearGradient>
<path style="stroke: none; stroke-width: 1; stroke-dasharray: none; stroke-linecap: butt; stroke-dashoffset: 0; stroke-linejoin: miter; stroke-miterlimit: 4; fill: url(#SVGID_92_279103); fill-rule: nonzero; opacity: 1;"  paint-order="stroke"  transform=" translate(-480.9171447, -512.4042664)" d="M 518.3616943 511.2373657 C 516.078125 511.2373657 513.7945556 512.6018677 513.1047973 515.3308716 L 502.7021484 556.4893799 C 496.006958 556.0479126 481.3217163 554.1655274 466.44683829999997 544.0638428 C 454.6369628 536.0437012 447.54565419999994 526.1281739 443.4725951 518.7230835 C 448.7080077 518.7288208 455.11761459999997 518.1827393 462.1915282 516.3191528 C 476.4902343 512.5522460999999 486.3586425 505.2896118 491.5848998 500.78686519999997 C 482.08453360000004 498.99615479999994 473.5460814 497.55389399999996 465.94873040000004 496.45263669999997 C 467.7216796000001 495.1426391 469.50769040000006 493.74700929999995 471.29791250000005 492.23400879999997 C 477.09991450000007 487.33056639999995 481.7694091000001 482.3001099 485.48535150000004 477.6531983 C 490.1989745 471.7587281 497.3220825 468.3191529 504.8694457 468.3191529 L 518.3616942 468.3191529 L 518.3616942 511.2373657 z" stroke-linecap="round" />
</g>
		<g transform="matrix(0.8403693724035253 0 0 0.8403693724035253 5.684342e-14 -10.477791430178314)"  >
<linearGradient id="SVGID_93_279104" gradientUnits="userSpaceOnUse" gradientTransform="matrix(1 0 0 1 -130.08728009999993 16.680847099999994)"  x1="480.9171448" y1="556.4893799" x2="480.9171448" y2="468.3191528">
<stop offset="45.65638%" style="stop-color:rgb(255,255,255);stop-opacity: 1"/>
<stop offset="100%" style="stop-color:rgb(204,204,204);stop-opacity: 1"/>
</linearGradient>
<path style="stroke: none; stroke-width: 1; stroke-dasharray: none; stroke-linecap: butt; stroke-dashoffset: 0; stroke-linejoin: miter; stroke-miterlimit: 4; fill: url(#SVGID_93_279104); fill-rule: nonzero; opacity: 1;"  paint-order="stroke"  transform=" translate(-518.3616943, -511.21276855)" d="M 410.4065552 529.085083 C 410.4065552 533.6914062000001 388.6876221 537.4255371 361.89593510000003 537.4255371 C 335.10424810000006 537.4255371 313.38531500000005 533.6914062000001 313.38531500000005 529.085083 C 313.38531500000005 526.9426880000001 318.08776860000006 524.989624 325.8093873 523.5125122000001 C 322.9404908 524.3410644 321.31054700000004 525.2802124000001 321.31054700000004 526.2766113 C 321.31054700000004 529.6137695 339.4812623 532.3191528 361.89593520000005 532.3191528 C 384.3106081000001 532.3191528 402.48132340000006 529.6137695 402.48132340000006 526.2766113 C 402.48132340000006 525.2802124 400.8513796000001 524.3410644 397.9824831000001 523.5125122000001 C 405.7041016 524.989624 410.4065552 526.942688 410.4065552 529.085083 z M 710.9140015 523.5125122 C 713.782898 524.3410643999999 715.4128418 525.2802124 715.4128418 526.2766112999999 C 715.4128418 529.6137694999999 697.2421265 532.3191527999999 674.8274536 532.3191527999999 C 652.4127807 532.3191527999999 634.2420654 529.6137694999999 634.2420654 526.2766112999999 C 634.2420654 525.2802123999999 635.8720092 524.3410643999999 638.7409057 523.5125122 C 631.019287 524.9896239999999 626.3168334 526.942688 626.3168334 529.0850829999999 C 626.3168334 533.6914062 648.0357664999999 537.4255370999999 674.8274534999999 537.4255370999999 C 701.6191405 537.4255370999999 723.3380735999999 533.6914062 723.3380735999999 529.0850829999999 C 723.3380737 526.942688 718.6356201 524.989624 710.9140015 523.5125122 z M 648.7539062 507.2949829 C 612.885559 507.2949829 583.8084716 502.2285156 583.8084716 495.9786987 C 583.8084716 490.78302 603.9117431 486.4082641 631.2988891 485.0792846 C 628.529541 485.0278931 625.7199707 485 622.8723145 485 C 579.4415894 485 544.2340088 491.1346436 544.2340088 498.7021484 C 544.2340088 506.2695922 579.4415894 512.4042358 622.8723145 512.4042358 C 656.0945435 512.4042358 684.4839478 508.81274410000003 696.0043335 503.73797600000006 C 684.1617432 505.9266357 667.3798218 507.2949829 648.7539062 507.2949829 z M 413.8510742 485 C 411.003418 485 408.1938476 485.0278931 405.4244995 485.0792847 C 432.81164550000005 486.4082642 452.914917 490.78302010000004 452.914917 495.9786988 C 452.914917 502.2285157 423.8378296 507.294983 387.9694824 507.294983 C 369.3435669 507.294983 352.5616455 505.9266358 340.7190552 503.7379762 C 352.23944090000003 508.81274429999996 380.6288452 512.404236 413.8510742 512.404236 C 457.28179930000005 512.404236 492.4893799 506.26959239999996 492.4893799 498.7021486 C 492.4893799 491.1346436 457.2817993 485 413.8510742 485 z" stroke-linecap="round" />
</g>
		<g transform="matrix(0.8403693724035253 0 0 0.8403693724035253 8.403696938331e-8 35.74914074228769)"  >
<linearGradient id="SVGID_94_279105" gradientUnits="userSpaceOnUse" gradientTransform="matrix(1 0 0 1 180.32623289999987 68.39874270000001)"  x1="313.3853149" y1="511.2127686" x2="723.3380737" y2="511.2127686">
<stop offset="15.621360000000001%" style="stop-color:rgb(0,255,255);stop-opacity: 1"/>
<stop offset="36.381409999999995%" style="stop-color:rgb(5,116,226);stop-opacity: 1"/>
<stop offset="62.372989999999994%" style="stop-color:rgb(8,117,226);stop-opacity: 1"/>
<stop offset="82.71784%" style="stop-color:rgb(0,250,254);stop-opacity: 1"/>
</linearGradient>
<path style="stroke: none; stroke-width: 1; stroke-dasharray: none; stroke-linecap: butt; stroke-dashoffset: 0; stroke-linejoin: miter; stroke-miterlimit: 4; fill: url(#SVGID_94_279105); fill-rule: nonzero; opacity: 1;"  paint-order="stroke"  transform=" translate(-518.3616943999999, -566.2206421000001)" d="M 542.9867554 553.3987427 C 538.99823 554.6984252999999 533.595398 556.1077270999999 527.0923462 556.8277588 C 527.392395 557.7359619 527.5606078999999 558.7040405 527.5606078999999 559.7127686 C 527.5606078999999 564.7932129 523.4421386999999 568.9117432 518.3616943 568.9117432 C 513.2812499 568.9117432 509.16275019999995 564.7932129000001 509.16275019999995 559.7127686 C 509.16275019999995 558.6994629 509.33288569999996 557.727356 509.6354979999999 556.8156128 C 503.1612242999999 556.0977783000001 497.74942009999995 554.7064209 493.73663329999994 553.3987427000001 C 493.7236022999999 553.7287598 493.7115478999999 554.0591431 493.7115478999999 554.3923950000001 C 493.7115478999999 568.0063476 504.7478332999999 579.0425415000001 518.3616943999999 579.0425415000001 C 531.9755859999999 579.0425415000001 543.0118408999999 568.0063477000001 543.0118408999999 554.3923950000001 C 543.0118408 554.0591431 542.9997559 553.7287598 542.9867554 553.3987427 z" stroke-linecap="round" />
</g>
		<g transform="matrix(0.8403693724035253 0 0 0.8403693724035253 5.684342e-14 30.199851006922216)"  >
<linearGradient id="SVGID_95_279106" gradientUnits="userSpaceOnUse" gradientTransform="matrix(1 0 0 1 -499.1353549999999 -558.8225497999999)"  x1="493.8549194" y1="566.2206421" x2="543.1552124" y2="566.2206421">
<stop offset="51.260110000000005%" style="stop-color:rgb(255,255,255);stop-opacity: 1"/>
<stop offset="75.68651%" style="stop-color:rgb(204,204,204);stop-opacity: 1"/>
<stop offset="100%" style="stop-color:rgb(255,255,255);stop-opacity: 1"/>
</linearGradient>
<circle style="stroke: none; stroke-width: 1; stroke-dasharray: none; stroke-linecap: butt; stroke-dashoffset: 0; stroke-linejoin: miter; stroke-miterlimit: 4; fill: url(#SVGID_95_279106); fill-rule: nonzero; opacity: 1;"  paint-order="stroke"  cx="0" cy="0" r="5.4238071" />
</g>
		<g transform="matrix(0.8403693724035253 0 0 0.8403693724035253 1.6807388192319e-7 35.749140742287636)"  >
<linearGradient id="SVGID_96_279107" gradientUnits="userSpaceOnUse" gradientTransform="matrix(1 0 0 1 -19.226339200000098 -0.7946987000000263)"  x1="512.9378662" y1="559.6172485" x2="523.7855225" y2="559.6172485">
<stop offset="15.621360000000001%" style="stop-color:rgb(5,116,226);stop-opacity: 1"/>
<stop offset="82.71784%" style="stop-color:rgb(0,250,254);stop-opacity: 1"/>
</linearGradient>
<path style="stroke: none; stroke-width: 1; stroke-dasharray: none; stroke-linecap: butt; stroke-dashoffset: 0; stroke-linejoin: miter; stroke-miterlimit: 4; fill: url(#SVGID_96_279107); fill-rule: nonzero; opacity: 1;"  paint-order="stroke"  transform=" translate(-518.3616944999999, -566.2206421)" d="M 542.9867554 553.3987427 C 540.6096192 564.876709 530.7294922 573.2601318999999 519.3174439 573.6904297 C 507.2321168 574.1461181999999 496.27685549999995 565.5750122 493.73663339999996 553.3987427 C 493.72360239999995 553.7287597999999 493.71154799999994 554.0591430999999 493.71154799999994 554.392395 C 493.71154799999994 568.0063475999999 504.74783339999993 579.0425415 518.3616944999999 579.0425415 C 531.9755860999999 579.0425415 543.0118409999999 568.0063477 543.0118409999999 554.392395 C 543.0118408 554.0591431 542.9997559 553.7287598 542.9867554 553.3987427 z" stroke-linecap="round" />
</g>
		<g transform="matrix(0.8403693724035253 0 0 0.8403693724035253 -2.7444594721213775 27.544133944722574)"  >
<linearGradient id="SVGID_97_279108" gradientUnits="userSpaceOnUse" gradientTransform="matrix(1 0 0 1 -75.00939949999997 -18.61772001795748)"  x1="493.7115479" y1="566.2206421" x2="543.0118408" y2="566.2206421">
<stop offset="24.99204%" style="stop-color:rgb(255,255,255);stop-opacity: 1"/>
<stop offset="44.57193%" style="stop-color:rgb(204,204,204);stop-opacity: 1"/>
<stop offset="87.02734%" style="stop-color:rgb(255,255,255);stop-opacity: 1"/>
</linearGradient>
<path style="stroke: none; stroke-width: 1; stroke-dasharray: none; stroke-linecap: butt; stroke-dashoffset: 0; stroke-linejoin: miter; stroke-miterlimit: 4; fill: url(#SVGID_97_279108); fill-rule: nonzero; opacity: 1;"  paint-order="stroke"  transform=" translate(-515.0959167, -556.4570701910213)" d="M 458.1522217 556.3563232 C 459.5633545 564.2463378 460.06738279999996 571.5753173 460.0563355 578.1331176 C 454.6934205 578.1331176 450.1148682 574.1416015 449.517212 568.8120727 C 448.2846681 557.8206787 443.5992432 548.2059326000001 435.80853279999997 542.0213012 C 430.0439454 537.4451293000001 423.67474369999996 535.6051635 418.70214849999996 534.8723144 C 423.12255869999996 534.5902099000001 429.8546143 534.8091430000001 437.1702271 537.7659301000001 C 447.7762451 542.0526123 454.3377686 549.9632568 458.1522217 556.3563232 z M 598.9301147 539.2765503 C 588.7699585 543.3830566 582.3248291 550.8135986000001 578.4472045 557.0515137000001 C 577.1293334 564.6772461 576.656372 571.7680664000001 576.6670531 578.1331177000001 C 582.0299681 578.1331177000001 586.6085204 574.1416016000001 587.2061765999999 568.8121338000001 C 588.4387204999999 557.8206787 593.1241454 548.2059326000001 600.9148557999999 542.0213013000001 C 604.3667601 539.2810059000001 608.0338744 537.5269165000001 611.4896848999999 536.3991089000001 C 607.8062134 536.6578369 603.4815063 537.4370117 598.9301147 539.2765503 z" stroke-linecap="round" />
</g>
</g>
</g>
<g transform="matrix(1 0 0 1 325 314.4233539154053)" id="text-logo"  >
<g style=""  paint-order="stroke"   >
		<g transform="matrix(1 0 0 1 0 0)" id="text-logo-path-0"  >
<path style="stroke: none; stroke-width: 0; stroke-dasharray: none; stroke-linecap: butt; stroke-dashoffset: 0; stroke-linejoin: miter; stroke-miterlimit: 4; fill: rgb(255,255,255); fill-rule: nonzero; opacity: 1;"  paint-order="stroke"  transform=" translate(0, 0)" d="" stroke-linecap="round" />
</g>
</g>
</g>
<g transform="matrix(1 0 0 1 325 354.73401502157407)" id="tagline-01f97f93-aec9-4cf8-8b73-8a8de2c7d284-logo"  >
<g style=""  paint-order="stroke"   >
		<g transform="matrix(1 0 0 1 0 0)" id="tagline-01f97f93-aec9-4cf8-8b73-8a8de2c7d284-logo-path-0"  >
<path style="stroke: none; stroke-width: 0; stroke-dasharray: none; stroke-linecap: butt; stroke-dashoffset: 0; stroke-linejoin: miter; stroke-miterlimit: 4; fill: rgb(5,158,235); fill-rule: nonzero; opacity: 1;"  paint-order="stroke"  transform=" translate(0, 0)" d="" stroke-linecap="round" />
</g>
</g>
</g>
</svg>